<?xml version="1.0" encoding="UTF-8" standalone="no"?>
<svg width="35px" height="35px" viewBox="0 0 35 35" version="1.1" xmlns="http://www.w3.org/2000/svg" xmlns:xlink="http://www.w3.org/1999/xlink">
    <!-- Generator: Sketch 47.1 (45422) - http://www.bohemiancoding.com/sketch -->
    <title>Group 19</title>
    <desc>Created with Sketch.</desc>
    <defs></defs>
    <g id="BAP-(Desktop)" stroke="none" stroke-width="1" fill="none" fill-rule="evenodd">
        <g id="NEWChoose-a-Metric-#2" transform="translate(-375.000000, -390.000000)">
            <g id="Group-25" transform="translate(327.000000, 376.000000)">
                <g id="Group-20" transform="translate(9.000000, 14.000000)">
                    <g id="Group-19" transform="translate(39.000000, 0.000000)">
                        <g id="icon" fill="#D8D8D8">
                            <polygon id="Rectangle-5" points="0 0 8 4.5 17.5 0 27.5 3 35 0 35 35 0 35"></polygon>
                        </g>
                        <g id="icon" transform="translate(0.000000, 2.333333)" fill="#FFCA28">
                            <polygon id="Rectangle-5" points="0 7 6 4.08333333 11 9.91666667 19 4.08333333 26 7 35 0.583333333 35 32.6666667 0 32.6666667"></polygon>
                        </g>
                        <g id="icon" transform="translate(0.000000, 15.166667)" fill="#EF7C15">
                            <polygon id="Rectangle-5" points="0 7 5.5 8.1 15.5 0.583333333 22 8.1 28.5 2.91666667 35 4.08333333 35 19.8333333 0 19.8333333"></polygon>
                        </g>
                    </g>
                </g>
            </g>
        </g>
    </g>
</svg>