<?xml version="1.0" encoding="UTF-8" standalone="no"?>
<svg width="35px" height="35px" viewBox="0 0 35 35" version="1.1" xmlns="http://www.w3.org/2000/svg" xmlns:xlink="http://www.w3.org/1999/xlink">
    <!-- Generator: Sketch 47.1 (45422) - http://www.bohemiancoding.com/sketch -->
    <title>areasplice</title>
    <desc>Created with Sketch.</desc>
    <defs>
        <polygon id="path-1" points="0 8.5 6.5 13 17.5 1 28.5 14.5 35 11 35 35 0 35"></polygon>
        <polygon id="path-2" points="0 17 6 27.5517241 17.5 20.1034483 27 24.4482759 35 17 35 35 0 35"></polygon>
    </defs>
    <g id="BAP-(Desktop)" stroke="none" stroke-width="1" fill="none" fill-rule="evenodd">
        <g id="Metric-Icons" transform="translate(-92.000000, -84.000000)">
            <g id="areasplice" transform="translate(92.000000, 84.000000)">
                <g id="Group">
                    <g>
                        <g id="Rectangle-5">
                            <use fill="#FFCA28" fill-rule="evenodd" xlink:href="#path-1"></use>
                            <path stroke="#EF7C15" stroke-width="1" d="M0.5,9.45428417 L0.5,34.5 L34.5,34.5 L34.5,11.8371086 L28.3733269,15.1360864 L17.4777401,1.7642299 L6.57392039,13.659306 L0.5,9.45428417 Z"></path>
                        </g>
                        <g id="Rectangle-5">
                            <use fill="#EF7C15" fill-rule="evenodd" xlink:href="#path-2"></use>
                            <path stroke="#EF7C15" stroke-width="1" d="M0.5,18.8908373 L0.5,34.5 L34.5,34.5 L34.5,18.1486763 L27.0960453,25.0420134 L17.5415369,20.6722564 L5.82719658,28.2593554 L0.5,18.8908373 Z"></path>
                        </g>
                        <circle id="Oval" stroke="#EF7C15" fill="#D8D8D8" cx="17.5" cy="3" r="2.5"></circle>
                        <circle id="Oval" stroke="#EF7C15" fill="#D8D8D8" cx="27.5" cy="14.5" r="2.5"></circle>
                        <circle id="Oval" stroke="#EF7C15" fill="#D8D8D8" cx="6.5" cy="12.5" r="2.5"></circle>
                    </g>
                </g>
            </g>
        </g>
    </g>
</svg>