<?xml version="1.0" encoding="UTF-8" standalone="no"?>
<svg width="744px" height="223px" viewBox="0 0 744 223" version="1.1" xmlns="http://www.w3.org/2000/svg" xmlns:xlink="http://www.w3.org/1999/xlink">
    <!-- Generator: Sketch 47.1 (45422) - http://www.bohemiancoding.com/sketch -->
    <title>BlocklightLogo_Full-01-01</title>
    <desc>Created with Sketch.</desc>
    <defs></defs>
    <g id="Page-1" stroke="none" stroke-width="1" fill="none" fill-rule="evenodd">
        <g id="BlocklightLogo_Full-01-01" transform="translate(0.000000, -44.000000)">
            <path d="M163.485,189.727 C163.983,189.727 164.581,189.727 165.276,189.727 C165.971,189.727 166.684,189.711 167.415,189.675 C168.145,189.642 168.858,189.59 169.553,189.52 C170.248,189.451 170.809,189.349 171.238,189.21 C174.302,188.349 176.637,186.59 178.241,183.934 C179.845,181.278 180.647,178.158 180.647,174.571 C180.647,171.399 179.622,168.52 177.572,165.933 C175.523,163.347 172.716,161.641 169.152,160.813 C168.297,160.605 167.191,160.443 165.837,160.322 C164.482,160.201 163.325,160.14 162.362,160.14 L143.864,160.14 L143.864,189.727 L163.485,189.727 Z M162.362,153.262 C163.396,153.262 164.661,153.175 166.159,153.002 C167.655,152.83 168.867,152.571 169.794,152.227 C172.217,151.227 174.159,149.615 175.621,147.39 C177.082,145.166 177.813,142.572 177.813,139.605 C177.813,136.847 177.189,134.27 175.942,131.874 C174.693,129.476 172.467,127.779 169.259,126.778 C168.475,126.502 167.335,126.33 165.837,126.261 C164.341,126.191 163.146,126.158 162.256,126.158 L143.864,126.158 L143.864,153.262 L162.362,153.262 Z M135.524,119.278 L162.256,119.278 C163.359,119.278 164.821,119.33 166.639,119.433 C168.457,119.537 169.918,119.692 171.023,119.898 C173.731,120.485 176.031,121.408 177.92,122.665 C179.809,123.925 181.359,125.441 182.572,127.217 C183.782,128.995 184.683,130.925 185.272,133.01 C185.859,135.097 186.153,137.227 186.153,139.399 C186.153,141.088 185.895,142.822 185.378,144.596 C184.861,146.374 184.077,148.037 183.026,149.589 C181.974,151.14 180.638,152.529 179.016,153.753 C177.394,154.977 175.532,155.848 173.429,156.364 C175.603,156.778 177.644,157.554 179.551,158.692 C181.458,159.831 183.106,161.193 184.497,162.779 C185.886,164.365 186.982,166.158 187.784,168.158 C188.586,170.158 188.987,172.296 188.987,174.571 C188.987,177.124 188.604,179.563 187.837,181.891 C187.071,184.219 185.975,186.339 184.55,188.253 C183.124,190.166 181.386,191.787 179.337,193.116 C177.287,194.442 175.033,195.4 172.574,195.985 C171.398,196.262 169.892,196.435 168.056,196.503 C166.22,196.572 164.697,196.606 163.485,196.606 L135.524,196.606 L135.524,119.278 L135.524,119.278 Z" id="Fill-1" fill="#FFFFFE"></path>
            <polyline id="Fill-2" fill="#FFFFFE" points="196.098 119.278 204.438 119.278 204.438 189.727 240.365 189.727 240.365 196.606 196.098 196.606 196.098 119.278"></polyline>
            <path d="M287.146,190.762 C291.636,190.623 295.734,189.778 299.442,188.228 C303.469,186.539 306.928,184.211 309.814,181.245 C312.702,178.279 314.928,174.822 316.498,170.873 C318.064,166.925 318.85,162.692 318.85,158.176 C318.85,153.485 318.064,149.132 316.498,145.115 C314.928,141.098 312.719,137.605 309.868,134.64 C307.016,131.675 303.577,129.347 299.549,127.657 C295.807,126.104 291.671,125.261 287.146,125.123 L287.146,118.191 C292.563,118.33 297.625,119.33 302.33,121.192 C307.356,123.226 311.713,126.027 315.401,129.597 C319.09,133.166 321.977,137.374 324.062,142.218 C326.147,147.063 327.19,152.296 327.19,157.916 C327.19,163.64 326.129,168.926 324.009,173.769 C321.889,178.615 318.984,182.821 315.295,186.391 C311.605,189.96 307.266,192.728 302.276,194.692 C297.572,196.521 292.526,197.503 287.146,197.642 L287.146,190.762 Z M282.921,125.226 C279.25,125.536 275.846,126.399 272.71,127.813 C268.647,129.605 265.172,132.002 262.285,135.002 C259.397,138.001 257.134,141.502 255.495,145.503 C253.855,149.502 253.036,153.693 253.036,158.071 C253.036,162.52 253.855,166.719 255.495,170.666 C257.134,174.616 259.397,178.071 262.285,181.037 C265.172,184.003 268.628,186.364 272.657,188.123 C275.829,189.503 279.25,190.348 282.921,190.659 L282.921,197.537 C278.324,197.228 273.975,196.262 269.877,194.641 C264.851,192.641 260.476,189.857 256.751,186.287 C253.027,182.718 250.086,178.528 247.93,173.718 C245.773,168.908 244.695,163.692 244.695,158.071 C244.695,152.555 245.792,147.374 247.983,142.527 C250.175,137.684 253.134,133.459 256.858,129.856 C260.583,126.253 264.958,123.398 269.984,121.295 C274.082,119.606 278.395,118.605 282.921,118.294 L282.921,125.226 L282.921,125.226 Z" id="Fill-3" fill="#FFFFFE"></path>
            <path d="M374.346,197.796 C368.358,197.796 362.833,196.753 357.772,194.666 C352.71,192.581 348.354,189.736 344.7,186.133 C341.047,182.529 338.178,178.305 336.093,173.46 C334.008,168.615 332.966,163.486 332.966,158.071 C332.966,152.623 334.025,147.477 336.146,142.632 C338.267,137.787 341.19,133.562 344.914,129.959 C348.638,126.356 353.015,123.493 358.039,121.373 C363.064,119.252 368.5,118.191 374.346,118.191 C380.12,118.191 385.412,119.183 390.225,121.165 C395.035,123.148 399.313,125.83 403.056,129.209 L398.03,134.744 C394.965,132.054 391.471,129.777 387.552,127.916 C383.63,126.053 379.192,125.123 374.238,125.123 C369.354,125.123 364.892,126.02 360.846,127.813 C356.801,129.605 353.335,132.002 350.448,135.002 C347.562,138.001 345.315,141.502 343.711,145.503 C342.107,149.502 341.306,153.693 341.306,158.071 C341.306,162.52 342.125,166.719 343.765,170.666 C345.403,174.616 347.685,178.089 350.609,181.089 C353.529,184.09 357.014,186.468 361.06,188.228 C365.104,189.985 369.533,190.865 374.346,190.865 C379.336,190.865 383.764,189.985 387.631,188.228 C391.498,186.468 394.965,184.313 398.03,181.762 L402.735,187.192 C398.921,190.572 394.643,193.185 389.904,195.028 C385.162,196.874 379.977,197.796 374.346,197.796" id="Fill-4" fill="#FFFFFE"></path>
            <path d="M421.394,152.64 L455.877,119.278 L466.837,119.278 L427.541,157.192 L469.456,196.606 L457.642,196.606 L421.394,162.365 L421.394,152.64 Z M410.808,196.606 L419.147,196.606 L419.147,119.278 L410.808,119.278 L410.808,196.606 Z" id="Fill-5" fill="#FFFFFE"></path>
            <polyline id="Fill-6" fill="#FFFFFE" points="473.198 119.278 481.538 119.278 481.538 189.727 517.465 189.727 517.465 196.606 473.198 196.606 473.198 119.278"></polyline>
            <polygon id="Fill-7" fill="#FFFFFE" points="523.989 196.606 532.329 196.606 532.329 119.278 523.989 119.278"></polygon>
            <path d="M581.782,197.642 C576.044,197.642 570.636,196.641 565.557,194.641 C560.478,192.641 556.059,189.857 552.298,186.287 C548.538,182.718 545.578,178.528 543.423,173.718 C541.267,168.908 540.188,163.692 540.188,158.071 C540.188,152.555 541.267,147.374 543.423,142.527 C545.578,137.684 548.538,133.459 552.298,129.856 C556.059,126.253 560.433,123.408 565.423,121.321 C570.412,119.234 575.76,118.191 581.462,118.191 C588.768,118.191 595.344,119.684 601.19,122.665 C607.035,125.649 611.883,129.848 615.732,135.261 L609.477,139.502 C606.34,135.053 602.526,131.545 598.036,128.976 C593.544,126.407 588.056,125.123 581.568,125.123 C576.828,125.123 572.435,126.001 568.39,127.761 C564.344,129.52 560.859,131.899 557.939,134.899 C555.016,137.898 552.733,141.399 551.095,145.398 C549.456,149.399 548.636,153.623 548.636,158.071 C548.636,162.52 549.437,166.719 551.042,170.666 C552.645,174.616 554.909,178.071 557.831,181.037 C560.754,184.003 564.22,186.364 568.23,188.123 C572.239,189.883 576.649,190.762 581.462,190.762 C588.126,190.762 593.695,189.849 598.17,188.02 C602.643,186.192 605.805,184.003 607.659,181.451 L607.659,165.054 L586.595,165.054 L586.595,158.176 L615.946,158.176 L615.946,183.571 C614.876,185.331 613.3,187.063 611.215,188.77 C609.13,190.477 606.643,191.978 603.757,193.27 C600.87,194.563 597.581,195.616 593.892,196.426 C590.203,197.236 586.167,197.642 581.782,197.642" id="Fill-8" fill="#FFFFFE"></path>
            <polyline id="Fill-9" fill="#FFFFFE" points="627.441 119.278 635.781 119.278 635.781 152.33 678.712 152.33 678.712 119.278 687.052 119.278 687.052 196.606 678.712 196.606 678.712 159.209 635.781 159.209 635.781 196.606 627.441 196.606 627.441 119.278"></polyline>
            <polyline id="Fill-10" fill="#FFFFFE" points="713.837 126.158 692.506 126.158 692.506 119.278 743.403 119.278 743.403 126.158 722.178 126.158 722.178 196.606 713.837 196.606 713.837 126.158"></polyline>
            <path d="M65.21,236.285 C37.409,250.114 0.225,266.317 0.225,266.317 C0.225,266.317 -0.565,239.646 28.41,222.118 C54.264,206.478 76.866,204.683 81.434,191.6 C81.434,191.6 91.015,223.449 65.21,236.285" id="Fill-11" fill="#F7C546"></path>
            <path d="M65.21,174.897 C37.409,188.727 0.225,204.93 0.225,204.93 C0.225,204.93 -0.565,178.259 28.41,160.73 C54.264,145.09 76.866,143.295 81.434,130.211 C81.434,130.211 91.015,162.062 65.21,174.897" id="Fill-12" fill="#DE7431"></path>
            <path d="M80.234,132.77 C81.561,130.56 82.274,128.006 82.274,124.937 C82.274,106.81 57.384,106.445 28.41,88.917 C-0.565,71.389 0.225,44.718 0.225,44.718 C0.225,44.718 71.306,75.814 90.469,88.438 C109.477,100.957 113.845,113.384 113.915,124.684 L113.915,124.964 C113.845,136.264 109.477,148.69 90.469,161.21 C85.161,164.707 75.871,169.62 65.21,174.897 C65.21,174.897 81.188,154.587 80.234,132.77" id="Fill-13" fill="#DE7431"></path>
            <path d="M28.41,150.305 C28.602,150.421 28.793,150.529 28.984,150.644 C38.079,145.617 46.655,142.077 53.754,139.158 C57.143,137.765 60.357,136.442 63.178,135.136 C35.609,121.586 0.225,106.105 0.225,106.105 C0.225,106.105 -0.565,132.777 28.41,150.305" id="Fill-14" fill="#E48A37"></path>
            <path d="M113.915,186.071 C113.867,178.274 111.767,169.942 104.229,161.412 C101.501,163.773 98.479,166.062 95.122,168.273 C91.56,170.619 86.33,173.58 79.362,177.206 C81.236,179.712 82.274,182.648 82.274,186.324 C82.274,189.394 81.561,191.948 80.234,194.157 C81.188,215.975 65.21,236.285 65.21,236.285 C75.871,231.008 85.161,226.095 90.469,222.598 C109.477,210.078 113.845,197.651 113.915,186.352 L113.922,186.352 C113.922,186.306 113.918,186.258 113.918,186.212 C113.918,186.165 113.922,186.118 113.922,186.071 L113.915,186.071" id="Fill-15" fill="#F7C546"></path>
        </g>
    </g>
</svg>