<svg xmlns="http://www.w3.org/2000/svg" viewBox="0 0 114.81 104.2"><defs><style>.cls-1{fill:none;}.cls-1,.cls-2{stroke:#e98534;stroke-miterlimit:10;stroke-width:4px;}.cls-2,.cls-4{fill:#fff;}.cls-3{fill:#e98534;}</style></defs><title>#icon-abandonedcart_1</title><g id="Layer_2" data-name="Layer 2"><g id="abandonedcart-Discount_Mobile_" data-name="abandonedcart-Discount(Mobile)"><polyline class="cls-1" points="0 22.2 15.61 22.2 31.23 81.31 100.38 81.31"/><polygon class="cls-2" points="99.82 71.83 29 72.39 18.4 32.8 112.09 32.8 99.82 71.83"/><circle class="cls-2" cx="40.15" cy="94.95" r="7.25"/><circle class="cls-2" cx="90.34" cy="94.95" r="7.25"/><line class="cls-1" x1="23.21" y1="52.82" x2="106.17" y2="52.82"/><line class="cls-1" x1="41.98" y1="33.06" x2="41.98" y2="72.57"/><line class="cls-1" x1="85.43" y1="33.06" x2="85.43" y2="71.58"/><line class="cls-1" x1="64.69" y1="33.06" x2="64.69" y2="72.57"/><path class="cls-3" d="M65.38,40.63A19.77,19.77,0,1,1,85.14,20.87,19.79,19.79,0,0,1,65.38,40.63Z"/><path class="cls-4" d="M65.38,2.2A18.67,18.67,0,1,1,46.71,20.87,18.67,18.67,0,0,1,65.38,2.2m0-2.2A20.87,20.87,0,1,0,86.24,20.87,20.89,20.89,0,0,0,65.38,0Z"/><path class="cls-4" d="M63.08,25.67v-1a6,6,0,0,1,.63-2.9,8.25,8.25,0,0,1,2.22-2.39,12.25,12.25,0,0,0,2.43-2.31,3.47,3.47,0,0,0,.55-2,2.47,2.47,0,0,0-.89-2,4,4,0,0,0-2.55-.71,8.76,8.76,0,0,0-2.79.43,19.77,19.77,0,0,0-2.5,1L58.85,11a13.93,13.93,0,0,1,6.88-1.79,7.44,7.44,0,0,1,4.92,1.52,5.17,5.17,0,0,1,1.82,4.19,6,6,0,0,1-.35,2.11,6.06,6.06,0,0,1-1.05,1.76A17,17,0,0,1,68.65,21a9.32,9.32,0,0,0-2,1.91,3.68,3.68,0,0,0-.5,2v.71Zm-.65,5a2.08,2.08,0,0,1,2.33-2.39A2.3,2.3,0,0,1,66.5,29a2.44,2.44,0,0,1,.6,1.76,2.51,2.51,0,0,1-.61,1.78,2.63,2.63,0,0,1-3.46,0A2.52,2.52,0,0,1,62.43,30.72Z"/></g></g></svg>