<?xml version="1.0" encoding="UTF-8"?>
<svg width="30px" height="30px" viewBox="0 0 30 30" version="1.1" xmlns="http://www.w3.org/2000/svg" xmlns:xlink="http://www.w3.org/1999/xlink">
    <!-- Generator: Sketch 47.1 (45422) - http://www.bohemiancoding.com/sketch -->
    <title>link</title>
    <desc>Created with Sketch.</desc>
    <defs></defs>
    <g id="BAP-(Desktop)" stroke="none" stroke-width="1" fill="none" fill-rule="evenodd">
        <g id="Tasklist-Modal-#0" transform="translate(-75.000000, -106.000000)" fill-rule="nonzero" fill="#EF7C15">
            <g id="integrations-Moal" transform="translate(2.000000, 2.000000)">
                <g id="link" transform="translate(73.000000, 104.000000)">
                    <path d="M19.1374558,10.862762 C22.6382575,14.3671887 22.5902106,19.9856739 19.1585496,23.4363702 C19.1521043,23.4434015 19.1444871,23.4510186 19.1374558,23.4580499 L15.1999549,27.3955422 C11.7271025,30.868387 6.07696437,30.8679182 2.60463931,27.3955422 C-0.868213103,23.9232834 -0.868213103,18.2725131 2.60463931,14.8002543 L4.77881953,12.6260789 C5.35538217,12.0495175 6.3483121,12.4327199 6.37807773,13.247523 C6.41604649,14.2859194 6.60225747,15.329179 6.94585131,16.336638 C7.06221852,16.6777702 6.97907397,17.0551132 6.72419109,17.3099955 L5.9573745,18.0768104 C4.31522566,19.7189556 4.26372174,22.3928176 5.8896987,24.0510175 C7.53173035,25.725565 10.2306763,25.7355259 11.8853056,24.0809002 L15.8228066,20.1439939 C17.4746234,18.4921807 17.4677093,15.8223031 15.8228066,14.177404 C15.6059511,13.9609591 15.3875135,13.7927953 15.2168885,13.6753151 C14.9721305,13.5072402 14.821207,13.2333756 14.8098376,12.9366837 C14.7866345,12.3175248 15.0060095,11.6794987 15.4952675,11.1902418 L16.7289006,9.95655282 C17.0523967,9.63305736 17.5598773,9.59333087 17.9349946,9.85512724 C18.3645857,10.1550971 18.7669569,10.4922749 19.1374558,10.862762 Z M27.395368,2.60445781 C23.9230429,-0.867918224 18.2729049,-0.868386973 14.8000524,2.60445781 L10.8625515,6.54195012 C10.8555202,6.54898135 10.847903,6.55659852 10.8414577,6.56362976 C7.40985532,10.0143261 7.36174984,15.6328113 10.8625515,19.137238 C11.2330286,19.5077084 11.6353806,19.8448669 12.0649541,20.1448142 C12.4400714,20.4066105 12.9476106,20.3668255 13.2710482,20.0433886 L14.5046813,18.8096996 C14.9939392,18.3204427 15.2133143,17.6824166 15.1901111,17.0632577 C15.1787417,16.7665658 15.0278182,16.4927012 14.7830602,16.3246263 C14.6124352,16.2071461 14.3939977,16.0389823 14.1771421,15.8225375 C12.5322394,14.1776383 12.5253253,11.5077607 14.1771421,9.85594755 L18.1146431,5.91904118 C19.7692724,4.2644155 22.4681598,4.27437642 24.11025,5.94892393 C25.736227,7.60712382 25.6847817,10.2809858 24.0425742,11.923131 L23.2757576,12.6899459 C23.0208748,12.9448282 22.9377302,13.3221712 23.0540974,13.6633034 C23.3976913,14.6707624 23.5839022,15.714022 23.621871,16.7524185 C23.6516952,17.5672215 24.6445666,17.9504239 25.2211292,17.3738626 L27.3953094,15.1996871 C30.8682204,11.7274869 30.8682204,6.07671665 27.395368,2.60445781 L27.395368,2.60445781 Z" id="Shape"></path>
                </g>
            </g>
        </g>
    </g>
</svg>