<?xml version="1.0" encoding="UTF-8" standalone="no"?>
<svg width="41px" height="33px" viewBox="0 0 41 33" version="1.1" xmlns="http://www.w3.org/2000/svg" xmlns:xlink="http://www.w3.org/1999/xlink">
    <!-- Generator: Sketch 47.1 (45422) - http://www.bohemiancoding.com/sketch -->
    <title>icon</title>
    <desc>Created with Sketch.</desc>
    <defs></defs>
    <g id="BAP-(Desktop)" stroke="none" stroke-width="1" fill="none" fill-rule="evenodd">
        <g id="NEWChoose-a-Metric-#2" transform="translate(-512.000000, -278.000000)">
            <g id="Group-24" transform="translate(467.000000, 263.000000)">
                <g id="Group-16" transform="translate(9.000000, 15.000000)">
                    <g id="icon" transform="translate(36.000000, 0.000000)">
                        <rect id="Rectangle-11" fill="#FFCA28" x="28" y="27" width="10" height="6"></rect>
                        <rect id="Rectangle-11" fill="#EF7C15" x="28" y="31" width="10" height="2"></rect>
                        <rect id="Rectangle-11" fill="#FFFFFF" x="28" y="29" width="10" height="2"></rect>
                        <path d="M40.4713749,3.10897747 L40.4713749,3.35796807 L40.0567949,3.73336642 L39.7405423,4.01948638 L39.3792307,4.00745199 L39.1051451,4.15699562 L39.1794038,4.45617616 L39.1794038,4.66794412 L38.5429805,4.98018524 L38.4315924,5.41687501 L38.4315924,6.24006463 L38.9305065,6.83833243 L38.8682822,7.08825593 L38.3441798,7.30011717 L38.3441798,7.63633378 L37.9677553,7.8401721 L37.7197909,7.97366987 L37.3082894,7.97366987 L36.6598316,8.63518818 L36.759092,8.73463516 L36.8715996,9.48244658 L36.4479704,10.456206 L36.2863924,10.431111 L36.2491697,10.1560926 L35.846624,10.1339829 L36.1236949,10.617784 L36.4479704,11.0042839 L36.3104612,11.5784829 L36.0855393,11.9459516 L35.8657484,11.9459516 L35.8987731,11.5282929 L35.7080886,11.2281795 L35.4289654,11.0816212 L35.3999522,10.7051966 L35.4872715,10.2313775 L35.3506952,10.1439649 L35.0385474,10.4682404 L35.1509616,10.7051966 L35.1760566,11.2292057 L35.3757902,11.3285594 L35.5875581,11.7281198 L35.6338299,11.9459516 L35.6619101,12.0774903 L35.5745908,12.3645431 L35.8987731,12.3896381 L36.1487898,12.5000933 L36.0865655,12.8132673 L36.2984268,12.9507765 L36.2863924,13.0752252 L36.0735049,13.2750521 L36.4479704,13.5621049 L36.4479704,13.9366637 L36.343579,13.9998209 L36.1608242,14.1113023 L36.3354628,14.4225172 L36.2110142,14.734665 L35.2253136,14.8963363 L35.2253136,15.2827429 L34.9391004,15.8318469 L34.4774089,15.9322268 L34.4060422,16.052664 L34.1400728,16.5054929 L34.1531334,16.7553231 L33.5547723,17.3908136 L33.3048488,17.3908136 L33.1051153,17.8275966 L32.780933,18.0022352 L32.7748692,18.1066266 L32.6935205,19.3995306 L32.9303834,19.7117717 L33.0307633,20.1474353 L33.0439171,20.1594697 L33.2928144,20.3722638 L33.2928144,20.7095999 L33.8911755,21.2205484 L33.9533999,21.7947474 L34.1772022,22.213339 L34.6149182,23.0294385 L34.6149182,24.2662753 L33.6913487,24.2662753 C33.6913487,24.2662753 33.6926547,24.2554537 33.6913487,24.2521886 C33.6561784,24.1611377 33.4293908,23.9630833 33.4293908,23.9630833 L33.0809532,23.9901374 L33.0809532,23.565482 L32.8431574,23.565482 L32.7437104,23.403904 L32.7437104,23.1670411 L32.5439768,23.1539805 L32.1454426,22.6921957 L32.1956325,22.4301446 L31.995899,22.4553328 L31.8954258,22.2685665 L31.9084864,22.213339 L31.995899,21.8318768 L31.9326485,21.183419 L31.7207872,21.109067 L31.0853901,20.4104194 L30.5483204,20.3722638 L29.91283,20.7467293 L29.6629065,20.8090469 L29.2764066,20.2357808 L28.2453672,20.1594697 L28.0919054,20.1483682 L28.0757663,20.1594697 L27.7545693,20.3973588 L27.5799307,20.1976252 L27.3590204,20.3933473 L26.4324656,20.3973588 L26.4324656,20.7969192 L26.257827,21.0338754 L26.7316462,21.5206618 L26.469595,21.6823331 L25.8331716,21.3831526 L25.4959288,21.7837392 L24.9226627,21.7816868 L24.7610847,21.2205484 L24.0995664,21.0338754 L24.0995664,21.3209283 L23.9629901,21.4082476 L23.0515482,21.1712914 L22.6650484,21.1712914 L21.430264,21.7194625 L21.430264,21.969386 L21.0689524,22.213339 L20.9313499,22.3056959 L20.3822458,22.4182035 L20.1825123,22.7172907 L19.9084267,22.7423857 L19.7588831,23.0917562 L19.5721168,23.1418528 L19.5841512,23.8656887 C19.5500071,23.9850997 19.5540186,24.1277399 19.5751021,24.2662753 C19.6223067,24.577397 19.7588831,24.8755513 19.7588831,24.8755513 L19.5962789,25 L18.9236591,24.8003597 C18.4899545,24.7159324 18.222959,24.4841071 18.0623139,24.2662753 C17.8887015,24.0323044 17.8374854,23.8154988 17.8374854,23.8154988 C17.7883216,23.478256 17.7129434,23.3537141 17.7129434,23.3537141 C17.3014419,23.1168511 16.9892008,22.2434716 16.9892008,22.2434716 C16.9851893,22.2323701 16.9811778,22.2234143 16.9762335,22.213339 C16.6779858,21.4976192 16.2534237,21.1462897 16.2534237,21.1462897 L15.8418289,21.1462897 L15.717287,21.0086872 L15.0186393,20.9836855 L15.0186393,21.4704719 L14.5819495,21.8067818 C13.9334918,21.6451105 13.4746923,20.8390862 13.4746923,20.8390862 L13.496802,20.3973588 L13.3000537,20.1594697 L12.0753446,18.6757879 L10.752308,18.5764342 L10.6408266,19.0883156 L8.28283243,18.8012628 L5.57640065,17.1669179 L5.57640065,16.7303214 L3.68009792,16.7303214 L3.61889978,16.052664 L3.59277862,15.7575882 L3.26850311,15.6330462 L3.26850311,15.2585808 L2.96941586,15.2585808 L2.92323738,14.9886 L2.67023531,14.921338 L2.19538999,14.3351046 L1.57202723,14.2608459 L1.36025927,14.086114 L1.38927241,13.9998209 L1.3902986,13.998888 L1.48461464,13.7237762 L1.41035592,13.5871999 L1.3471054,13.4245957 L1.43451799,13.1997671 L1.32910046,12.9387422 L1.2718205,12.7981544 L1.03598376,12.2149062 L0.923476204,12.1145263 L0.923476204,11.965076 L1.09820809,11.7783097 L1.09820809,11.5915435 L0.811061937,11.2543007 L0.836156906,10.5184303 L0.574199013,10.2313775 L0.599293982,9.83181706 L0.307110179,9.39008963 L0.3372428,8.79881858 L0.424655387,8.42239404 L0,7.9485749 L0.237889112,7.62429939 L0.673552701,6.91361733 L0.624388951,6.56424685 L0.748837608,6.33941832 L0.799027547,5.44196998 L1.59712219,3.99439141 L1.59712219,3.6701159 L1.73061997,3.47541999 L1.84601951,3.30880432 L2.0960363,2.51070967 L2.0960363,2.28578785 L2.32086483,2.02382996 L2.1833556,1.77390646 L2.19940145,1.3673493 L2.40725123,1.16453717 L2.20845057,1.13645693 L2.22048496,0.838302573 L2.0960363,0.776078244 L2.0960363,0.57625139 L2.22048496,0.240034778 L2.39521684,0.240034778 L2.50763111,0.539122031 L2.91913263,0.701726235 L3.3559157,0.776078244 L3.3559157,1.07619168 L3.16914942,1.33824287 L2.91913263,1.42453598 L2.96941586,1.82409639 L3.33072744,1.82409639 L3.58074423,1.52491585 L3.58074423,1.17554537 L3.68009792,1.05109672 L3.48036435,0.789045533 L3.62393743,0.539122031 L3.68009792,0.402638983 L3.56768365,0.290131427 L3.68009792,0 L5.22600399,0.476897702 L7.1353673,0.987846199 L7.78886268,1.13244546 L7.87114433,1.1504504 L8.86001672,1.31006933 L11.1266802,1.67445948 L11.1979536,1.68350859 L11.993063,1.77885082 L16.0325134,2.26778291 L16.4039936,2.28485495 L16.6779858,2.29688934 L19.5459956,2.42236419 L19.9887492,2.39223157 L21.1923749,2.31088282 L21.1923749,1.9867006 L21.5296177,2.18550127 L21.5296177,2.59700278 L22.2282653,2.84692629 L22.4280922,2.62209775 L22.9510751,2.79682964 L23.1017382,3.04675314 L23.6125934,3.22148503 L24.0121538,3.09591689 L24.8845072,3.23351942 L25.0973013,2.89720951 L25.3583263,2.87211455 L25.7076968,2.4976491 L25.6835347,2.36013986 L25.7829817,2.17337358 L26.73062,2.21059623 L26.9052586,2.3230105 L27.2676896,3.00859759 L27.6290945,3.02165817 L27.7033532,2.82183132 L28.0155943,3.00859759 L28.0406893,3.33389929 L28.2404229,3.47038234 L28.249472,3.73336642 L28.2525505,3.83272011 L28.4643185,3.84484779 L28.4643185,4.10680568 L28.7011814,4.28144428 L28.8015613,4.50533991 L29.6498459,4.45617616 L30.9267973,4.430055 L31.4336411,4.9299953 L31.8322686,5.52826309 L31.6816055,5.78630281 L31.1275571,5.78630281 L30.8474077,5.46603876 L30.7600884,5.5162287 L30.7951653,5.78630281 L30.8223127,5.99004784 L30.5603548,6.46386698 L30.7349934,7.18760962 L30.3355263,7.51188513 L30.2983036,8.14840176 L29.8867088,8.28488481 L29.8867088,8.49767895 L30.3484936,8.52277392 L30.9407908,7.8401721 L31.0089857,7.76190192 L31.6204073,7.79903128 L32.157477,7.37540208 L32.5309163,7.38743647 L32.6302699,7.18760962 L32.5439768,7.01297102 L32.1444164,7.06316096 L32.0821921,6.7761081 L32.4807263,6.38960826 L33.154279,6.02820339 L33.6793143,6.05227217 L33.6040294,5.81540924 L33.6732504,5.78630281 L34.4392534,5.46603876 L34.6269526,5.07953892 L35.1509616,4.61775418 L37.1466181,4.15503653 L37.2710667,3.81975282 L37.5792964,3.73336642 L37.5822816,3.73243352 L37.6575666,3.58279661 L37.6696942,3.34593368 L37.845359,3.28370935 L37.8322984,3.02165817 L37.6827548,2.70941705 L37.8885522,1.68052332 L39.2627117,1.68052332 L39.5910919,2.70941705 L39.8901792,2.72247763 L39.9253495,3.04376787 L40.4713749,3.10897747" id="Fill-35" fill="#EF7C15"></path>
                    </g>
                </g>
            </g>
        </g>
    </g>
</svg>