<?xml version="1.0" encoding="UTF-8" standalone="no"?>
<svg width="35px" height="35px" viewBox="0 0 35 35" version="1.1" xmlns="http://www.w3.org/2000/svg" xmlns:xlink="http://www.w3.org/1999/xlink">
    <!-- Generator: Sketch 47.1 (45422) - http://www.bohemiancoding.com/sketch -->
    <title>numbers</title>
    <desc>Created with Sketch.</desc>
    <defs></defs>
    <g id="BAP-(Desktop)" stroke="none" stroke-width="1" fill="none" fill-rule="evenodd">
        <g id="Metric-Icons" transform="translate(-210.000000, -143.000000)">
            <g id="numbers" transform="translate(210.000000, 143.000000)">
                <path d="M8.77161363,18.0147059 L5.14756147,18.0147059 L5.14756147,8.09254366 L5.18274644,6.4623066 L5.24138806,4.67960133 C4.63933108,5.28165832 4.22102503,5.67650795 3.98645738,5.86416207 L2.01609892,7.44748583 L0.268578623,5.26601754 L5.79261929,0.867895987 L8.77161363,0.867895987 L8.77161363,18.0147059 Z" id="1" fill="#EF7C15"></path>
                <path d="M22.3665939,25.0597714 L10.3802466,25.0597714 L10.3802466,22.5381817 L14.6845416,18.1869734 C15.9590259,16.8812135 16.7917285,15.9761868 17.1826746,15.4718664 C17.5736207,14.9675459 17.8550977,14.5003724 18.027114,14.0703316 C18.1991303,13.6402909 18.2851371,13.1946191 18.2851371,12.7333027 C18.2851371,12.0452376 18.0955311,11.5331059 17.7163134,11.1968922 C17.3370957,10.8606786 16.8308281,10.6925743 16.1974954,10.6925743 C15.532887,10.6925743 14.8878357,10.845041 14.2623219,11.1499789 C13.6368082,11.4549169 12.983938,11.8888605 12.3036918,12.4518229 L10.3333333,10.1178864 C11.1777769,9.3985456 11.8775599,8.8903233 12.4327034,8.59320427 C12.9878468,8.29608524 13.5938042,8.06738521 14.2505936,7.90709731 C14.907383,7.74680941 15.6423507,7.66666667 16.4555185,7.66666667 C17.5267108,7.66666667 18.4727862,7.86213678 19.293773,8.25308287 C20.1147598,8.64402897 20.7519923,9.19134529 21.2054898,9.89504825 C21.6589873,10.5987512 21.8857326,11.4040881 21.8857326,12.311083 C21.8857326,13.1007941 21.7469488,13.8416259 21.4693771,14.5336005 C21.1918054,15.225575 20.7617711,15.9351316 20.1792615,16.6622913 C19.5967518,17.389451 18.5705337,18.4254426 17.1005764,19.7702972 L14.8956514,21.8462106 L14.8956514,22.0104071 L22.3665939,22.0104071 L22.3665939,25.0597714 Z" id="2" fill="#FFCA28"></path>
                <path d="M33.5314128,20.9147901 C33.5314128,21.9859824 33.2069324,22.8968732 32.5579619,23.6474897 C31.9089913,24.3981062 30.9981006,24.9141473 29.8252623,25.1956284 L29.8252623,25.2659984 C31.2092115,25.4380147 32.2569313,25.8582754 32.9684532,26.5267932 C33.6799751,27.1953111 34.0357307,28.0964283 34.0357307,29.230172 C34.0357307,30.8799645 33.4375921,32.1642031 32.2412971,33.0829264 C31.0450021,34.0016498 29.3365933,34.4610045 27.1160195,34.4610045 C25.2551161,34.4610045 23.6053483,34.1521617 22.1666667,33.5344669 L22.1666667,30.4499177 C22.831275,30.7861313 23.5623333,31.0597895 24.3598633,31.2709004 C25.1573933,31.4820112 25.9470926,31.5875651 26.7289848,31.5875651 C27.9252798,31.5875651 28.8088047,31.3842762 29.379586,30.9776922 C29.9503673,30.5711083 30.2357537,29.9182381 30.2357537,29.0190621 C30.2357537,28.2137132 29.9073639,27.6429404 29.2505744,27.3067268 C28.593785,26.9705132 27.5460652,26.8024089 26.1073836,26.8024089 L24.8055396,26.8024089 L24.8055396,24.022796 L26.1308402,24.022796 C27.4600569,24.022796 28.4315434,23.8488276 29.0453288,23.5008856 C29.6591141,23.1529436 29.9660022,22.5567597 29.9660022,21.7123162 C29.9660022,20.4143751 29.1528465,19.7654144 27.5265108,19.7654144 C26.9635484,19.7654144 26.390821,19.85924 25.8083113,20.0468941 C25.2258016,20.2345483 24.5787956,20.5590287 23.8672737,21.0203451 L22.1901233,18.522212 C23.7539077,17.3962873 25.6186926,16.8333333 27.7845339,16.8333333 C29.5594292,16.8333333 30.9609499,17.1929983 31.9891381,17.9123392 C33.0173264,18.63168 33.5314128,19.632487 33.5314128,20.9147901 Z" id="3" fill="#D8D8D8"></path>
            </g>
        </g>
    </g>
</svg>