<?xml version="1.0" encoding="UTF-8" standalone="no"?>
<svg width="31px" height="36px" viewBox="0 0 31 36" version="1.1" xmlns="http://www.w3.org/2000/svg" xmlns:xlink="http://www.w3.org/1999/xlink">
    <!-- Generator: Sketch 47.1 (45422) - http://www.bohemiancoding.com/sketch -->
    <title>icon</title>
    <desc>Created with Sketch.</desc>
    <defs></defs>
    <g id="BAP-(Desktop)" stroke="none" stroke-width="1" fill="none" fill-rule="evenodd">
        <g id="NEWChoose-a-Metric-#2" transform="translate(-95.000000, -390.000000)" fill="#EF7C15">
            <g id="Group-26" transform="translate(45.000000, 376.000000)">
                <g id="Group-17" transform="translate(9.000000, 14.000000)">
                    <g id="icon" transform="translate(41.000000, 0.000000)">
                        <path d="M23.2534221,14.5792398 L21.9086788,21.387459 L28.5101458,21.387459 L28.5101458,25.4148563 L21.1018328,25.4148563 L19.1458426,35.4354042 L14.7937644,35.4354042 L16.7497546,25.4148563 L10.6861849,25.4148563 L8.73019469,35.4354042 L4.47591596,35.4354042 L6.33410667,25.4148563 L0.221637228,25.4148563 L0.221637228,21.387459 L7.14095263,21.387459 L8.53459566,14.5792398 L2.07982794,14.5792398 L2.07982794,10.5518426 L9.24364212,10.5518426 L11.1996323,0.435404204 L15.6006103,0.435404204 L13.6446201,10.5518426 L19.8059893,10.5518426 L21.7619795,0.435404204 L26.0162583,0.435404204 L24.060268,10.5518426 L30.2216372,10.5518426 L30.2216372,14.5792398 L23.2534221,14.5792398 Z M11.4441311,21.387459 L17.5566006,21.387459 L18.9502436,14.5792398 L12.8377741,14.5792398 L11.4441311,21.387459 Z" id="#"></path>
                    </g>
                </g>
            </g>
        </g>
    </g>
</svg>