<?xml version="1.0" encoding="UTF-8"?>
<svg width="34px" height="35px" viewBox="0 0 34 35" version="1.1" xmlns="http://www.w3.org/2000/svg" xmlns:xlink="http://www.w3.org/1999/xlink">
    <!-- Generator: Sketch 47.1 (45422) - http://www.bohemiancoding.com/sketch -->
    <title>referral icon</title>
    <desc>Created with Sketch.</desc>
    <defs></defs>
    <g id="Blocklight-Website-Prototype" stroke="none" stroke-width="1" fill="none" fill-rule="evenodd">
        <g id="Referral-Program-Tab" transform="translate(-17.000000, -17.000000)" fill-rule="nonzero">
            <g id="Group" transform="translate(2.000000, 2.000000)">
                <g id="referral-icon" transform="translate(15.000000, 15.000000)">
                    <path d="M1,25 L1,21.20725 C1,16.13075 4.80020597,12 9.47236526,12 L12.5276347,12 C17.199794,12 21,16.13075 21,21.20725 L21,25 L1,25 Z" id="Shape" fill="#F06B12"></path>
                    <path d="M11.9990365,12.3636364 C16.2078047,12.3636364 19.6476634,16.4034091 19.6476634,21.3397727 L19.6476634,24.6363636 L1.34896419,24.6363636 L1.34896419,21.3397727 C1.34896419,16.4034091 4.79219528,12.3636364 8.99759114,12.3636364 L11.9990365,12.3636364 L11.9990365,12.3636364 Z M11.9990365,11 L8.99759114,11 C4.04689256,11 0,15.6397727 0,21.3397727 L0,26 L21,26 L21,21.3397727 C21,15.6363636 16.9531074,11 12.0024089,11 L11.9990365,11 Z" id="Shape" fill="#FFFFFF"></path>
                    <path d="M10,16 C6.10791281,15.9657561 2.97652864,12.6106381 3.00013257,8.5 C2.97652864,4.38936192 6.10791281,1.03424391 10,1 C13.8920872,1.03424391 17.0234714,4.38936192 16.9998674,8.5 C17.0234714,12.6106381 13.8920872,15.9657561 10,16 Z" id="Shape" fill="#F06B12"></path>
                    <path d="M11,1.35078092 C14.691254,1.3805038 17.6596637,4.35697798 17.6312038,8 C17.6312038,11.6144461 14.6623127,14.5445336 11,14.5445336 C7.33768726,14.5445336 4.36879619,11.6144461 4.36879619,8 C4.34033625,4.35697798 7.30874603,1.3805038 11,1.35078092 L11,1.35078092 Z M11,0 C6.55444592,0.0334538943 2.97546693,3.61248956 3.00012667,8 C2.97546693,12.3875104 6.55444592,15.9665461 11,16 C15.4455541,15.9665461 19.0245331,12.3875104 18.9998733,8 C19.0245331,3.61248956 15.4455541,0.0334538943 11,1.63313854e-15 L11,0 Z" id="Shape" fill="#FFFFFF"></path>
                    <path d="M11,32 L11,27.3906383 C11,21.106383 15.3639139,16 20.7243385,16 L24.2790055,16 C29.6293981,16 34,21.106383 34,27.3804255 L34,32 L11,32 Z" id="Shape" fill="#F06B12"></path>
                    <path d="M23.7562172,17.3333333 C28.6670317,17.3333333 32.6840714,22.06 32.6840714,27.82 L32.6840714,31.6666667 L11.3192249,31.6666667 L11.3192249,27.82 C11.3192249,22.06 15.3395626,17.3333333 20.2503771,17.3333333 L23.7562172,17.3333333 L23.7562172,17.3333333 Z M23.7562172,16 L20.2503771,16 C14.6007967,16 10,21.31 10,27.82 L10,33 L33.9999982,33 L33.9999982,27.82 C34.0032963,21.31 29.4057977,16 23.7562172,16 Z" id="Shape" fill="#FFFFFF"></path>
                    <path d="M22.6233712,19.9990992 C19.1747383,20.0491438 16.0377501,18.010249 14.6831945,14.8383579 C13.3286389,11.6664667 14.025088,7.99048031 16.4460092,5.53389762 C18.8669304,3.07731493 22.5323198,2.3272106 25.7236469,3.63527365 C28.914974,4.9433367 30.9994839,8.05021322 30.999847,11.4992334 C31.0275825,16.1569557 27.2809688,19.958759 22.6233712,19.9990992 Z" id="Shape" fill="#F06B12"></path>
                    <path d="M22.6278736,3.38266223 C27.0756861,3.41876861 30.6525438,7.0528651 30.6180648,11.5007168 C30.7036628,14.4113791 29.1997393,17.1383346 26.6923461,18.6189384 C24.184953,20.0995421 21.0707943,20.0995421 18.5634011,18.6189384 C16.0560079,17.1383346 14.5520845,14.4113791 14.6376824,11.5007168 C14.6032034,7.0528651 18.1800611,3.41876861 22.6278736,3.38266223 L22.6278736,3.38266223 Z M22.6278736,2.00086572 C18.7743576,1.94901343 15.2713529,4.23041246 13.7606083,7.77584239 C12.2498638,11.3212723 13.030773,15.4281132 15.7373482,18.171617 C18.4439235,20.9151209 22.5397859,21.7515904 26.1053328,20.2889986 C29.6708797,18.8264067 31.9995043,15.3546043 31.9998532,11.5007168 C32.028588,6.29205729 27.8364137,2.0426849 22.6278736,2.00086572 L22.6278736,2.00086572 Z" id="Shape" fill="#FFFFFF"></path>
                    <path d="M11.3479257,31.9264529 C10.4000315,31.3783253 9.54800718,30.6732782 8.82667345,29.8401254 C7.88095961,28.7424251 7.24009741,27.4066939 6.97047595,25.9713046 L3,25.9713046 L9.29320438,19 L16,25.9713046 L11.7615169,25.9713046 C11.6545773,26.4018672 11.5859187,26.8413941 11.5563757,27.284543 C11.4723167,28.588415 11.7208273,29.8922624 12.2776788,31.0689655 L13.1908883,33 L11.3479257,31.9264529 Z" id="Shape" fill="#FFCB14"></path>
                    <path d="M9.78289474,20.0034483 L14.8717105,25.4344828 L11.7269737,25.4344828 C11.5285349,26.0784881 11.4059156,26.7455008 11.3618421,27.4206897 C11.2770773,28.8640517 11.5454282,30.3061885 12.1414474,31.6103448 C11.2628453,31.0877691 10.4726066,30.4166699 9.80263158,29.6241379 C8.81248605,28.4530611 8.19203771,26.9896588 8.02631579,25.4344828 L5.00328947,25.4344828 L9.78289474,20.0034483 L9.78289474,20.0034483 Z M9.75328947,18.0034483 L8.81578947,19.0689655 L4.03618421,24.5 L2,26.8137931 L6.93421053,26.8137931 C7.27357449,28.1894206 7.91574268,29.4625375 8.80921053,30.5310345 C9.57448471,31.4385019 10.4782298,32.2064226 11.4835526,32.8034483 L15.1217105,35 L13.3157895,31.0206897 C12.8118638,29.9294585 12.5852518,28.7203192 12.6578947,27.5103448 C12.672847,27.2791864 12.699198,27.0489936 12.7368421,26.8206897 L18,26.8206897 L15.8026316,24.4758621 L10.7236842,19.0344828 L9.75657895,18 L9.75328947,18.0034483 Z" id="Shape" fill="#FFFFFF"></path>
                </g>
            </g>
        </g>
    </g>
</svg>