<?xml version="1.0" encoding="UTF-8" standalone="no"?>
<svg width="35px" height="33px" viewBox="0 0 35 33" version="1.1" xmlns="http://www.w3.org/2000/svg" xmlns:xlink="http://www.w3.org/1999/xlink">
    <!-- Generator: Sketch 47.1 (45422) - http://www.bohemiancoding.com/sketch -->
    <title>sankeydiagram</title>
    <desc>Created with Sketch.</desc>
    <defs></defs>
    <g id="BAP-(Desktop)" stroke="none" stroke-width="1" fill="none" fill-rule="evenodd">
        <g id="Metric-Icons" transform="translate(-564.000000, -86.000000)" fill="#EF7C15">
            <g id="sankeydiagram" transform="translate(564.000000, 84.000000)">
                <path d="M0,11.0277778 L3.3097975,11.0277778 L3.3097975,11.0277778 C6.82458766,11.0277778 10.2277685,9.79351159 12.9253964,7.54039076 L15.3834271,5.48738702 L15.3834271,5.48738702 C18.0810551,3.23426618 21.4842359,2 24.999026,2 L35,2 L35,4.40740741 L26.1381275,4.40740741 L26.1381275,4.40740741 C22.8709181,4.40740741 19.6930481,5.47415192 17.0875752,7.44548857 L12.3529412,11.0277778 L13.9899508,10.464785 L13.9899508,10.464785 C18.6992762,8.8451758 23.6447846,8.01851852 28.6248327,8.01851852 L35,8.01851852 L35,15.2407407 L28.6248327,15.2407407 L28.6248327,15.2407407 C23.6447846,15.2407407 18.6992762,16.067398 13.9899508,17.6870073 L12.3529412,18.25 L17.5367524,20.7297019 L17.5367524,20.7297019 C21.5785438,22.663113 26.0020709,23.6666667 30.4824901,23.6666667 L35,23.6666667 L35,26.6759259 L30.4824901,26.6759259 L30.4824901,26.6759259 C26.0020709,26.6759259 21.5785438,25.6723722 17.5367524,23.7389612 L12.3529412,21.2592593 L19.5732858,27.0157389 L19.5732858,27.0157389 C22.2298057,29.1336714 25.5266304,30.287037 28.9240907,30.287037 L35,30.287037 L35,34.5 L28.0602673,34.5 L28.0602673,34.5 C24.5618795,34.5 21.1735203,33.277207 18.4813576,31.0431576 L10.8568777,24.7161016 L10.8568777,24.7161016 C8.16471496,22.4820522 4.77635576,21.2592593 1.27796797,21.2592593 L0,21.2592593 L0,11.0277778 Z" id="Path-9"></path>
            </g>
        </g>
    </g>
</svg>