<?xml version="1.0" encoding="UTF-8" standalone="no"?>
<svg width="35px" height="35px" viewBox="0 0 35 35" version="1.1" xmlns="http://www.w3.org/2000/svg" xmlns:xlink="http://www.w3.org/1999/xlink">
    <!-- Generator: Sketch 47.1 (45422) - http://www.bohemiancoding.com/sketch -->
    <title>streamgraph</title>
    <desc>Created with Sketch.</desc>
    <defs></defs>
    <g id="BAP-(Desktop)" stroke="none" stroke-width="1" fill="none" fill-rule="evenodd">
        <g id="Metric-Icons" transform="translate(-683.000000, -85.000000)">
            <g id="streamgraph" transform="translate(683.000000, 85.000000)">
                <polygon id="Path-4" fill="#D8D8D8" points="0 11.5 5.5 10 10 4 19 5 28 0 35 8.5 35 28.5 25.5 35 17.5 28.5 8 31 5.5 26.5 0 24.5"></polygon>
                <polygon id="Path-5" fill="#FFCA28" points="0 13.3333333 7 14.3125 12.5 8.4375 23 9.90625 27.5 5.5 35 10.3958333 35 25.0833333 23 29 18 24.1041667 10 26.5520833 4.5 21.65625 0 22.6354167"></polygon>
                <polygon id="Path-11" fill="#EF7C15" points="0 17.7619048 4.63235294 16.1904762 9.77941176 18.2857143 17.5 12 26.7647059 16.1904762 35 13.5714286 35 20.3809524 30.8823529 18.8095238 23.6764706 23 16.4705882 19.3333333 9 22 4.11764706 18.8095238 0 19.8571429"></polygon>
            </g>
        </g>
    </g>
</svg>