<?xml version="1.0" encoding="UTF-8" standalone="no"?>
<svg width="35px" height="35px" viewBox="0 0 35 35" version="1.1" xmlns="http://www.w3.org/2000/svg" xmlns:xlink="http://www.w3.org/1999/xlink">
    <!-- Generator: Sketch 47.1 (45422) - http://www.bohemiancoding.com/sketch -->
    <title>tilemap</title>
    <desc>Created with Sketch.</desc>
    <defs></defs>
    <g id="BAP-(Desktop)" stroke="none" stroke-width="1" fill="none" fill-rule="evenodd">
        <g id="Metric-Icons" transform="translate(-742.000000, -84.000000)" stroke="#FFFFFF">
            <g id="tilemap" transform="translate(742.000000, 84.000000)">
                <g id="Group-4" transform="translate(0.500000, 0.000000)">
                    <polygon id="Polygon" fill="#FFCA28" points="14.9390333 8.0963666 19.0133151 8.0963666 21.2863707 11.8119476 19.0133151 15.602734 14.9390333 15.602734 12.6755434 11.8119476"></polygon>
                    <polygon id="Polygon" fill="#EF7C15" points="21.276805 11.8495503 25.3510868 11.8495503 27.6241424 15.5651312 25.3510868 19.3559176 21.276805 19.3559176 19.0133151 15.5651312"></polygon>
                    <polygon id="Polygon" fill="#EF7C15" points="21.276805 4.34318292 25.3510868 4.34318292 27.6241424 8.05876389 25.3510868 11.8495503 21.276805 11.8495503 19.0133151 8.05876389"></polygon>
                    <polygon id="Polygon" fill="#EF7C15" points="27.6145767 15.602734 31.6888585 15.602734 33.9619141 19.3183149 31.6888585 23.1091013 27.6145767 23.1091013 25.3510868 19.3183149"></polygon>
                    <polygon id="Polygon" fill="#D8D8D8" points="8.6012616 11.8495503 12.6755434 11.8495503 14.948599 15.5651312 12.6755434 19.3559176 8.6012616 19.3559176 6.3377717 15.5651312"></polygon>
                    <polygon id="Polygon" fill="#FFCA28" points="2.26348989 8.0963666 6.3377717 8.0963666 8.61082725 11.8119476 6.3377717 15.602734 2.26348989 15.602734 -6.82121026e-13 11.8119476"></polygon>
                    <polygon id="Polygon" fill="#EF7C15" points="14.9390333 15.602734 19.0133151 15.602734 21.2863707 19.3183149 19.0133151 23.1091013 14.9390333 23.1091013 12.6755434 19.3183149"></polygon>
                    <polygon id="Polygon" fill="#FFCA28" points="21.276805 19.3559176 25.3510868 19.3559176 27.6241424 23.0714986 25.3510868 26.862285 21.276805 26.862285 19.0133151 23.0714986"></polygon>
                    <polygon id="Polygon" fill="#FFCA28" points="14.9390333 23.1091013 19.0133151 23.1091013 21.2863707 26.8246823 19.0133151 30.6154687 14.9390333 30.6154687 12.6755434 26.8246823"></polygon>
                    <polygon id="Polygon" fill="#D8D8D8" points="21.276805 26.862285 25.3510868 26.862285 27.6241424 30.577866 25.3510868 34.3686523 21.276805 34.3686523 19.0133151 30.577866"></polygon>
                    <polygon id="Polygon" fill="#EF7C15" points="8.6012616 4.34318292 12.6755434 4.34318292 14.948599 8.05876389 12.6755434 11.8495503 8.6012616 11.8495503 6.3377717 8.05876389"></polygon>
                    <polygon id="Polygon" fill="#EF7C15" points="14.9390333 0.589999244 19.0133151 0.589999244 21.2863707 4.30558021 19.0133151 8.0963666 14.9390333 8.0963666 12.6755434 4.30558021"></polygon>
                </g>
            </g>
        </g>
    </g>
</svg>