<?xml version="1.0" encoding="UTF-8" standalone="no"?>
<svg width="35px" height="35px" viewBox="0 0 35 35" version="1.1" xmlns="http://www.w3.org/2000/svg" xmlns:xlink="http://www.w3.org/1999/xlink">
    <!-- Generator: Sketch 47.1 (45422) - http://www.bohemiancoding.com/sketch -->
    <title>wordcloud</title>
    <desc>Created with Sketch.</desc>
    <defs></defs>
    <g id="BAP-(Desktop)" stroke="none" stroke-width="1" fill="none" fill-rule="evenodd">
        <g id="Metric-Icons" transform="translate(-151.000000, -143.000000)" fill="#EF7C15">
            <g id="wordcloud" transform="translate(151.000000, 143.000000)">
                <path d="M14.0043945,16 L12.453125,16 L11.5830078,12.625 C11.5507811,12.5048822 11.49585,12.2565937 11.4182129,11.880127 C11.3405758,11.5036602 11.2958985,11.2509772 11.2841797,11.1220703 C11.2666015,11.2802742 11.2226566,11.5344221 11.1523438,11.8845215 C11.0820309,12.2346209 11.0278322,12.4843743 10.9897461,12.6337891 L10.1240234,16 L8.57714844,16 L6.93798828,9.57519531 L8.27832031,9.57519531 L9.10009766,13.0820312 C9.24365306,13.7294954 9.34765593,14.290525 9.41210938,14.7651367 C9.42968759,14.5981437 9.46997039,14.3396014 9.53295898,13.989502 C9.59594758,13.6394025 9.65527316,13.3676767 9.7109375,13.1743164 L10.6469727,9.57519531 L11.9345703,9.57519531 L12.8706055,13.1743164 C12.9116213,13.33545 12.9628903,13.5815413 13.0244141,13.9125977 C13.0859378,14.243654 13.1328123,14.5278308 13.1650391,14.7651367 C13.1943361,14.53662 13.2412106,14.2517107 13.3056641,13.9104004 C13.3701175,13.5690901 13.4287107,13.2929698 13.4814453,13.0820312 L14.2988281,9.57519531 L15.6391602,9.57519531 L14.0043945,16 Z M22.2792969,12.7788086 C22.2792969,13.8422905 22.0156276,14.6596651 21.4882812,15.230957 C20.9609349,15.802249 20.205083,16.0878906 19.2207031,16.0878906 C18.2363232,16.0878906 17.4804714,15.802249 16.953125,15.230957 C16.4257786,14.6596651 16.1621094,13.8393608 16.1621094,12.7700195 C16.1621094,11.7006782 16.426511,10.884036 16.9553223,10.3200684 C17.4841335,9.7561007 18.2421826,9.47412109 19.2294922,9.47412109 C20.2168018,9.47412109 20.9719212,9.75829794 21.494873,10.3266602 C22.0178249,10.8950224 22.2792969,11.712397 22.2792969,12.7788086 Z M17.590332,12.7788086 C17.590332,13.4965856 17.7265611,14.0371076 17.9990234,14.4003906 C18.2714857,14.7636737 18.6787082,14.9453125 19.2207031,14.9453125 C20.3076226,14.9453125 20.8510742,14.2231518 20.8510742,12.7788086 C20.8510742,11.3315357 20.3105523,10.6079102 19.2294922,10.6079102 C18.6874973,10.6079102 18.27881,10.7902814 18.003418,11.1550293 C17.728026,11.5197772 17.590332,12.0610316 17.590332,12.7788086 Z M24.9731445,12.4272461 L25.4125977,12.4272461 C25.8432639,12.4272461 26.1611318,12.3554695 26.3662109,12.2119141 C26.5712901,12.0683587 26.6738281,11.842775 26.6738281,11.5351562 C26.6738281,11.2304672 26.5690928,11.0136725 26.3596191,10.8847656 C26.1501454,10.7558587 25.8256858,10.6914062 25.3862305,10.6914062 L24.9731445,10.6914062 L24.9731445,12.4272461 Z M24.9731445,13.534668 L24.9731445,16 L23.6108398,16 L23.6108398,9.57519531 L25.4829102,9.57519531 C26.3559614,9.57519531 27.001951,9.73412927 27.4208984,10.052002 C27.8398458,10.3698746 28.0493164,10.8525358 28.0493164,11.5 C28.0493164,11.8779316 27.9453135,12.2141099 27.7373047,12.5085449 C27.5292958,12.80298 27.2348652,13.0336906 26.8540039,13.2006836 C27.8208056,14.6450268 28.4506821,15.5781229 28.7436523,16 L27.2319336,16 L25.6982422,13.534668 L24.9731445,13.534668 Z M34.8828125,12.7260742 C34.8828125,13.7836967 34.5817901,14.5937472 33.9797363,15.15625 C33.3776825,15.7187528 32.5083065,16 31.371582,16 L29.5522461,16 L29.5522461,9.57519531 L31.5693359,9.57519531 C32.6181693,9.57519531 33.4326143,9.85204801 34.0126953,10.4057617 C34.5927763,10.9594754 34.8828125,11.7329052 34.8828125,12.7260742 Z M33.4677734,12.7612305 C33.4677734,11.3813408 32.8584045,10.6914062 31.6396484,10.6914062 L30.9145508,10.6914062 L30.9145508,14.875 L31.4990234,14.875 C32.81153,14.875 33.4677734,14.1704172 33.4677734,12.7612305 Z" id="WORD"></path>
                <path d="M9.02254794,6.01221202 L7.6868206,6.01221202 L6.93760243,3.10615368 C6.90985347,3.00272574 6.86255482,2.78893582 6.79570505,2.46477752 C6.72885529,2.14061922 6.69038571,1.92304541 6.68029518,1.81204957 C6.66515939,1.94827174 6.62732046,2.16710684 6.56677728,2.46856145 C6.50623409,2.77001606 6.45956609,2.98506727 6.42677186,3.11372154 L5.68133763,6.01221202 L4.34939422,6.01221202 L2.93798828,0.480106167 L4.09208697,0.480106167 L4.79968191,3.49968241 C4.92329091,4.05718424 5.01284303,4.54026116 5.06834095,4.94892765 C5.08347674,4.80513759 5.11816242,4.58251859 5.17239903,4.28106399 C5.22663563,3.97960938 5.27771817,3.7456387 5.3256482,3.57914495 L6.13162531,0.480106167 L7.24031684,0.480106167 L8.04629396,3.57914495 C8.08161082,3.71788975 8.12575623,3.92978771 8.17873152,4.21484521 C8.2317068,4.4999027 8.27206832,4.74459441 8.29981728,4.94892765 C8.32504361,4.7521623 8.36540513,4.50683995 8.42090304,4.21295324 C8.47640096,3.91906653 8.52685286,3.68131197 8.57226025,3.49968241 L9.27607125,0.480106167 L10.4301699,0.480106167 L9.02254794,6.01221202 Z M16.1476884,3.23859123 C16.1476884,4.15430691 15.9206548,4.85811087 15.466581,5.35002425 C15.0125071,5.84193763 14.3616776,6.08789063 13.514073,6.08789063 C12.6664684,6.08789063 12.0156389,5.84193763 11.5615651,5.35002425 C11.1074912,4.85811087 10.8804576,4.15178431 10.8804576,3.23102337 C10.8804576,2.31026244 11.1081218,1.60708912 11.563457,1.12148232 C12.0187922,0.63587553 12.6715136,0.393075774 13.5216409,0.393075774 C14.3717681,0.393075774 15.0219669,0.637767476 15.4722568,1.12715822 C15.9225468,1.61654896 16.1476884,2.32035293 16.1476884,3.23859123 Z M12.1102349,3.23859123 C12.1102349,3.85663625 12.2275356,4.322055 12.4621404,4.63486145 C12.6967453,4.94766791 13.047386,5.10406879 13.514073,5.10406879 C14.4499697,5.10406879 14.9179111,4.48224916 14.9179111,3.23859123 C14.9179111,1.99241068 14.4524923,1.36932975 13.5216409,1.36932975 C13.0549538,1.36932975 12.7030518,1.52636128 12.4659244,1.84042905 C12.2287969,2.15449682 12.1102349,2.62054622 12.1102349,3.23859123 Z M18.4672375,2.93587682 L18.8456306,2.93587682 C19.2164576,2.93587682 19.4901591,2.87407325 19.6667434,2.75046425 C19.8433277,2.62685524 19.9316185,2.43261544 19.9316185,2.16773901 C19.9316185,1.90538521 19.8414357,1.71871319 19.6610675,1.60771735 C19.4806993,1.49672151 19.2013219,1.44122442 18.822927,1.44122442 L18.4672375,1.44122442 L18.4672375,2.93587682 Z M18.4672375,3.88942722 L18.4672375,6.01221202 L17.2942192,6.01221202 L17.2942192,0.480106167 L18.9061734,0.480106167 C19.657918,0.480106167 20.2141502,0.616956939 20.5748866,0.890662587 C20.9356231,1.16436823 21.1159886,1.57996574 21.1159886,2.13746757 C21.1159886,2.46288718 21.0264365,2.75235494 20.8473296,3.00587953 C20.6682227,3.25940412 20.4147019,3.45805846 20.0867596,3.60184853 C20.9192284,4.84550645 21.4615863,5.64895291 21.7138496,6.01221202 L20.4121776,6.01221202 L19.091586,3.88942722 L18.4672375,3.88942722 Z M27,3.19318407 C27,4.10385448 26.7408034,4.80135196 26.2224024,5.28569744 C25.7040013,5.77004292 24.9554213,6.01221202 23.9766398,6.01221202 L22.4100927,6.01221202 L22.4100927,0.480106167 L24.1469167,0.480106167 C25.0500192,0.480106167 25.7513006,0.718491382 26.2507818,1.19526896 C26.7502631,1.67204654 27,2.33801159 27,3.19318407 Z M25.7815745,3.22345551 C25.7815745,2.03529551 25.2568748,1.44122442 24.2074596,1.44122442 L23.5831111,1.44122442 L23.5831111,5.04352591 L24.0863738,5.04352591 C25.2165132,5.04352591 25.7815745,4.43684184 25.7815745,3.22345551 Z" id="WORD"></path>
                <path d="M18.5631389,27.1376003 L17.3418777,27.1376003 L16.6568643,24.4805787 C16.6314933,24.3860141 16.5882479,24.1905451 16.5271269,23.8941657 C16.4660059,23.5977864 16.430833,23.3988578 16.4216072,23.2973738 C16.4077684,23.4219223 16.3731722,23.6220042 16.3178173,23.8976254 C16.2624624,24.1732466 16.2197936,24.3698689 16.1898097,24.487498 L15.508256,27.1376003 L14.2904545,27.1376003 L13,22.0795723 L14.0551974,22.0795723 L14.7021544,24.8403837 C14.8151707,25.35011 14.8970485,25.7917893 14.9477905,26.1654348 C14.9616293,26.0339669 14.9933425,25.8304254 15.0429313,25.5548042 C15.09252,25.279183 15.139225,25.0652626 15.1830476,24.9130366 L15.919956,22.0795723 L16.9336374,22.0795723 L17.6705457,24.9130366 C17.702836,25.0398916 17.7431984,25.2336308 17.7916339,25.4942601 C17.8400694,25.7548894 17.8769721,25.9786121 17.9023431,26.1654348 C17.9254077,25.9855314 17.9623104,25.7612321 18.0130524,25.4925303 C18.0637944,25.2238284 18.1099227,25.0064484 18.1514389,24.8403837 L18.7949363,22.0795723 L19.8501337,22.0795723 L18.5631389,27.1376003 Z M25.0776852,24.6016669 C25.0776852,25.4389097 24.8701074,26.0824006 24.4549457,26.5321591 C24.0397841,26.9819176 23.4447279,27.2067935 22.6697594,27.2067935 C21.8947909,27.2067935 21.2997347,26.9819176 20.884573,26.5321591 C20.4694114,26.0824006 20.2618336,25.4366033 20.2618336,24.5947476 C20.2618336,23.7528919 20.469988,23.1099776 20.8863029,22.6659852 C21.3026178,22.2219929 21.8994038,22 22.6766787,22 C23.4539537,22 24.0484332,22.2237227 24.4601352,22.6711747 C24.8718373,23.1186268 25.0776852,23.7621177 25.0776852,24.6016669 Z M21.3862242,24.6016669 C21.3862242,25.1667481 21.4934727,25.5922825 21.707973,25.8782827 C21.9224732,26.164283 22.2430654,26.307281 22.6697594,26.307281 C23.5254538,26.307281 23.9532945,25.7387487 23.9532945,24.6016669 C23.9532945,23.4622787 23.5277602,22.8925932 22.6766787,22.8925932 C22.2499848,22.8925932 21.9282393,23.0361678 21.7114326,23.3233213 C21.494626,23.6104748 21.3862242,24.0365857 21.3862242,24.6016669 Z M27.1984589,24.3248939 L27.5444252,24.3248939 C27.8834739,24.3248939 28.1337204,24.2683866 28.2951722,24.1553703 C28.456624,24.0423541 28.5373486,23.8647598 28.5373486,23.6225822 C28.5373486,23.382711 28.4548942,23.2120359 28.2899827,23.110552 C28.1250713,23.009068 27.8696353,22.9583268 27.5236672,22.9583268 L27.1984589,22.9583268 L27.1984589,24.3248939 Z M27.1984589,25.196729 L27.1984589,27.1376003 L26.1259632,27.1376003 L26.1259632,22.0795723 L27.5997798,22.0795723 C28.2871031,22.0795723 28.7956685,22.2046955 29.1254914,22.4549457 C29.4553143,22.705196 29.6202233,23.0851786 29.6202233,23.5949049 C29.6202233,23.8924374 29.5383454,24.157099 29.3745872,24.3888976 C29.210829,24.6206962 28.9790338,24.8023268 28.6791948,24.9337946 C29.4403246,26.0708764 29.9362047,26.8054709 30.1668501,27.1376003 L28.9767259,27.1376003 L27.7693033,25.196729 L27.1984589,25.196729 Z M35,24.560151 C35,25.3927808 34.7630154,26.0305057 34.2890392,26.4733449 C33.8150629,26.916184 33.130633,27.1376003 32.2357289,27.1376003 L30.8034282,27.1376003 L30.8034282,22.0795723 L32.3914137,22.0795723 C33.2171242,22.0795723 33.8583088,22.2975289 34.3149866,22.7334487 C34.7716645,23.1693684 35,23.7782631 35,24.560151 Z M33.8859884,24.5878283 C33.8859884,23.5014885 33.4062532,22.9583268 32.4467684,22.9583268 L31.8759239,22.9583268 L31.8759239,26.2519264 L32.3360591,26.2519264 C33.3693505,26.2519264 33.8859884,25.6972326 33.8859884,24.5878283 Z" id="WORD"></path>
                <path d="M2.83060467,29.0728239 C2.34920691,29.0728239 1.97647309,29.2536892 1.71239204,29.6154253 C1.44831098,29.9771613 1.31627243,30.481246 1.31627243,31.1276944 C1.31627243,32.4728573 1.8210448,33.1454286 2.83060467,33.1454286 C3.2542347,33.1454286 3.76725947,33.0395227 4.36969438,32.8277077 L4.36969438,33.9005316 C3.8745424,34.1068449 3.32163098,34.21 2.71094354,34.21 C1.8334242,34.21 1.16222825,33.9438598 0.697335552,33.4115715 C0.23244286,32.8792831 0,32.1152475 0,31.1194419 C0,30.4922494 0.114158328,29.9427765 0.342478407,29.4710067 C0.570798487,28.9992368 0.898831754,28.6375062 1.32658805,28.385804 C1.75434434,28.1341017 2.2556782,28.0082525 2.83060467,28.0082525 C3.41653451,28.0082525 4.00520637,28.1499189 4.5966379,28.4332558 L4.18401331,29.4730698 C3.95844408,29.3657868 3.73150283,29.2722595 3.50318275,29.1924851 C3.27486267,29.1127106 3.05067222,29.0728239 2.83060467,29.0728239 Z M5.65295685,34.1274751 L5.65295685,28.0949037 L6.93209307,28.0949037 L6.93209307,33.0711562 L9.37895687,33.0711562 L9.37895687,34.1274751 L5.65295685,34.1274751 Z M15.9025516,31.1029369 C15.9025516,32.1014934 15.6549793,32.8689674 15.1598273,33.4053821 C14.6646754,33.9417967 13.9549682,34.21 13.0306845,34.21 C12.1064008,34.21 11.3966936,33.9417967 10.9015416,33.4053821 C10.4063896,32.8689674 10.1588173,32.0987426 10.1588173,31.0946844 C10.1588173,30.0906262 10.4070773,29.3238399 10.9036047,28.7943023 C11.4001321,28.2647648 12.1119024,28 13.038937,28 C13.9659715,28 14.674991,28.2668279 15.1660167,28.8004917 C15.6570424,29.3341555 15.9025516,30.1016296 15.9025516,31.1029369 Z M11.4998472,31.1029369 C11.4998472,31.7768938 11.6277596,32.2844169 11.8835881,32.6255216 C12.1394166,32.9666263 12.5217783,33.1371761 13.0306845,33.1371761 C14.0512477,33.1371761 14.5615217,32.4591032 14.5615217,31.1029369 C14.5615217,29.7440198 14.0539985,29.0645714 13.038937,29.0645714 C12.5300308,29.0645714 12.1462937,29.2358089 11.8877144,29.578289 C11.629135,29.9207692 11.4998472,30.42898 11.4998472,31.1029369 Z M22.0630367,28.0949037 L22.0630367,31.9983323 C22.0630367,32.443969 21.9633201,32.8345831 21.7638839,33.1701861 C21.5644476,33.5057891 21.276301,33.7629892 20.8994353,33.9417941 C20.5225697,34.1205989 20.0769396,34.21 19.5625317,34.21 C18.7867936,34.21 18.1843677,34.0112545 17.755236,33.6137575 C17.3261043,33.2162605 17.1115416,32.6722892 17.1115416,31.9818273 L17.1115416,28.0949037 L18.3865516,28.0949037 L18.3865516,31.7878937 C18.3865516,32.2527864 18.4800789,32.593886 18.6671363,32.8112027 C18.8541937,33.0285194 19.1636591,33.1371761 19.5955416,33.1371761 C20.01367,33.1371761 20.316946,33.0278317 20.5053789,32.8091396 C20.6938117,32.5904474 20.7880267,32.2472848 20.7880267,31.7796412 L20.7880267,28.0949037 L22.0630367,28.0949037 Z M28.5453689,31.0534219 C28.5453689,32.0464768 28.2627239,32.8070738 27.6974254,33.3352359 C27.1321269,33.863398 26.3158261,34.1274751 25.2484985,34.1274751 L23.5402327,34.1274751 L23.5402327,28.0949037 L25.4341796,28.0949037 C26.4189818,28.0949037 27.1837051,28.3548545 27.7283723,28.8747641 C28.2730394,29.3946737 28.5453689,30.1208857 28.5453689,31.0534219 Z M27.2167178,31.0864319 C27.2167178,29.7907842 26.6445507,29.1429701 25.5001995,29.1429701 L24.8193689,29.1429701 L24.8193689,33.0711562 L25.3681596,33.0711562 C26.6005379,33.0711562 27.2167178,32.409588 27.2167178,31.0864319 Z" id="CLOUD"></path>
                <path d="M1.94176755,17.7359469 C1.61153332,17.7359469 1.35584151,17.8600187 1.17468445,18.1081662 C0.993527387,18.3563136 0.902950215,18.7021108 0.902950215,19.1455682 C0.902950215,20.068337 1.2492192,20.5297145 1.94176755,20.5297145 C2.23237367,20.5297145 2.58430372,20.457064 2.99756827,20.311761 L2.99756827,21.0477079 C2.65789878,21.1892368 2.27860687,21.2600002 1.85968116,21.2600002 C1.25771134,21.2600002 0.797277385,21.0774306 0.478365474,20.7122859 C0.159453564,20.3471412 0,19.8230202 0,19.1399071 C0,18.7096591 0.0783115134,18.3327259 0.23493689,18.0090964 C0.391562266,17.6854669 0.616589928,17.4373231 0.910026627,17.2646578 C1.20346333,17.0919925 1.54737353,17.0056611 1.94176755,17.0056611 C2.34370978,17.0056611 2.747533,17.1028429 3.15324934,17.2972093 L2.87019285,18.0105117 C2.71545452,17.9369166 2.55977501,17.8727578 2.40314963,17.8180333 C2.24652425,17.7633087 2.09273176,17.7359469 1.94176755,17.7359469 Z M3.87787396,21.2033889 L3.87787396,17.065103 L4.75534909,17.065103 L4.75534909,20.4787643 L6.4338741,20.4787643 L6.4338741,21.2033889 L3.87787396,21.2033889 Z M10.9089973,19.1285848 C10.9089973,19.813585 10.7391651,20.3400648 10.3994956,20.7080401 C10.0598261,21.0760153 9.57297378,21.2600002 8.93892407,21.2600002 C8.30487435,21.2600002 7.81802205,21.0760153 7.47835256,20.7080401 C7.13868307,20.3400648 6.96885087,19.8116979 6.96885087,19.1229237 C6.96885087,18.4341495 7.13915483,17.9081414 7.47976784,17.5448838 C7.82038086,17.1816261 8.30864843,17 8.9445852,17 C9.58052197,17 10.0669025,17.1830414 10.4037414,17.5491296 C10.7405803,17.9152178 10.9089973,18.4416976 10.9089973,19.1285848 Z M7.88878448,19.1285848 C7.88878448,19.5909127 7.97653111,19.9390688 8.15202702,20.1730633 C8.32752292,20.4070578 8.58981931,20.5240533 8.93892407,20.5240533 C9.63902063,20.5240533 9.98906366,20.0589018 9.98906366,19.1285848 C9.98906366,18.1963808 9.64090765,17.7302858 8.9445852,17.7302858 C8.59548044,17.7302858 8.33224054,17.847753 8.15485758,18.0826911 C7.97747462,18.3176292 7.88878448,18.6662569 7.88878448,19.1285848 Z M15.1350307,17.065103 L15.1350307,19.7428174 C15.1350307,20.04852 15.0666261,20.3164774 14.9298148,20.5466979 C14.7930034,20.7769183 14.5953376,20.9533551 14.3368114,21.0760135 C14.0782852,21.1986719 13.7725872,21.2600002 13.4197084,21.2600002 C12.8875595,21.2600002 12.4743011,21.1236627 12.1799209,20.8509836 C11.8855407,20.5783045 11.7383528,20.2051454 11.7383528,19.7314952 L11.7383528,17.065103 L12.6129974,17.065103 L12.6129974,19.5984586 C12.6129974,19.9173705 12.6771562,20.1513616 12.8054758,20.3004387 C12.9337954,20.4495159 13.1460856,20.5240533 13.4423529,20.5240533 C13.7291849,20.5240533 13.9372293,20.4490441 14.0664925,20.2990234 C14.1957556,20.1490027 14.2603861,19.9135964 14.2603861,19.5927975 L14.2603861,17.065103 L15.1350307,17.065103 Z M19.5818482,19.0946181 C19.5818482,19.7758441 19.3879565,20.2976063 19.0001671,20.6599205 C18.6123778,21.0222346 18.0524033,21.2033889 17.3202268,21.2033889 L16.148373,21.2033889 L16.148373,17.065103 L17.4476023,17.065103 C18.1231671,17.065103 18.6477599,17.2434268 19.0213964,17.6000798 C19.3950328,17.9567327 19.5818482,18.4549072 19.5818482,19.0946181 Z M18.6704063,19.1172626 C18.6704063,18.2284607 18.2779052,17.7840665 17.4928913,17.7840665 L17.0258481,17.7840665 L17.0258481,20.4787643 L17.4023132,20.4787643 C18.2477128,20.4787643 18.6704063,20.0249349 18.6704063,19.1172626 Z" id="CLOUD"></path>
                <path d="M1.18511624,6.94916942 C0.983564848,6.94916942 0.827508828,7.02489402 0.716943495,7.17634549 C0.606378162,7.32779696 0.551096325,7.53884689 0.551096325,7.80950161 C0.551096325,8.37269378 0.762434182,8.65428564 1.18511624,8.65428564 C1.36248146,8.65428564 1.57727443,8.609945 1.82950159,8.52126238 L1.82950159,8.9704318 C1.62219159,9.05681097 1.3906989,9.0999999 1.13501657,9.0999999 C0.767617182,9.0999999 0.486601177,8.98857245 0.291960122,8.7657142 C0.0973190675,8.54285595 0,8.22296991 0,7.80604646 C0,7.5434538 0.0477957551,7.31340074 0.143388699,7.11588038 C0.238981643,6.91836002 0.376322457,6.76691082 0.555415262,6.66152823 C0.734508067,6.55614565 0.944406292,6.50345515 1.18511624,6.50345515 C1.43043307,6.50345515 1.67689793,6.56276795 1.9245182,6.68139534 L1.75176073,7.11674416 C1.65731951,7.071827 1.56230385,7.03266903 1.46671091,6.99926908 C1.37111797,6.96586914 1.27725401,6.94916942 1.18511624,6.94916942 Z M2.36677732,9.06544841 L2.36677732,6.53973422 L2.90232547,6.53973422 L2.90232547,8.62318929 L3.92677726,8.62318929 L3.92677726,9.06544841 L2.36677732,9.06544841 Z M6.65807285,7.79913616 C6.65807285,8.21721133 6.5544194,8.53853701 6.3471094,8.76312284 C6.1397994,8.98770867 5.84265953,9.0999999 5.45568086,9.0999999 C5.0687022,9.0999999 4.77156232,8.98770867 4.56425232,8.76312284 C4.35694233,8.53853701 4.25328888,8.21605962 4.25328888,7.79568102 C4.25328888,7.37530241 4.35723025,7.05426465 4.56511611,6.83255813 C4.77300197,6.6108516 5.07100563,6.5 5.45913601,6.5 C5.8472664,6.5 6.14411835,6.61171538 6.34970076,6.83514949 C6.55528318,7.0585836 6.65807285,7.37990928 6.65807285,7.79913616 Z M4.81475065,7.79913616 C4.81475065,8.08130811 4.86830493,8.29379767 4.9754151,8.43661122 C5.08252527,8.57942478 5.24261225,8.65083049 5.45568086,8.65083049 C5.88296981,8.65083049 6.09661107,8.36693522 6.09661107,7.79913616 C6.09661107,7.23018539 5.88412151,6.94571427 5.45913601,6.94571427 C5.2460674,6.94571427 5.08540456,7.0174079 4.97714267,7.16079732 C4.86888079,7.30418673 4.81475065,7.51696422 4.81475065,7.79913616 Z M9.23734185,6.53973422 L9.23734185,8.17401987 C9.23734185,8.36059887 9.19559255,8.52414097 9.11209269,8.66465108 C9.02859283,8.80516119 8.90795174,8.91284561 8.75016579,8.98770755 C8.59237985,9.06256949 8.40580365,9.0999999 8.19043159,9.0999999 C7.86564593,9.0999999 7.61342255,9.01678922 7.43375388,8.85036536 C7.25408521,8.6839415 7.16425223,8.45619185 7.16425223,8.16710957 L7.16425223,6.53973422 L7.69807281,6.53973422 L7.69807281,8.08591356 C7.69807281,8.28055462 7.73723078,8.42336603 7.81554789,8.51435209 C7.893865,8.60533814 8.0234318,8.65083049 8.20425219,8.65083049 C8.37931397,8.65083049 8.50628944,8.60505021 8.58518241,8.5134883 C8.66407538,8.42192638 8.70352128,8.27825119 8.70352128,8.08245841 L8.70352128,6.53973422 L9.23734185,6.53973422 Z M11.9513617,7.77840527 C11.9513617,8.19417699 11.833024,8.51262341 11.5963451,8.73375407 C11.3596662,8.95488474 11.0178977,9.06544841 10.5710295,9.06544841 L9.85581359,9.06544841 L9.85581359,6.53973422 L10.6487704,6.53973422 C11.0610869,6.53973422 11.3812609,6.64857033 11.6093019,6.86624583 C11.8373429,7.08392133 11.9513617,7.38797144 11.9513617,7.77840527 Z M11.3950826,7.79222587 C11.3950826,7.2497647 11.155528,6.97853819 10.6764116,6.97853819 L10.3913617,6.97853819 L10.3913617,8.62318929 L10.6211292,8.62318929 C11.1371007,8.62318929 11.3950826,8.34620425 11.3950826,7.79222587 Z" id="CLOUD"></path>
            </g>
        </g>
    </g>
</svg>