<?xml version="1.0" encoding="UTF-8" standalone="no"?>
<svg width="90px" height="90px" viewBox="0 0 90 90" version="1.1" xmlns="http://www.w3.org/2000/svg" xmlns:xlink="http://www.w3.org/1999/xlink">
    <!-- Generator: sketchtool 47.1 (45422) - http://www.bohemiancoding.com/sketch -->
    <title>1BCAE0C5-EA8D-45CB-8684-2940A9690B1A</title>
    <desc>Created with sketchtool.</desc>
    <defs></defs>
    <g id="Blocklight-Website-Prototype" stroke="none" stroke-width="1" fill="none" fill-rule="evenodd">
        <g id="Analytics" transform="translate(-974.000000, -1311.000000)">
            <g id="BAP-SECTION" transform="translate(-8.000000, 764.000000)">
                <g id="Rectangle" transform="translate(897.000000, 206.000000)">
                    <g id="Group-5" transform="translate(85.000000, 341.000000)">
                        <circle id="Oval" fill="#FFFFFF" cx="45" cy="45" r="45"></circle>
                        <path d="M62.7771329,42.1419098 L62.7769968,42.1419098 L62.7769968,47.6357671 C62.7769968,47.9685922 62.6521365,48.2600691 62.4024157,48.5097899 C62.1526949,48.7595107 61.8609459,48.8843711 61.5279849,48.8843711 L55.2017249,49.5502932 C55.0353804,50.3272023 54.799397,51.0622192 54.4941827,51.7562961 C54.1889684,52.4496929 53.84227,53.1572352 53.4540875,53.8786508 L57.4496201,58.7898263 C57.9490616,59.4005269 57.9213149,59.9829367 57.3663798,60.5378718 L53.5373277,64.3669238 C53.2598602,64.6443914 52.9550539,64.7832612 52.6220929,64.7832612 C52.2891318,64.7832612 52.0116643,64.6725462 51.7896903,64.4505721 L46.8785148,60.4549035 C46.1573712,60.8430861 45.449829,61.1899205 44.7561601,61.4951348 C44.0620832,61.8003491 43.3272023,62.0361965 42.5502932,62.202677 L41.8843711,68.528937 C41.8843711,68.86217 41.7595107,69.153511 41.5097899,69.4033678 C41.2600691,69.6530886 40.9685922,69.7779489 40.6357671,69.7779489 L35.1419098,69.7779489 C34.8089487,69.7779489 34.5176078,69.6530886 34.267887,69.4033678 C34.0181663,69.153511 33.8933059,68.861898 33.8933059,68.528937 L33.2273838,62.202677 C32.4504746,62.0363325 31.7151857,61.8003491 31.0215168,61.4951348 C30.327848,61.1899205 29.6203057,60.8432221 28.8988901,60.4550396 L23.9877146,64.4505721 C23.7657406,64.6725462 23.4882731,64.7832612 23.155312,64.7832612 C22.822351,64.7832612 22.5171367,64.6443914 22.2396691,64.3669238 L18.4106171,60.5378718 C17.855682,59.9828007 17.8279352,59.4002549 18.3273768,58.7898263 L22.3229094,53.8786508 C21.9344548,53.1575072 21.5876204,52.449965 21.2824061,51.7562961 C20.9771918,51.0622192 20.7413444,50.3273383 20.5748639,49.5502932 L14.2486039,48.8843711 C13.9156429,48.8843711 13.624302,48.7595107 13.3745812,48.5097899 C13.1248604,48.2600691 13,47.9683201 13,47.6357671 L13,42.1419098 C13,41.8089487 13.1248604,41.5176078 13.3745812,41.267887 C13.624302,41.0181663 13.9156429,40.8933059 14.2486039,40.8933059 L20.5748639,40.2273838 C20.7413444,39.4504746 20.9771918,38.7151857 21.2824061,38.0215168 C21.5876204,37.327848 21.9344548,36.6203057 22.3229094,35.8988901 L18.3273768,30.9877146 C17.8279352,30.377286 17.855682,29.7946042 18.4106171,29.2396691 L22.2396691,25.4106171 C22.5171367,25.1331495 22.822351,24.9944157 23.155312,24.9944157 C23.4882731,24.9944157 23.7657406,25.1054028 23.9877146,25.3273768 L28.8990261,29.3229094 C29.6204417,28.9344548 30.327984,28.5876204 31.0216528,28.2824061 C31.7153217,27.9771918 32.4506107,27.7413444 33.2275198,27.5748639 L33.8934419,21.2486039 C33.8934419,20.9156429 34.0183023,20.624302 34.2680231,20.3745812 C34.5177438,20.1248604 34.8090848,20 35.1420458,20 L40.6359031,20 C40.9687282,20 41.2602051,20.1248604 41.5099259,20.3745812 C41.7596467,20.624302 41.8845071,20.9156429 41.8845071,21.2486039 L42.5504292,27.5748639 C43.3273383,27.7412084 44.0622192,27.9771918 44.7562961,28.2824061 C45.4496929,28.5876204 46.1572352,28.9344548 46.8786508,29.3229094 L51.7898263,25.3273768 C52.0118003,25.1054028 52.2892678,24.9944157 52.6222289,24.9944157 C52.9551899,24.9944157 53.2599962,25.1331495 53.5374637,25.4106171 L57.3665158,29.2396691 C57.9214509,29.7946042 57.9491976,30.377286 57.4497561,30.9877146 L53.4542235,35.8988901 C53.84227,36.6203057 54.1891044,37.327848 54.4943187,38.0215168 C54.799533,38.7151857 55.0353804,39.4504746 55.2018609,40.2273838 L61.5281209,40.8933059 C61.861354,40.8933059 62.1528309,41.0181663 62.4025517,41.267887 C62.6522725,41.5176078 62.7771329,41.8089487 62.7771329,42.1419098 Z M43.0908108,39.6863221 C41.6757263,38.2712376 39.9415542,37.5636954 37.8882944,37.5636954 C35.8350346,37.5636954 34.1008625,38.2712376 32.685778,39.6863221 C31.2706935,41.1014065 30.5631513,42.8355787 30.5631513,44.8888385 C30.5631513,46.9420983 31.2706935,48.6762704 32.685778,50.0913549 C34.1008625,51.5064393 35.8350346,52.2139815 37.8882944,52.2139815 C39.9415542,52.2139815 41.6757263,51.5064393 43.0908108,50.0913549 C44.5058953,48.6762704 45.2134375,46.9420983 45.2134375,44.8888385 C45.2134375,42.8355787 44.5058953,41.1014065 43.0908108,39.6863221 Z" id="Combined-Shape" fill="#E77814"></path>
                        <path d="M78.222277,51.7779636 L78.2221862,51.7779636 L78.2221862,55.4446764 C78.2221862,55.6668107 78.1388518,55.8613483 77.972183,56.0280171 C77.8055143,56.1946859 77.6107951,56.2780202 77.38857,56.2780202 L73.1662947,56.7224703 C73.055273,57.2409953 72.8977728,57.7315607 72.6940665,58.1948018 C72.4903603,58.657589 72.2589667,59.1298172 71.9998857,59.6113047 L74.6665859,62.8891237 C74.9999234,63.2967178 74.9814047,63.68543 74.6110297,64.0558051 L72.055442,66.6113928 C71.8702544,66.7965803 71.6668205,66.8892648 71.4445955,66.8892648 C71.2223705,66.8892648 71.037183,66.8153714 70.8890329,66.6672214 L67.6112139,64.0004304 C67.129908,64.2595113 66.6576798,64.4909957 66.194711,64.694702 C65.7314699,64.8984083 65.2409953,65.0558176 64.7224703,65.1669302 L64.2780202,69.3892055 C64.2780202,69.6116121 64.1946859,69.8060589 64.0280171,69.9728185 C63.8613483,70.1394872 63.6668107,70.2228216 63.4446764,70.2228216 L59.7779636,70.2228216 C59.5557386,70.2228216 59.3612917,70.1394872 59.194623,69.9728185 C59.0279542,69.8060589 58.9446198,69.6114305 58.9446198,69.3892055 L58.5001698,65.1669302 C57.9816448,65.0559084 57.4908978,64.8984083 57.0279291,64.694702 C56.5649603,64.4909957 56.0927321,64.2596021 55.6112446,64.0005211 L52.3334256,66.6672214 C52.1852756,66.8153714 52.000088,66.8892648 51.777863,66.8892648 C51.555638,66.8892648 51.3519317,66.7965803 51.1667442,66.6113928 L48.6111565,64.0558051 C48.2407815,63.6853393 48.2222627,63.2965363 48.5556003,62.8891237 L51.2223005,59.6113047 C50.963038,59.1299987 50.7315536,58.6577706 50.5278473,58.1948018 C50.324141,57.7315607 50.1667317,57.2410861 50.0556191,56.7224703 L45.8333438,56.2780202 C45.6111188,56.2780202 45.4166719,56.1946859 45.2500031,56.0280171 C45.0833344,55.8613483 45,55.6666291 45,55.4446764 L45,51.7779636 C45,51.5557386 45.0833344,51.3612917 45.2500031,51.194623 C45.4166719,51.0279542 45.6111188,50.9446198 45.8333438,50.9446198 L50.0556191,50.5001698 C50.1667317,49.9816448 50.324141,49.4908978 50.5278473,49.0279291 C50.7315536,48.5649603 50.963038,48.0927321 51.2223005,47.6112446 L48.5556003,44.3334256 C48.2222627,43.926013 48.2407815,43.5371193 48.6111565,43.1667442 L51.1667442,40.6111565 C51.3519317,40.425969 51.555638,40.3333753 51.777863,40.3333753 C52.000088,40.3333753 52.1852756,40.4074503 52.3334256,40.5556003 L55.6113354,43.2223005 C56.0928229,42.963038 56.565051,42.7315536 57.0280198,42.5278473 C57.4909886,42.324141 57.9817355,42.1667317 58.5002606,42.0556191 L58.9447106,37.8333438 C58.9447106,37.6111188 59.028045,37.4166719 59.1947138,37.2500031 C59.3613825,37.0833344 59.5558294,37 59.7780544,37 L63.4447672,37 C63.6669014,37 63.8614391,37.0833344 64.0281079,37.2500031 C64.1947766,37.4166719 64.278111,37.6111188 64.278111,37.8333438 L64.7225611,42.0556191 C65.2410861,42.1666409 65.7315607,42.324141 66.1948018,42.5278473 C66.657589,42.7315536 67.1298172,42.963038 67.6113047,43.2223005 L70.8891237,40.5556003 C71.0372737,40.4074503 71.2224613,40.3333753 71.4446863,40.3333753 C71.6669113,40.3333753 71.8703452,40.425969 72.0555327,40.6111565 L74.6111204,43.1667442 C74.9814955,43.5371193 75.0000142,43.926013 74.6666767,44.3334256 L71.9999765,47.6112446 C72.2589667,48.0927321 72.4904511,48.5649603 72.6941573,49.0279291 C72.8978636,49.4908978 73.055273,49.9816448 73.1663855,50.5001698 L77.3886608,50.9446198 C77.6110674,50.9446198 77.8056051,51.0279542 77.9722738,51.194623 C78.1389426,51.3612917 78.222277,51.5557386 78.222277,51.7779636 Z M65.0832228,50.1390541 C64.1387665,49.1945978 62.9813445,48.7223697 61.6109569,48.7223697 C60.2405693,48.7223697 59.0831474,49.1945978 58.138691,50.1390541 C57.1942347,51.0835105 56.7220065,52.2409324 56.7220065,53.61132 C56.7220065,54.9817076 57.1942347,56.1391296 58.138691,57.0835859 C59.0831474,58.0280423 60.2405693,58.5002704 61.6109569,58.5002704 C62.9813445,58.5002704 64.1387665,58.0280423 65.0832228,57.0835859 C66.0276791,56.1391296 66.4999073,54.9817076 66.4999073,53.61132 C66.4999073,52.2409324 66.0276791,51.0835105 65.0832228,50.1390541 Z" id="Combined-Shape" fill="#545559"></path>
                    </g>
                </g>
            </g>
        </g>
    </g>
</svg>