<?xml version="1.0" encoding="UTF-8"?>
<svg width="75px" height="75px" viewBox="0 0 75 75" version="1.1" xmlns="http://www.w3.org/2000/svg" xmlns:xlink="http://www.w3.org/1999/xlink">
    <!-- Generator: Sketch 47.1 (45422) - http://www.bohemiancoding.com/sketch -->
    <title>analytics</title>
    <desc>Created with Sketch.</desc>
    <defs></defs>
    <g id="Blocklight-Website-Prototype" stroke="none" stroke-width="1" fill="none" fill-rule="evenodd">
        <g id="HOMEPAGE" transform="translate(-727.000000, -1397.000000)" fill-rule="nonzero">
            <g id="MEET-BLOCKLIGHT" transform="translate(0.000000, 495.000000)">
                <g id="icon-bkgd-copy-3" transform="translate(647.000000, 858.000000)">
                    <g id="Group-9">
                        <g id="analytics" transform="translate(80.000000, 44.000000)">
                            <circle id="Oval" fill="#EF7C15" cx="37.5" cy="37.5" r="37.5"></circle>
                            <path d="M50.0225836,18.8576547 L50.0225836,10.6532572 C49.6309395,10.4777112 49.2014228,10.3658537 48.8482385,10.3658537 L20.0767841,10.3658537 C19.4308943,10.3658537 18.902439,10.892931 18.902439,11.5371366 L18.902439,61.0238391 C18.902439,61.6680446 19.4308943,62.195122 20.0767841,62.195122 L57.3622403,62.195122 C58.0081301,62.195122 58.5365854,61.6680446 58.5365854,61.0238391 L58.5365854,20.0289376 C58.5365854,19.6766742 58.4244354,19.2482775 58.2484304,18.8576547 L50.0225836,18.8576547 Z" id="Shape" fill="#FFFFFF"></path>
                            <path d="M58.1463415,19.0365854 C57.9950695,18.6997712 57.7984006,18.3897682 57.5836035,18.1749749 L54.0275689,14.6188514 L50.4703156,11.0616616 C50.2555185,10.8473253 49.9461192,10.651117 49.6097561,10.5 L49.6097561,19.0365854 L58.1463415,19.0365854 Z" id="Shape" fill="#FFD200"></path>
                            <rect id="Rectangle-path" fill="#EF7C15" x="25.6097561" y="23.7804878" width="5.48780488" height="12.195122"></rect>
                            <rect id="Rectangle-path" fill="#FFD200" x="32.9268293" y="19.0365854" width="5.48780488" height="16.9390244"></rect>
                            <rect id="Rectangle-path" fill="#EF7C15" x="40" y="29" width="5.48780488" height="7.31707317"></rect>
                            <rect id="Rectangle-path" fill="#EF7C15" x="25.6097561" y="38.4146341" width="26.8292683" height="1.82926829"></rect>
                            <g id="Group" transform="translate(25.609756, 43.902439)">
                                <path d="M12.6352711,1.86547256 C11.2949917,0.704883912 9.54209093,0 7.62195122,0 C7.59723538,0 7.57266753,0.00161233583 7.54795169,0.0019054878 L7.54795169,7.89985929 L12.6352711,1.86547256 Z" id="Shape" fill="#FFD200"></path>
                                <path d="M7.54795169,0.0019054878 C3.37275041,0.0414810038 0,3.40437383 0,7.54866323 C0,9.93726548 1.12153682,12.0652556 2.86999763,13.4486398 L7.54795169,7.89985929 L7.54795169,0.0019054878 Z" id="Shape" fill="#EF7C15"></path>
                                <path d="M12.6352711,1.86547256 L7.54795169,7.89985929 L7.54795169,15.0955675 C7.57266753,15.0958607 7.59723538,15.097473 7.62195122,15.097473 C11.8314883,15.097473 15.2439024,11.717724 15.2439024,7.5488098 C15.2439024,5.28127932 14.2332169,3.24900328 12.6352711,1.86547256 Z" id="Shape" fill="#FFD200"></path>
                                <path d="M2.86999763,13.4486398 C4.15522141,14.4652908 5.77906701,15.0787113 7.54795169,15.095421 L7.54795169,7.89971271 L2.86999763,13.4486398 Z" id="Shape" fill="#FFD200"></path>
                            </g>
                            <g id="Group" transform="translate(43.902439, 45.731707)">
                                <ellipse id="Oval" fill="#FFD200" cx="1.2195122" cy="1.27890402" rx="1.2195122" ry="1.20367437"></ellipse>
                                <ellipse id="Oval" fill="#EF7C15" cx="1.2195122" cy="7.20367437" rx="1.2195122" ry="1.20367437"></ellipse>
                            </g>
                            <path d="M54.9512195,47.5714286 L48.3658537,47.5714286 C48.1637561,47.5714286 48,47.3316429 48,47.0357143 C48,46.7397857 48.1637561,46.5 48.3658537,46.5 L54.9512195,46.5 C55.1533171,46.5 55.3170732,46.7397857 55.3170732,47.0357143 C55.3170732,47.3316429 55.1533171,47.5714286 54.9512195,47.5714286 Z" id="Shape" fill="#FFD200"></path>
                            <path d="M54.9437531,53.5714286 L48.3733201,53.5714286 C48.1670981,53.5714286 48,53.3316429 48,53.0357143 C48,52.7397857 48.1670981,52.5 48.3733201,52.5 L54.9437531,52.5 C55.1499751,52.5 55.3170732,52.7397857 55.3170732,53.0357143 C55.3170732,53.3316429 55.1499751,53.5714286 54.9437531,53.5714286 Z" id="Shape" fill="#EF7C15"></path>
                        </g>
                    </g>
                </g>
            </g>
        </g>
    </g>
</svg>