<?xml version="1.0" encoding="UTF-8" standalone="no"?>
<svg width="75px" height="45px" viewBox="0 0 75 45" version="1.1" xmlns="http://www.w3.org/2000/svg" xmlns:xlink="http://www.w3.org/1999/xlink">
    <!-- Generator: Sketch 47.1 (45422) - http://www.bohemiancoding.com/sketch -->
    <title>chat</title>
    <desc>Created with Sketch.</desc>
    <defs></defs>
    <g id="#7--High-Fidelity-Screens-Copy" stroke="none" stroke-width="1" fill="none" fill-rule="evenodd">
        <g id="Landing-Page-#1" transform="translate(-60.000000, -3926.000000)" fill-rule="nonzero">
            <g id="HOW-DOES-IT-WORK?" transform="translate(0.000000, 2080.000000)">
                <g id="updates" transform="translate(50.000000, 1815.000000)">
                    <g id="chat" transform="translate(10.000000, 31.000000)">
                        <g id="Group" transform="translate(32.812500, 10.546875)">
                            <path d="M5.859375,0 L36.328125,0 C39.5588379,0 42.1875,2.62866211 42.1875,5.859375 L42.1875,22.265625 C42.1875,25.4963379 39.5588379,28.125 36.328125,28.125 L19.921875,28.125 L19.921875,32.8125 C19.921875,33.2862305 19.6369629,33.7136719 19.1985352,33.895166 C19.0532227,33.9552246 18.9010254,33.984375 18.75,33.984375 C18.4456055,33.984375 18.145752,33.8654297 17.9214844,33.6410156 L12.4053223,28.125 L5.859375,28.125 C2.62866211,28.125 0,25.4963379 0,22.265625 L0,5.859375 C0,2.62866211 2.62866211,0 5.859375,0 Z" id="Shape" fill="#EF7C15"></path>
                            <path d="M31.640625,8.203125 L35.15625,8.203125 C35.8040039,8.203125 36.328125,7.67841797 36.328125,7.03125 C36.328125,6.38408203 35.8040039,5.859375 35.15625,5.859375 L31.640625,5.859375 C30.9928711,5.859375 30.46875,6.38408203 30.46875,7.03125 C30.46875,7.67841797 30.9928711,8.203125 31.640625,8.203125 Z" id="Shape" fill="#FFFFFF"></path>
                            <path d="M7.03125,8.203125 L26.953125,8.203125 C27.6008789,8.203125 28.125,7.67841797 28.125,7.03125 C28.125,6.38408203 27.6008789,5.859375 26.953125,5.859375 L7.03125,5.859375 C6.38349609,5.859375 5.859375,6.38408203 5.859375,7.03125 C5.859375,7.67841797 6.38349609,8.203125 7.03125,8.203125 Z" id="Shape" fill="#FFFFFF"></path>
                            <path d="M7.03125,12.890625 L35.15625,12.890625 C35.8040039,12.890625 36.328125,12.365918 36.328125,11.71875 C36.328125,11.071582 35.8040039,10.546875 35.15625,10.546875 L7.03125,10.546875 C6.38349609,10.546875 5.859375,11.071582 5.859375,11.71875 C5.859375,12.365918 6.38349609,12.890625 7.03125,12.890625 Z" id="Shape" fill="#FFFFFF"></path>
                            <path d="M7.03125,17.578125 L10.546875,17.578125 C11.1946289,17.578125 11.71875,17.053418 11.71875,16.40625 C11.71875,15.759082 11.1946289,15.234375 10.546875,15.234375 L7.03125,15.234375 C6.38349609,15.234375 5.859375,15.759082 5.859375,16.40625 C5.859375,17.053418 6.38349609,17.578125 7.03125,17.578125 Z" id="Shape" fill="#FFFFFF"></path>
                            <path d="M15.234375,17.578125 L35.15625,17.578125 C35.8040039,17.578125 36.328125,17.053418 36.328125,16.40625 C36.328125,15.759082 35.8040039,15.234375 35.15625,15.234375 L15.234375,15.234375 C14.5866211,15.234375 14.0625,15.759082 14.0625,16.40625 C14.0625,17.053418 14.5866211,17.578125 15.234375,17.578125 Z" id="Shape" fill="#FFFFFF"></path>
                            <path d="M7.03125,22.265625 L35.15625,22.265625 C35.8040039,22.265625 36.328125,21.740918 36.328125,21.09375 C36.328125,20.446582 35.8040039,19.921875 35.15625,19.921875 L7.03125,19.921875 C6.38349609,19.921875 5.859375,20.446582 5.859375,21.09375 C5.859375,21.740918 6.38349609,22.265625 7.03125,22.265625 Z" id="Shape" fill="#FFFFFF"></path>
                        </g>
                        <g id="Group">
                            <path d="M36.328125,0 L5.859375,0 C2.62866211,0 0,2.62866211 0,5.859375 L0,22.265625 C0,25.4963379 2.62866211,28.125 5.859375,28.125 L22.265625,28.125 L22.265625,32.8125 C22.265625,33.2862305 22.5505371,33.7136719 22.9889648,33.895166 C23.1342773,33.9552246 23.2864746,33.984375 23.4375,33.984375 C23.7418945,33.984375 24.041748,33.8654297 24.2660156,33.6410156 L29.7820313,28.125 L36.328125,28.125 C39.5588379,28.125 42.1875,25.4963379 42.1875,22.265625 L42.1875,5.859375 C42.1875,2.62866211 39.5588379,0 36.328125,0 Z" id="Shape" fill="#FFD200"></path>
                            <path d="M10.546875,8.203125 L7.03125,8.203125 C6.38349609,8.203125 5.859375,7.67841797 5.859375,7.03125 C5.859375,6.38408203 6.38349609,5.859375 7.03125,5.859375 L10.546875,5.859375 C11.1946289,5.859375 11.71875,6.38408203 11.71875,7.03125 C11.71875,7.67841797 11.1946289,8.203125 10.546875,8.203125 Z" id="Shape" fill="#FFFFFF"></path>
                            <path d="M35.15625,8.203125 L15.234375,8.203125 C14.5866211,8.203125 14.0625,7.67841797 14.0625,7.03125 C14.0625,6.38408203 14.5866211,5.859375 15.234375,5.859375 L35.15625,5.859375 C35.8040039,5.859375 36.328125,6.38408203 36.328125,7.03125 C36.328125,7.67841797 35.8040039,8.203125 35.15625,8.203125 Z" id="Shape" fill="#FFFFFF"></path>
                            <path d="M35.15625,12.890625 L7.03125,12.890625 C6.38349609,12.890625 5.859375,12.365918 5.859375,11.71875 C5.859375,11.071582 6.38349609,10.546875 7.03125,10.546875 L35.15625,10.546875 C35.8040039,10.546875 36.328125,11.071582 36.328125,11.71875 C36.328125,12.365918 35.8040039,12.890625 35.15625,12.890625 Z" id="Shape" fill="#FFFFFF"></path>
                            <path d="M35.15625,17.578125 L31.640625,17.578125 C30.9928711,17.578125 30.46875,17.053418 30.46875,16.40625 C30.46875,15.759082 30.9928711,15.234375 31.640625,15.234375 L35.15625,15.234375 C35.8040039,15.234375 36.328125,15.759082 36.328125,16.40625 C36.328125,17.053418 35.8040039,17.578125 35.15625,17.578125 Z" id="Shape" fill="#FFFFFF"></path>
                            <path d="M26.953125,17.578125 L7.03125,17.578125 C6.38349609,17.578125 5.859375,17.053418 5.859375,16.40625 C5.859375,15.759082 6.38349609,15.234375 7.03125,15.234375 L26.953125,15.234375 C27.6008789,15.234375 28.125,15.759082 28.125,16.40625 C28.125,17.053418 27.6008789,17.578125 26.953125,17.578125 Z" id="Shape" fill="#FFFFFF"></path>
                            <path d="M35.15625,22.265625 L7.03125,22.265625 C6.38349609,22.265625 5.859375,21.740918 5.859375,21.09375 C5.859375,20.446582 6.38349609,19.921875 7.03125,19.921875 L35.15625,19.921875 C35.8040039,19.921875 36.328125,20.446582 36.328125,21.09375 C36.328125,21.740918 35.8040039,22.265625 35.15625,22.265625 Z" id="Shape" fill="#FFFFFF"></path>
                        </g>
                    </g>
                </g>
            </g>
        </g>
    </g>
</svg>