<?xml version="1.0" encoding="UTF-8" standalone="no"?>
<svg width="90px" height="90px" viewBox="0 0 90 90" version="1.1" xmlns="http://www.w3.org/2000/svg" xmlns:xlink="http://www.w3.org/1999/xlink">
    <!-- Generator: Sketch 47.1 (45422) - http://www.bohemiancoding.com/sketch -->
    <title>Group 5</title>
    <desc>Created with Sketch.</desc>
    <defs></defs>
    <g id="#7--High-Fidelity-Screens-Copy" stroke="none" stroke-width="1" fill="none" fill-rule="evenodd">
        <g id="Analytics" transform="translate(-260.000000, -2734.000000)">
            <g id="Bar-4" transform="translate(637.000000, 2780.000000) scale(-1, 1) translate(-637.000000, -2780.000000) translate(184.000000, 2710.000000)">
                <g id="Group-5" transform="translate(740.000000, 24.000000)">
                    <circle id="Oval" fill="#FFFFFF" cx="45" cy="45" r="45"></circle>
                    <g id="settings-button" transform="translate(17.000000, 18.000000)" fill-rule="nonzero" fill="#010002">
                        <path d="M30.9375,24.0625 C31.8725,24.9975 32.34,26.1433333 32.34,27.5 C32.34,28.8566667 31.8725,30.0025 30.9375,30.9375 C30.0025,31.8725 28.8566667,32.34 27.5,32.34 C26.1433333,32.34 24.9975,31.8725 24.0625,30.9375 C23.1275,30.0025 22.66,28.8566667 22.66,27.5 C22.66,26.1433333 23.1275,24.9975 24.0625,24.0625 C24.9975,23.1275 26.1433333,22.66 27.5,22.66 C28.8566667,22.66 30.0025,23.1275 30.9375,24.0625 Z M55,27.5 C55,30.03 54.67,32.4683333 54.01,34.815 C53.3497304,37.1613971 52.4241667,39.3522304 51.2325,41.3875 C50.0408333,43.4225 48.6108333,45.2741667 46.9425,46.9425 C45.2743464,48.6108333 43.4225,50.0411029 41.3875,51.2325 C39.3523203,52.4241667 37.1616667,53.35 34.8148203,54.01 C32.4683333,54.67 30.03,55 27.5,55 C24.97,55 22.5316667,54.67 20.185,54.01 C17.8383333,53.3497304 15.6475,52.4241667 13.6125,51.2325 C11.5775,50.0408333 9.72583333,48.6108333 8.0575,46.9425 C6.38916667,45.2743464 4.95916667,43.4225 3.7675,41.3875 C2.57583333,39.3523203 1.65,37.1616667 0.99,34.8149101 C0.33,32.4683333 0,30.03 0,27.5 C0,24.97 0.33,22.5316667 0.99,20.185 C1.65,17.8383333 2.57583333,15.6475 3.7675,13.6125 C4.95916667,11.5775 6.38916667,9.72583333 8.0575,8.0575 C9.72583333,6.38916667 11.5775,4.95916667 13.6125,3.7675 C15.6475,2.57583333 17.8383333,1.65 20.185,0.99 C22.5316667,0.33 24.97,0 27.5,0 C31.2766667,0 34.8425,0.724166667 38.1975,2.1725 C41.5525,3.62083333 44.4675,5.5825 46.9425,8.0575 C49.4175,10.5325 51.3791667,13.4475 52.8275,16.8025 C54.2758333,20.1575 55,23.7233333 55,27.5 Z M43.945,25.685 C43.945,25.465 43.8625,25.2725 43.6975,25.1075 C43.5325,24.9425 43.3399101,24.86 43.1197304,24.86 L38.9397304,24.42 C38.8297304,23.9066667 38.6738971,23.4208333 38.4722304,22.9625 C38.2705637,22.5041667 38.0413971,22.0366667 37.785,21.56 L40.425,18.315 C40.755,17.9116667 40.7366667,17.5266667 40.37,17.16 L37.84,14.63 C37.6566667,14.4466667 37.4552696,14.355 37.2352696,14.355 C37.0152696,14.355 36.8319363,14.4283333 36.6852696,14.575 L33.4402696,17.215 C32.9636029,16.9583333 32.4961029,16.7291667 32.0379493,16.5275 C31.5793464,16.3258333 31.0937827,16.1699101 30.5804493,16.06 L30.1404493,11.88 C30.1404493,11.66 30.0579493,11.4675 29.8929493,11.3025 C29.7279493,11.1375 29.5353595,11.055 29.3154493,11.055 L25.6854493,11.055 C25.4654493,11.055 25.2729493,11.1375 25.1079493,11.3025 C24.9429493,11.4675 24.8604493,11.66 24.8604493,11.88 L24.4204493,16.06 C23.907116,16.17 23.4212827,16.3258333 22.9629493,16.5275 C22.504616,16.7291667 22.037116,16.9583333 21.5604493,17.215 L18.3153595,14.575 C18.1686928,14.4283333 17.9853595,14.355 17.7653595,14.355 C17.5453595,14.355 17.3436928,14.4466667 17.1603595,14.63 L14.6303595,17.16 C14.2636928,17.5266667 14.2453595,17.9116667 14.5753595,18.315 L17.2153595,21.56 C16.9586928,22.0366667 16.7295261,22.5041667 16.5278595,22.9625 C16.3261928,23.4208333 16.1703595,23.9066667 16.0603595,24.42 L11.8803595,24.86 C11.6603595,24.86 11.4678595,24.9425 11.3028595,25.1075 C11.1378595,25.2725 11.0553595,25.465 11.0553595,25.685 L11.0553595,29.315 C11.0553595,29.5347304 11.1378595,29.7275 11.3028595,29.8925 C11.4678595,30.0575 11.6603595,30.14 11.8803595,30.14 L16.0603595,30.58 C16.1703595,31.0934232 16.3261928,31.5789869 16.5278595,32.0375899 C16.7295261,32.4959232 16.9586928,32.9634232 17.2153595,33.4399101 L14.5753595,36.6849101 C14.2453595,37.0882435 14.2636928,37.4731536 14.6303595,37.8399101 L17.1603595,40.3699101 C17.3436928,40.5532435 17.5453595,40.645 17.7653595,40.645 C17.9853595,40.645 18.1686928,40.5718464 18.3153595,40.4251797 L21.5603595,37.7851797 C22.0370261,38.0416667 22.5045261,38.2707435 22.9628595,38.4724101 C23.4211928,38.6740768 23.9070261,38.83 24.4203595,38.9399101 L24.8603595,43.1199101 C24.8603595,43.3399101 24.9428595,43.5325899 25.1078595,43.6976797 C25.2728595,43.8626797 25.4653595,43.9451797 25.6853595,43.9451797 L29.3153595,43.9451797 C29.5352696,43.9451797 29.7278595,43.8626797 29.8928595,43.6976797 C30.0578595,43.5325899 30.1403595,43.3400899 30.1403595,43.1199101 L30.5803595,38.9399101 C31.0936928,38.8299101 31.5792565,38.6740768 32.0378595,38.4724101 C32.4961928,38.2707435 32.9636928,38.0415768 33.4401797,37.7850899 L36.6851797,40.4251797 C36.8318464,40.5718464 37.0151797,40.645 37.2351797,40.645 C37.4551797,40.645 37.6565768,40.5532435 37.8399101,40.3699101 L40.3699101,37.8399101 C40.7365768,37.4732435 40.7549101,37.0884232 40.4249101,36.6849101 L37.7849101,33.4399101 C38.0413971,32.9632435 38.2704739,32.4957435 38.4721405,32.0375899 C38.6738072,31.5789869 38.8297304,31.0933333 38.9396405,30.58 L43.1196405,30.14 C43.3396405,30.14 43.5324101,30.0575 43.6974101,29.8925 C43.8624101,29.7275 43.9449101,29.5349101 43.9449101,29.315 L43.9449101,25.685 L43.945,25.685 Z" id="Shape"></path>
                    </g>
                </g>
            </g>
        </g>
    </g>
</svg>