<?xml version="1.0" encoding="UTF-8"?>
<svg width="75px" height="64px" viewBox="0 0 75 64" version="1.1" xmlns="http://www.w3.org/2000/svg" xmlns:xlink="http://www.w3.org/1999/xlink">
    <!-- Generator: Sketch 47.1 (45422) - http://www.bohemiancoding.com/sketch -->
    <title>elearning</title>
    <desc>Created with Sketch.</desc>
    <defs></defs>
    <g id="Blocklight-Website-Prototype" stroke="none" stroke-width="1" fill="none" fill-rule="evenodd">
        <g id="HOMEPAGE" transform="translate(-213.000000, -1402.000000)" fill-rule="nonzero">
            <g id="MEET-BLOCKLIGHT" transform="translate(0.000000, 495.000000)">
                <g id="icon-bkgd-copy" transform="translate(133.000000, 858.000000)">
                    <g id="Rectangle">
                        <g id="elearning" transform="translate(80.000000, 49.000000)">
                            <path d="M26.3653484,3.77365948 L25.0838162,0 C18.3839999,2.3044118 12.6648903,7.1810723 9.2908879,13.4385131 L6.12052731,12.401051 L8.68621279,21.6572505 L16.1709575,15.6901692 L13.1348796,14.6965349 C16.0755886,9.62061998 20.8311295,5.67692466 26.3653484,3.77365948 Z" id="Shape" fill="#FF8900"></path>
                            <g id="Group" transform="translate(12.711864, 39.077213)">
                                <path d="M33.570751,17.2693476 L34.7472066,21.0197474 C41.4953724,18.9322833 47.3345777,14.2852574 50.8709894,8.21514231 L54.0066613,9.32263351 L51.6972255,0.138911097 L44.0664664,5.81168052 L47.0690953,6.87220179 C43.9972276,11.790654 39.1448764,15.5450512 33.570751,17.2693476 Z" id="Shape" fill="#FFD200"></path>
                                <rect id="Rectangle-path" fill="#FF8900" x="0.0382423568" y="13.9830508" width="11.2062182" height="6.60177486"></rect>
                            </g>
                            <path d="M36.252354,30.52314 L36.252354,51.3967633 C36.252354,52.389192 35.4294276,53.2015066 34.424034,53.2015066 L1.82832001,53.2015066 C0.82292647,53.2015066 0,52.389192 0,51.3967633 L0,30.52314 C0,29.5307113 0.82292647,28.7193974 1.82832001,28.7193974 L34.424034,28.7193974 C35.4292248,28.7193974 36.252354,29.5309115 36.252354,30.52314 Z" id="Shape" fill="#FFD200"></path>
                            <path d="M36.252354,30.5300775 L36.252354,51.4839839 C36.252354,52.4802297 35.4401104,53.2956685 34.4477684,53.2956685 L18.3615819,53.2956685 L18.3615819,28.7193974 L34.4477684,28.7193974 C35.4401104,28.7193974 36.252354,29.5340327 36.252354,30.5300775 Z" id="Shape" fill="#FF8900"></path>
                            <rect id="Rectangle-path" fill="#FFFFFF" x="2.35404896" y="31.0734463" width="31.5442561" height="20.2448211"></rect>
                            <rect id="Rectangle-path" fill="#FFFFFF" x="18.3615819" y="31.0734463" width="15.5367232" height="20.2448211"></rect>
                            <rect id="Rectangle-path" fill="#FF8900" x="8.94538606" y="59.6186234" width="18.3615819" height="3.76647834"></rect>
                            <rect id="Rectangle-path" fill="#FF8900" x="18.3615819" y="59.6186234" width="9.41619586" height="3.76647834"></rect>
                            <rect id="Rectangle-path" fill="#FF8900" x="38.1355932" y="3.76647834" width="36.7231638" height="24.0112994"></rect>
                            <rect id="Rectangle-path" fill="#FF8900" x="56.4971751" y="3.76647834" width="18.3615819" height="24.0112994"></rect>
                            <rect id="Rectangle-path" fill="#FF8900" x="40.0188324" y="22.5988701" width="32.9566855" height="2.82485876"></rect>
                            <rect id="Rectangle-path" fill="#FF8900" x="56.4971751" y="22.5988701" width="16.4783427" height="2.82485876"></rect>
                            <path d="M61.1121515,0.942846193 C58.5738332,0.942846193 56.4971751,0.800015817 56.4971751,3.59689057 C56.4971751,0.800015817 54.4205171,0.942846193 51.8821988,0.942846193 L40.0188324,0.942846193 L40.0188324,22.9637143 L53.096292,22.9637143 C56.4250407,22.9637143 56.4971751,25.4237288 56.4971751,25.4237288 C56.4971751,25.4237288 56.4998167,22.9637143 59.8980583,22.9637143 L72.9755179,22.9637143 L72.9755179,0.942846193 L61.1121515,0.942846193 Z" id="Shape" fill="#FFD200"></path>
                            <path d="M61.1128829,0.942850948 C58.5747211,0.942850948 56.4981911,0.799817427 56.4981911,3.59689481 C56.4981911,3.5828759 56.4973783,3.56987286 56.4971751,3.55605712 L56.4971751,25.406256 C56.4977847,25.4166178 56.4981911,25.4237288 56.4981911,25.4237288 C56.4981911,25.4237288 56.5008324,22.9637148 59.8988646,22.9637148 L72.9755179,22.9637148 L72.9755179,0.942850948 L61.1128829,0.942850948 Z" id="Shape" fill="#FFD200"></path>
                            <g id="Group" transform="translate(42.372881, 4.708098)" fill="#FF8900">
                                <rect id="Rectangle-path" x="0.101742794" y="0.00399865851" width="11.5208752" height="1.82198875"></rect>
                                <rect id="Rectangle-path" x="0.101742794" y="4.25457266" width="11.5208752" height="1.82198875"></rect>
                                <rect id="Rectangle-path" x="0.101742794" y="8.50514666" width="11.5208752" height="1.82198875"></rect>
                                <rect id="Rectangle-path" x="0.101742794" y="12.75772" width="11.5208752" height="1.82198875"></rect>
                            </g>
                            <g id="Group" transform="translate(58.380414, 4.708098)" fill="#FF8900">
                                <rect id="Rectangle-path" x="0.087778097" y="0.00399865851" width="11.5208752" height="1.82198875"></rect>
                                <rect id="Rectangle-path" x="0.087778097" y="4.25457266" width="11.5208752" height="1.82198875"></rect>
                                <rect id="Rectangle-path" x="0.087778097" y="8.50514666" width="11.5208752" height="1.82198875"></rect>
                                <rect id="Rectangle-path" x="0.087778097" y="12.75772" width="11.5208752" height="1.82198875"></rect>
                            </g>
                        </g>
                    </g>
                </g>
            </g>
        </g>
    </g>
</svg>