<?xml version="1.0" encoding="UTF-8" standalone="no"?>
<svg width="75px" height="75px" viewBox="0 0 75 75" version="1.1" xmlns="http://www.w3.org/2000/svg" xmlns:xlink="http://www.w3.org/1999/xlink">
    <!-- Generator: sketchtool 47.1 (45422) - http://www.bohemiancoding.com/sketch -->
    <title>722FB0DA-F9F9-4F5F-B31B-9B08ADB7FD1D</title>
    <desc>Created with sketchtool.</desc>
    <defs></defs>
    <g id="Blocklight-Website-Prototype" stroke="none" stroke-width="1" fill="none" fill-rule="evenodd">
        <g id="HOMEPAGE" transform="translate(-77.000000, -2692.000000)" fill-rule="nonzero">
            <g id="HOW-DOES-IT-WORK?" transform="translate(0.000000, 1824.000000)">
                <g id="customization" transform="translate(61.000000, 868.000000)">
                    <g transform="translate(16.000000, 0.000000)" id="Shape">
                        <path d="M64.3066406,63.7193848 C57.4075195,70.772168 47.7498047,75.1152832 37.0772461,74.9976562 C16.5708984,74.7716309 -0.0354492188,57.9413086 3.38813179e-20,37.4337891 C0.0358886719,16.7535645 16.8114258,0 37.5,0 C48.3168457,0 58.0630371,4.58056641 64.9072266,11.9069824 C65.0453613,12.0547852 65.034375,12.2844727 64.8902344,12.4262695 C64.5300293,12.7804687 64.3066406,13.2732422 64.3066406,13.818457 L64.3066406,63.7193848 Z" fill="#FFD200"></path>
                        <path d="M14.6484375,22.1191406 L8.49609375,22.1191406 C6.87802734,22.1191406 5.56640625,20.8075195 5.56640625,19.1894531 L5.56640625,14.7949219 C5.56640625,13.1768555 6.87802734,11.8652344 8.49609375,11.8652344 L14.6484375,11.8652344 C16.2665039,11.8652344 17.578125,13.1768555 17.578125,14.7949219 L17.578125,19.1894531 C17.578125,20.8075195 16.2665039,22.1191406 14.6484375,22.1191406 Z" fill="#FFFFFF"></path>
                        <path d="M11.7087891,22.1191406 C10.1689453,22.1191406 8.92060547,20.8075195 8.92060547,19.1894531 L8.92060547,14.7949219 C8.92060547,13.1768555 10.1689453,11.8652344 11.7087891,11.8652344 L32.8989258,11.8652344 L64.8666504,11.8652344 C66.9152344,14.0513672 68.7055664,16.4822754 70.1878418,19.1103516 C70.9463379,20.4550781 69.9763184,22.1191406 68.4325195,22.1191406 L11.7087891,22.1191406 Z" fill="#FFFFFF"></path>
                        <path d="M11.4257812,15.6738281 C11.4257812,16.4828613 10.7699707,17.1386719 9.9609375,17.1386719 C9.1519043,17.1386719 8.49609375,16.4828613 8.49609375,15.6738281 C8.49609375,14.8647949 9.1519043,14.2089844 9.9609375,14.2089844 C10.7699707,14.2089844 11.4257812,14.8647949 11.4257812,15.6738281 Z M14.3554688,14.2089844 C13.5464355,14.2089844 12.890625,14.8647949 12.890625,15.6738281 C12.890625,16.4828613 13.5464355,17.1386719 14.3554688,17.1386719 C15.164502,17.1386719 15.8203125,16.4828613 15.8203125,15.6738281 C15.8203125,14.8647949 15.164502,14.2089844 14.3554688,14.2089844 Z M18.75,14.2089844 C17.9409668,14.2089844 17.2851562,14.8647949 17.2851562,15.6738281 C17.2851562,16.4828613 17.9409668,17.1386719 18.75,17.1386719 C19.5590332,17.1386719 20.2148438,16.4828613 20.2148438,15.6738281 C20.2148438,14.8647949 19.5590332,14.2089844 18.75,14.2089844 Z" fill="#EF7C15"></path>
                        <path d="M70.2303223,19.1894531 C73.2665039,24.605127 75,30.8496094 75,37.5 C75,47.4147949 71.1503906,56.4291504 64.8666504,63.1347656 L39.5507812,63.1347656 L10.1333496,63.1347656 C8.42050781,61.3069336 6.8887207,59.3078613 5.56640625,57.1652344 L5.56640625,19.1894531 L70.2303223,19.1894531 Z" fill="#EF7C15"></path>
                        <path d="M67.3828125,38.8183594 L67.3828125,40.2832031 C67.3828125,40.6876465 67.054834,41.015625 66.6503906,41.015625 L28.5644531,41.015625 C28.1600098,41.015625 27.8320312,40.6876465 27.8320312,40.2832031 L27.8320312,38.8183594 C27.8320312,38.413916 28.1600098,38.0859375 28.5644531,38.0859375 L66.6503906,38.0859375 C67.054834,38.0859375 67.3828125,38.413916 67.3828125,38.8183594 Z M66.6503906,45.4101562 L28.5644531,45.4101562 C28.1600098,45.4101562 27.8320312,45.7381348 27.8320312,46.1425781 L27.8320312,47.6074219 C27.8320312,48.0118652 28.1600098,48.3398438 28.5644531,48.3398438 L66.6503906,48.3398438 C67.054834,48.3398438 67.3828125,48.0118652 67.3828125,47.6074219 L67.3828125,46.1425781 C67.3828125,45.7381348 67.054834,45.4101562 66.6503906,45.4101562 Z M66.6503906,30.7617188 L28.5644531,30.7617188 C28.1600098,30.7617188 27.8320312,31.0896973 27.8320312,31.4941406 L27.8320312,32.9589844 C27.8320312,33.3634277 28.1600098,33.6914062 28.5644531,33.6914062 L66.6503906,33.6914062 C67.054834,33.6914062 67.3828125,33.3634277 67.3828125,32.9589844 L67.3828125,31.4941406 C67.3828125,31.0896973 67.054834,30.7617188 66.6503906,30.7617188 Z M66.6503906,23.4375 L28.5644531,23.4375 C28.1600098,23.4375 27.8320312,23.7654785 27.8320312,24.1699219 L27.8320312,25.6347656 C27.8320312,26.039209 28.1600098,26.3671875 28.5644531,26.3671875 L66.6503906,26.3671875 C67.054834,26.3671875 67.3828125,26.039209 67.3828125,25.6347656 L67.3828125,24.1699219 C67.3828125,23.7654785 67.054834,23.4375 66.6503906,23.4375 Z M66.6503906,52.734375 L28.5644531,52.734375 C28.1600098,52.734375 27.8320312,53.0623535 27.8320312,53.4667969 L27.8320312,54.9316406 C27.8320312,55.336084 28.1600098,55.6640625 28.5644531,55.6640625 L66.6503906,55.6640625 C67.054834,55.6640625 67.3828125,55.336084 67.3828125,54.9316406 L67.3828125,53.4667969 C67.3828125,53.0623535 67.054834,52.734375 66.6503906,52.734375 Z" fill="#FFD200"></path>
                        <path d="M32.5927734,53.4667969 L32.5927734,54.9316406 C32.5927734,55.336084 32.2647949,55.6640625 31.8603516,55.6640625 L28.5644531,55.6640625 C28.1600098,55.6640625 27.8320312,55.336084 27.8320312,54.9316406 L27.8320312,53.4667969 C27.8320312,53.0623535 28.1600098,52.734375 28.5644531,52.734375 L31.8603516,52.734375 C32.2647949,52.734375 32.5927734,53.0623535 32.5927734,53.4667969 Z M28.5644531,41.015625 L34.4238281,41.015625 C34.8282715,41.015625 35.15625,40.6876465 35.15625,40.2832031 L35.15625,38.8183594 C35.15625,38.413916 34.8282715,38.0859375 34.4238281,38.0859375 L28.5644531,38.0859375 C28.1600098,38.0859375 27.8320312,38.413916 27.8320312,38.8183594 L27.8320312,40.2832031 C27.8320312,40.6876465 28.1600098,41.015625 28.5644531,41.015625 Z M50.5371094,23.4375 L28.5644531,23.4375 C28.1600098,23.4375 27.8320312,23.7654785 27.8320312,24.1699219 L27.8320312,25.6347656 C27.8320312,26.039209 28.1600098,26.3671875 28.5644531,26.3671875 L50.5371094,26.3671875 C50.9415527,26.3671875 51.2695312,26.039209 51.2695312,25.6347656 L51.2695312,24.1699219 C51.2695312,23.7654785 50.9415527,23.4375 50.5371094,23.4375 Z M40.2832031,45.4101562 L28.5644531,45.4101562 C28.1600098,45.4101562 27.8320312,45.7381348 27.8320312,46.1425781 L27.8320312,47.6074219 C27.8320312,48.0118652 28.1600098,48.3398438 28.5644531,48.3398438 L40.2832031,48.3398438 C40.6876465,48.3398438 41.015625,48.0118652 41.015625,47.6074219 L41.015625,46.1425781 C41.015625,45.7381348 40.6876465,45.4101562 40.2832031,45.4101562 Z M44.6777344,30.7617188 L28.5644531,30.7617188 C28.1600098,30.7617188 27.8320312,31.0896973 27.8320312,31.4941406 L27.8320312,32.9589844 C27.8320312,33.3634277 28.1600098,33.6914062 28.5644531,33.6914062 L44.6777344,33.6914062 C45.0821777,33.6914062 45.4101562,33.3634277 45.4101562,32.9589844 L45.4101562,31.4941406 C45.4101562,31.0896973 45.0821777,30.7617188 44.6777344,30.7617188 Z" fill="#FFD200"></path>
                        <path d="M24.609375,63.1894531 L7.03125,63.1894531 C6.2222168,63.1894531 5.56640625,62.5179031 5.56640625,61.6894531 L5.56640625,30.1894531 L5.56640625,18.1894531 L24.609375,18.1894531 L24.609375,63.1894531 Z" fill="#FFFFFF"></path>
                        <path d="M10.397168,63.1347656 L7.03125,63.1347656 C6.2222168,63.1347656 5.56640625,62.4789551 5.56640625,61.6699219 L5.56640625,30.9082031 L5.56640625,19.1894531 L8.93232422,19.1894531 L8.93232422,30.9082031 L8.93232422,61.6699219 C8.93232422,62.4789551 9.58813477,63.1347656 10.397168,63.1347656 Z" fill="#FFFFFF"></path>
                        <path d="M20.9472656,26.5136719 L9.22851562,26.5136719 C8.82407227,26.5136719 8.49609375,26.1856934 8.49609375,25.78125 L8.49609375,24.3164062 C8.49609375,23.9119629 8.82407227,23.5839844 9.22851562,23.5839844 L20.9472656,23.5839844 C21.351709,23.5839844 21.6796875,23.9119629 21.6796875,24.3164062 L21.6796875,25.78125 C21.6796875,26.1856934 21.351709,26.5136719 20.9472656,26.5136719 Z" fill="#EF7C15"></path>
                        <path d="M51.2695312,22.7050781 L51.2695312,27.0996094 C51.2695312,27.5040527 50.9415527,27.8320312 50.5371094,27.8320312 L49.0722656,27.8320312 C48.6678223,27.8320312 48.3398438,27.5040527 48.3398438,27.0996094 L48.3398438,22.7050781 C48.3398438,22.3006348 48.6678223,21.9726562 49.0722656,21.9726562 L50.5371094,21.9726562 C50.9415527,21.9726562 51.2695312,22.3006348 51.2695312,22.7050781 Z M44.6777344,29.296875 L43.2128906,29.296875 C42.8084473,29.296875 42.4804688,29.6248535 42.4804688,30.0292969 L42.4804688,34.4238281 C42.4804688,34.8282715 42.8084473,35.15625 43.2128906,35.15625 L44.6777344,35.15625 C45.0821777,35.15625 45.4101562,34.8282715 45.4101562,34.4238281 L45.4101562,30.0292969 C45.4101562,29.6248535 45.0821777,29.296875 44.6777344,29.296875 Z M34.4238281,36.6210938 L32.9589844,36.6210938 C32.554541,36.6210938 32.2265625,36.9490723 32.2265625,37.3535156 L32.2265625,41.7480469 C32.2265625,42.1524902 32.554541,42.4804688 32.9589844,42.4804688 L34.4238281,42.4804688 C34.8282715,42.4804688 35.15625,42.1524902 35.15625,41.7480469 L35.15625,37.3535156 C35.15625,36.9490723 34.8282715,36.6210938 34.4238281,36.6210938 Z M31.4941406,51.2695312 L30.0292969,51.2695312 C29.6248535,51.2695312 29.296875,51.5975098 29.296875,52.0019531 L29.296875,56.3964844 C29.296875,56.8009277 29.6248535,57.1289062 30.0292969,57.1289062 L31.4941406,57.1289062 C31.898584,57.1289062 32.2265625,56.8009277 32.2265625,56.3964844 L32.2265625,52.0019531 C32.2265625,51.5975098 31.898584,51.2695312 31.4941406,51.2695312 Z M40.2832031,43.9453125 L38.8183594,43.9453125 C38.413916,43.9453125 38.0859375,44.273291 38.0859375,44.6777344 L38.0859375,49.0722656 C38.0859375,49.476709 38.413916,49.8046875 38.8183594,49.8046875 L40.2832031,49.8046875 C40.6876465,49.8046875 41.015625,49.476709 41.015625,49.0722656 L41.015625,44.6777344 C41.015625,44.273291 40.6876465,43.9453125 40.2832031,43.9453125 Z" fill="#FFFFFF"></path>
                        <path d="M52.734375,22.7050781 L52.734375,27.0996094 C52.734375,27.5040527 52.4063965,27.8320312 52.0019531,27.8320312 L50.5371094,27.8320312 C50.132666,27.8320312 49.8046875,27.5040527 49.8046875,27.0996094 L49.8046875,22.7050781 C49.8046875,22.3006348 50.132666,21.9726562 50.5371094,21.9726562 L52.0019531,21.9726562 C52.4063965,21.9726562 52.734375,22.3006348 52.734375,22.7050781 Z M46.1425781,29.296875 L44.6777344,29.296875 C44.273291,29.296875 43.9453125,29.6248535 43.9453125,30.0292969 L43.9453125,34.4238281 C43.9453125,34.8282715 44.273291,35.15625 44.6777344,35.15625 L46.1425781,35.15625 C46.5470215,35.15625 46.875,34.8282715 46.875,34.4238281 L46.875,30.0292969 C46.875,29.6248535 46.5470215,29.296875 46.1425781,29.296875 Z M35.8886719,36.6210938 L34.4238281,36.6210938 C34.0193848,36.6210938 33.6914062,36.9490723 33.6914062,37.3535156 L33.6914062,41.7480469 C33.6914062,42.1524902 34.0193848,42.4804688 34.4238281,42.4804688 L35.8886719,42.4804688 C36.2931152,42.4804688 36.6210938,42.1524902 36.6210938,41.7480469 L36.6210938,37.3535156 C36.6210938,36.9490723 36.2931152,36.6210938 35.8886719,36.6210938 Z M32.9589844,51.2695312 L31.4941406,51.2695312 C31.0896973,51.2695312 30.7617188,51.5975098 30.7617188,52.0019531 L30.7617188,56.3964844 C30.7617188,56.8009277 31.0896973,57.1289062 31.4941406,57.1289062 L32.9589844,57.1289062 C33.3634277,57.1289062 33.6914062,56.8009277 33.6914062,56.3964844 L33.6914062,52.0019531 C33.6914062,51.5975098 33.3634277,51.2695312 32.9589844,51.2695312 Z M41.7480469,43.9453125 L40.2832031,43.9453125 C39.8787598,43.9453125 39.5507812,44.273291 39.5507812,44.6777344 L39.5507812,49.0722656 C39.5507812,49.476709 39.8787598,49.8046875 40.2832031,49.8046875 L41.7480469,49.8046875 C42.1524902,49.8046875 42.4804688,49.476709 42.4804688,49.0722656 L42.4804688,44.6777344 C42.4804688,44.273291 42.1524902,43.9453125 41.7480469,43.9453125 Z" fill="#FFFFFF"></path>
                        <path d="M21.6796875,41.8945312 L21.6796875,43.359375 C21.6796875,43.7638184 21.351709,44.0917969 20.9472656,44.0917969 L9.22851562,44.0917969 C8.82407227,44.0917969 8.49609375,43.7638184 8.49609375,43.359375 L8.49609375,41.8945312 C8.49609375,41.4900879 8.82407227,41.1621094 9.22851562,41.1621094 L20.9472656,41.1621094 C21.351709,41.1621094 21.6796875,41.4900879 21.6796875,41.8945312 Z M20.9472656,52.8808594 L9.22851562,52.8808594 C8.82407227,52.8808594 8.49609375,53.2088379 8.49609375,53.6132812 L8.49609375,55.078125 C8.49609375,55.4825684 8.82407227,55.8105469 9.22851562,55.8105469 L20.9472656,55.8105469 C21.351709,55.8105469 21.6796875,55.4825684 21.6796875,55.078125 L21.6796875,53.6132812 C21.6796875,53.2088379 21.351709,52.8808594 20.9472656,52.8808594 Z M9.22851562,38.2324219 L19.4824219,38.2324219 C19.8868652,38.2324219 20.2148438,37.9044434 20.2148438,37.5 L20.2148438,36.0351562 C20.2148438,35.6307129 19.8868652,35.3027344 19.4824219,35.3027344 L9.22851562,35.3027344 C8.82407227,35.3027344 8.49609375,35.6307129 8.49609375,36.0351562 L8.49609375,37.5 C8.49609375,37.9044434 8.82407227,38.2324219 9.22851562,38.2324219 Z M9.22851562,32.3730469 L18.0175781,32.3730469 C18.4220215,32.3730469 18.75,32.0450684 18.75,31.640625 L18.75,30.1757812 C18.75,29.7713379 18.4220215,29.4433594 18.0175781,29.4433594 L9.22851562,29.4433594 C8.82407227,29.4433594 8.49609375,29.7713379 8.49609375,30.1757812 L8.49609375,31.640625 C8.49609375,32.0450684 8.82407227,32.3730469 9.22851562,32.3730469 Z M9.22851562,49.9511719 L18.0175781,49.9511719 C18.4220215,49.9511719 18.75,49.6231934 18.75,49.21875 L18.75,47.7539062 C18.75,47.3494629 18.4220215,47.0214844 18.0175781,47.0214844 L9.22851562,47.0214844 C8.82407227,47.0214844 8.49609375,47.3494629 8.49609375,47.7539062 L8.49609375,49.21875 C8.49609375,49.6231934 8.82407227,49.9511719 9.22851562,49.9511719 Z" fill="#EF7C15"></path>
                        <path d="M65.1038086,34.9289062 L65.1038086,47.7588867 C65.1038086,48.7527832 64.443457,49.5915527 63.5378906,49.8629883 L63.5378906,61.5234375 L51.0109863,61.5234375 L51.0109863,50.8395996 C51.0109863,50.2375488 50.5229004,49.7494629 49.9208496,49.7494629 L49.9208496,49.7472656 C49.0445801,49.734082 48.2241211,49.195752 47.8967285,48.3257812 L45.0314941,40.7148926 C44.6039063,39.5791992 45.1779785,38.3118164 46.3138184,37.8842285 L46.5974121,37.7774414 C47.7331055,37.35 49.0004883,37.9240723 49.4279297,39.0597656 L50.4439453,41.7587402 C50.5587891,42.0638672 51.0111328,41.981543 51.0111328,41.6554688 L51.0111328,27.0996094 C51.0111328,25.8861328 51.9949219,24.9023438 53.2083984,24.9023438 L53.5114746,24.9023438 C54.7249512,24.9023438 55.7087402,25.8861328 55.7087402,27.0996094 L55.7087402,32.7316406 L62.9066895,32.7316406 C64.1200195,32.7316406 65.1038086,33.7154297 65.1038086,34.9289062 Z" fill="#FFFFFF"></path>
                        <path d="M50.9431641,41.9450684 L50.760498,41.9450684 L50.7606445,41.9447754 C50.892041,41.9251465 51.0109863,41.8226074 51.0109863,41.6554687 L51.0109863,27.0996094 C51.0109863,25.8861328 51.9947754,24.9023438 53.208252,24.9023438 L53.306543,24.9023438 C53.2860352,25.0227539 53.2744629,25.1460937 53.2744629,25.2723633 L53.2744629,39.6137695 C53.2744629,40.8864258 52.2546387,41.9208984 50.9875488,41.9446289 C50.9727539,41.9449219 50.957959,41.9450684 50.9431641,41.9450684 Z M53.2899902,60.0585938 L53.2899902,49.3747559 C53.2899902,48.7727051 52.8019043,48.2846191 52.1998535,48.2846191 L52.1998535,48.2824219 C51.323584,48.2692383 50.503125,47.7309082 50.1757324,46.8609375 L47.310498,39.2500488 C47.1061523,38.7074707 47.132666,38.1357422 47.3377441,37.6390137 C47.0912109,37.6428223 46.8413086,37.6857422 46.5974121,37.7775879 L46.3138184,37.884375 C45.178125,38.3119629 44.6039063,39.5791992 45.0314941,40.7150391 L47.8967285,48.3259277 C48.2242676,49.195752 49.0445801,49.7342285 49.9208496,49.7474121 L49.9208496,49.7496094 C50.5229004,49.7496094 51.0109863,50.2376953 51.0109863,50.8397461 L51.0109863,61.5234375 L63.5378906,61.5234375 L63.5378906,60.0585938 L53.2899902,60.0585938 Z" fill="#FFFFFF"></path>
                        <path d="M48.3492188,73.4039063 C48.3433594,73.3507324 48.3398438,73.2968262 48.3398438,73.2421875 L48.3398438,55.6640625 C48.3398438,54.8550293 48.9956543,54.1992188 49.8046875,54.1992188 L64.453125,54.1992188 C65.2621582,54.1992188 65.9179688,54.8550293 65.9179688,55.6640625 L65.9179688,61.9671387 C61.3248047,67.2971191 55.2574219,71.3192871 48.3492188,73.4039063 Z" fill="#FFD200"></path>
                        <path d="M51.2695312,72.3909668 L51.2695312,55.6640625 C51.2695312,54.8550293 51.9253418,54.1992188 52.734375,54.1992188 L64.453125,54.1992188 C65.2621582,54.1992188 65.9179688,54.8550293 65.9179688,55.6640625 L65.9179688,61.9671387 C61.9836914,66.5324707 56.9687988,70.1399414 51.2695312,72.3909668 Z" fill="#FFD200"></path>
                        <path d="M52.734375,58.59375 C52.734375,59.4027832 52.0785645,60.0585938 51.2695312,60.0585938 C50.460498,60.0585938 49.8046875,59.4027832 49.8046875,58.59375 C49.8046875,57.7847168 50.460498,57.1289062 51.2695312,57.1289062 C52.0785645,57.1289062 52.734375,57.7847168 52.734375,58.59375 Z" fill="#FFFFFF"></path>
                    </g>
                </g>
            </g>
        </g>
    </g>
</svg>