<?xml version="1.0" encoding="UTF-8" standalone="no"?>
<svg width="21px" height="16px" viewBox="0 0 21 16" version="1.1" xmlns="http://www.w3.org/2000/svg" xmlns:xlink="http://www.w3.org/1999/xlink">
    <!-- Generator: Sketch 47.1 (45422) - http://www.bohemiancoding.com/sketch -->
    <title>tachometer-alt</title>
    <desc>Created with Sketch.</desc>
    <defs></defs>
    <g id="BLOCKLIGHT-PROTOTYPE" stroke="none" stroke-width="1" fill="none" fill-rule="evenodd">
        <g id="Landing-Page-#1" transform="translate(-453.000000, -34.000000)" fill-rule="nonzero" fill="#FFFFFF">
            <g id="MENU">
                <g id="tachometer-alt" transform="translate(453.000000, 34.000000)">
                    <path d="M2.66330741,16 C2.03721406,15.9999797 1.46246074,15.6485374 1.16976667,15.08675 C0.423031481,13.6535714 0,12.0198571 0,10.2857143 C0,4.60507143 4.53684815,0 10.1333333,0 C15.7298185,0 20.2666667,4.60507143 20.2666667,10.2857143 C20.2666667,12.0198571 19.8436352,13.6535714 19.0969,15.08675 C18.8042178,15.6485487 18.229457,15.9999957 17.6033593,16 L2.66330741,16 Z M18.0148148,9.14285714 C17.392987,9.14285714 16.8888889,9.65453571 16.8888889,10.2857143 C16.8888889,10.9168929 17.392987,11.4285714 18.0148148,11.4285714 C18.6366426,11.4285714 19.1407407,10.9168929 19.1407407,10.2857143 C19.1407407,9.65453571 18.6366426,9.14285714 18.0148148,9.14285714 Z M10.1333333,3.42857143 C10.7551611,3.42857143 11.2592593,2.91689286 11.2592593,2.28571429 C11.2592593,1.65453571 10.7551611,1.14285714 10.1333333,1.14285714 C9.51150556,1.14285714 9.00740741,1.65453571 9.00740741,2.28571429 C9.00740741,2.91689286 9.51150556,3.42857143 10.1333333,3.42857143 Z M2.25185185,9.14285714 C1.63002407,9.14285714 1.12592593,9.65453571 1.12592593,10.2857143 C1.12592593,10.9168929 1.63002407,11.4285714 2.25185185,11.4285714 C2.87367963,11.4285714 3.37777778,10.9168929 3.37777778,10.2857143 C3.37777778,9.65453571 2.87367963,9.14285714 2.25185185,9.14285714 Z M4.56028148,3.486 C3.9384537,3.486 3.43435556,3.99767857 3.43435556,4.62885714 C3.43435556,5.26003571 3.9384537,5.77171429 4.56028148,5.77171429 C5.18210926,5.77171429 5.68620741,5.26003571 5.68620741,4.62885714 C5.68620741,3.99767857 5.18210926,3.486 4.56028148,3.486 Z M15.7063852,3.486 C15.0845574,3.486 14.5804593,3.99767857 14.5804593,4.62885714 C14.5804593,5.26003571 15.0845574,5.77171429 15.7063852,5.77171429 C16.328213,5.77171429 16.8323111,5.26003571 16.8323111,4.62885714 C16.8323111,3.99767857 16.328213,3.486 15.7063852,3.486 Z M12.6425296,4.61221429 C12.1982463,4.46792857 11.7230352,4.7165 11.580887,5.16735714 L9.96507778,10.29275 C8.8000963,10.3801786 7.88148148,11.3665714 7.88148148,12.5714286 C7.88148148,13.8337857 8.88967778,14.8571429 10.1333333,14.8571429 C11.3769889,14.8571429 12.3851852,13.8337857 12.3851852,12.5714286 C12.3851852,11.86525 12.0695389,11.2340357 11.5737796,10.81475 L13.1894481,5.68982143 C13.3315611,5.23892857 13.0867074,4.7565 12.6425296,4.61221429 L12.6425296,4.61221429 Z" id="Shape"></path>
                </g>
            </g>
        </g>
    </g>
</svg>