<?xml version="1.0" encoding="UTF-8" standalone="no"?>
<svg width="75px" height="80px" viewBox="0 0 75 80" version="1.1" xmlns="http://www.w3.org/2000/svg" xmlns:xlink="http://www.w3.org/1999/xlink">
    <!-- Generator: Sketch 47.1 (45422) - http://www.bohemiancoding.com/sketch -->
    <title>documentation</title>
    <desc>Created with Sketch.</desc>
    <defs></defs>
    <g id="#7--High-Fidelity-Screens-Copy" stroke="none" stroke-width="1" fill="none" fill-rule="evenodd">
        <g id="Landing-Page-#1" transform="translate(-702.000000, -3895.000000)" fill-rule="nonzero">
            <g id="HOW-DOES-IT-WORK?" transform="translate(0.000000, 2080.000000)">
                <g id="documentation" transform="translate(702.000000, 1815.000000)">
                    <path d="M62.5,0 L7.5,0 C6.121875,0 5,1.12125 5,2.5 L5,72.5 C5,73.878125 6.121875,75 7.5,75 L62.5,75 C63.878125,75 65,73.878125 65,72.5 L65,2.5 C65,1.12125 63.878125,0 62.5,0 Z" id="Shape" fill="#777777"></path>
                    <path d="M57.5,5 L2.5,5 C1.121875,5 0,6.12125 0,7.5 L0,77.5 C0,78.878125 1.121875,80 2.5,80 L57.5,80 C58.878125,80 60,78.878125 60,77.5 L60,7.5 C60,6.12125 58.878125,5 57.5,5 Z" id="Shape" fill="#FFFFFF"></path>
                    <g id="Group" transform="translate(7.500000, 16.250000)" fill="#000000">
                        <path d="M41.25,2.5 L1.25,2.5 C0.5590625,2.5 0,1.9403125 0,1.25 C0,0.5596875 0.5590625,0 1.25,0 L41.25,0 C41.9409375,0 42.5,0.5596875 42.5,1.25 C42.5,1.9403125 41.9409375,2.5 41.25,2.5 Z" id="Shape"></path>
                        <path d="M41.25,17.5 L1.25,17.5 C0.5590625,17.5 0,16.9409375 0,16.25 C0,15.5590625 0.5590625,15 1.25,15 L41.25,15 C41.9409375,15 42.5,15.5590625 42.5,16.25 C42.5,16.9409375 41.9409375,17.5 41.25,17.5 Z" id="Shape"></path>
                        <path d="M41.25,52.5 L1.25,52.5 C0.5590625,52.5 0,51.9409375 0,51.25 C0,50.5590625 0.5590625,50 1.25,50 L41.25,50 C41.9409375,50 42.5,50.5590625 42.5,51.25 C42.5,51.9409375 41.9409375,52.5 41.25,52.5 Z" id="Shape"></path>
                        <path d="M41.25,32.5 L1.25,32.5 C0.5590625,32.5 0,31.9409375 0,31.25 C0,30.5590625 0.5590625,30 1.25,30 L41.25,30 C41.9409375,30 42.5,30.5590625 42.5,31.25 C42.5,31.9409375 41.9409375,32.5 41.25,32.5 Z" id="Shape"></path>
                        <path d="M11.25,7.5 L1.25,7.5 C0.5590625,7.5 0,6.9403125 0,6.25 C0,5.5596875 0.5590625,5 1.25,5 L11.25,5 C11.9409375,5 12.5,5.5596875 12.5,6.25 C12.5,6.9403125 11.9409375,7.5 11.25,7.5 Z" id="Shape"></path>
                        <path d="M41.25,7.5 L16.25,7.5 C15.5590625,7.5 15,6.9403125 15,6.25 C15,5.5596875 15.5590625,5 16.25,5 L41.25,5 C41.9409375,5 42.5,5.5596875 42.5,6.25 C42.5,6.9403125 41.9409375,7.5 41.25,7.5 Z" id="Shape"></path>
                        <path d="M31.25,12.5 L1.25,12.5 C0.5590625,12.5 0,11.9409375 0,11.25 C0,10.5590625 0.5590625,10 1.25,10 L31.25,10 C31.9409375,10 32.5,10.5590625 32.5,11.25 C32.5,11.9409375 31.9409375,12.5 31.25,12.5 Z" id="Shape"></path>
                        <path d="M41.25,12.5 L36.25,12.5 C35.5590625,12.5 35,11.9409375 35,11.25 C35,10.5590625 35.5590625,10 36.25,10 L41.25,10 C41.9409375,10 42.5,10.5590625 42.5,11.25 C42.5,11.9409375 41.9409375,12.5 41.25,12.5 Z" id="Shape"></path>
                        <path d="M41.25,47.5 L1.25,47.5 C0.5590625,47.5 0,46.9409375 0,46.25 C0,45.5590625 0.5590625,45 1.25,45 L41.25,45 C41.9409375,45 42.5,45.5590625 42.5,46.25 C42.5,46.9409375 41.9409375,47.5 41.25,47.5 Z" id="Shape"></path>
                        <path d="M11.25,37.5 L1.25,37.5 C0.5590625,37.5 0,36.9409375 0,36.25 C0,35.5590625 0.5590625,35 1.25,35 L11.25,35 C11.9409375,35 12.5,35.5590625 12.5,36.25 C12.5,36.9409375 11.9409375,37.5 11.25,37.5 Z" id="Shape"></path>
                        <path d="M41.25,37.5 L16.25,37.5 C15.5590625,37.5 15,36.9409375 15,36.25 C15,35.5590625 15.5590625,35 16.25,35 L41.25,35 C41.9409375,35 42.5,35.5590625 42.5,36.25 C42.5,36.9409375 41.9409375,37.5 41.25,37.5 Z" id="Shape"></path>
                        <path d="M31.25,42.5 L1.25,42.5 C0.5590625,42.5 0,41.9409375 0,41.25 C0,40.5590625 0.5590625,40 1.25,40 L31.25,40 C31.9409375,40 32.5,40.5590625 32.5,41.25 C32.5,41.9409375 31.9409375,42.5 31.25,42.5 Z" id="Shape"></path>
                        <path d="M41.25,42.5 L36.25,42.5 C35.5590625,42.5 35,41.9409375 35,41.25 C35,40.5590625 35.5590625,40 36.25,40 L41.25,40 C41.9409375,40 42.5,40.5590625 42.5,41.25 C42.5,41.9409375 41.9409375,42.5 41.25,42.5 Z" id="Shape"></path>
                        <path d="M17.5,22.5 L1.25,22.5 C0.5590625,22.5 0,21.9409375 0,21.25 C0,20.5590625 0.5590625,20 1.25,20 L17.5,20 C18.1909375,20 18.75,20.5590625 18.75,21.25 C18.75,21.9409375 18.1909375,22.5 17.5,22.5 Z" id="Shape"></path>
                        <path d="M41.25,22.5 L22.5,22.5 C21.8090625,22.5 21.25,21.9409375 21.25,21.25 C21.25,20.5590625 21.8090625,20 22.5,20 L41.25,20 C41.9409375,20 42.5,20.5590625 42.5,21.25 C42.5,21.9409375 41.9409375,22.5 41.25,22.5 Z" id="Shape"></path>
                        <path d="M27.5,27.5 L1.25,27.5 C0.5590625,27.5 0,26.9409375 0,26.25 C0,25.5590625 0.5590625,25 1.25,25 L27.5,25 C28.1909375,25 28.75,25.5590625 28.75,26.25 C28.75,26.9409375 28.1909375,27.5 27.5,27.5 Z" id="Shape"></path>
                        <path d="M41.25,27.5 L32.5,27.5 C31.8090625,27.5 31.25,26.9409375 31.25,26.25 C31.25,25.5590625 31.8090625,25 32.5,25 L41.25,25 C41.9409375,25 42.5,25.5590625 42.5,26.25 C42.5,26.9409375 41.9409375,27.5 41.25,27.5 Z" id="Shape"></path>
                    </g>
                    <g id="Group" transform="translate(67.500000, 23.750000)">
                        <path d="M0,46.25 L2.55265625,54.7590625 C2.90890625,55.946875 4.5909375,55.946875 4.9471875,54.7590625 L7.5,46.25 L0,46.25 Z" id="Shape" fill="#777777"></path>
                        <circle id="Oval" fill="#777777" cx="3.75" cy="3.75" r="3.75"></circle>
                        <polygon id="Rectangle-path" fill="#FFD200" points="0 3.75 3.1953125 3.75 7.5 3.75 7.5 46.25 0 46.25"></polygon>
                        <rect id="Rectangle-path" fill="#EF7C15" x="0" y="3.75" width="3.75" height="42.5"></rect>
                        <path d="M1.5,51.25 L2.55265625,54.7590625 C2.90890625,55.946875 4.5909375,55.946875 4.9471875,54.7590625 L6,51.25 L1.5,51.25 Z" id="Shape" fill="#000000"></path>
                    </g>
                </g>
            </g>
        </g>
    </g>
</svg>