<?xml version="1.0" encoding="UTF-8"?>
<svg width="120px" height="120px" viewBox="0 0 120 120" version="1.1" xmlns="http://www.w3.org/2000/svg" xmlns:xlink="http://www.w3.org/1999/xlink">
    <!-- Generator: Sketch 47.1 (45422) - http://www.bohemiancoding.com/sketch -->
    <title>facebook-square</title>
    <desc>Created with Sketch.</desc>
    <defs></defs>
    <g id="BAP-(Desktop)" stroke="none" stroke-width="1" fill="none" fill-rule="evenodd">
        <g id="Referral-Plan-News" transform="translate(-239.000000, -189.000000)" fill-rule="nonzero" fill="#3B5998">
            <g id="integrations-Moal" transform="translate(2.000000, 2.000000)">
                <g id="Group-7" transform="translate(224.000000, 187.000000)">
                    <g id="facebook-square" transform="translate(13.000000, 0.000000)">
                        <path d="M120,12.8571429 L120,107.142857 C120,114.241071 114.241071,120 107.142857,120 L84.2946429,120 L84.2946429,72.5357143 L100.526786,72.5357143 L102.857143,54.4285714 L84.2946429,54.4285714 L84.2946429,42.8571429 C84.2946429,37.6071429 85.7410714,34.0446429 93.2678571,34.0446429 L102.857143,34.0446429 L102.857143,17.8660714 C101.196429,17.6517857 95.5178571,17.1428571 88.875,17.1428571 C75.0535714,17.1428571 65.5714286,25.5803571 65.5714286,41.0892857 L65.5714286,54.4553571 L49.2857143,54.4553571 L49.2857143,72.5625 L65.5982143,72.5625 L65.5982143,120 L12.8571429,120 C5.75892857,120 0,114.241071 0,107.142857 L0,12.8571429 C0,5.75892857 5.75892857,0 12.8571429,0 L107.142857,0 C114.241071,0 120,5.75892857 120,12.8571429 Z" id="Shape"></path>
                    </g>
                </g>
            </g>
        </g>
    </g>
</svg>