<?xml version="1.0" encoding="UTF-8"?>
<svg width="75px" height="69px" viewBox="0 0 75 69" version="1.1" xmlns="http://www.w3.org/2000/svg" xmlns:xlink="http://www.w3.org/1999/xlink">
    <!-- Generator: Sketch 47.1 (45422) - http://www.bohemiancoding.com/sketch -->
    <title>settings</title>
    <desc>Created with Sketch.</desc>
    <defs></defs>
    <g id="Blocklight-Website-Prototype" stroke="none" stroke-width="1" fill="none" fill-rule="evenodd">
        <g id="HOMEPAGE" transform="translate(-707.000000, -2708.000000)" fill-rule="nonzero">
            <g id="HOW-DOES-IT-WORK?" transform="translate(0.000000, 1801.000000)">
                <g id="features" transform="translate(698.000000, 907.000000)">
                    <g id="settings" transform="translate(9.000000, 0.000000)">
                        <path d="M56.7255637,24.6273779 C57.0808289,24.0460341 57.393076,23.4351055 57.6599639,22.8000651 C57.5380792,22.7045058 57.4581884,22.5567291 57.4581884,22.3886867 L57.4581884,20.2624183 C56.3426439,20.047188 55.2619236,19.6044496 54.2877243,18.9350907 L52.8006731,20.4384486 C52.7368775,20.5029437 52.6600594,20.5446584 52.5791444,20.5683264 C51.3519577,23.5365818 48.3986326,25.5937694 44.9871793,25.4560516 C40.9131885,25.2915594 37.5993307,21.9382563 37.4399881,17.8194432 C37.2642577,13.2765303 40.8552458,9.53773557 45.3098151,9.53773557 C46.4413085,9.53773557 47.5160297,9.78077572 48.4884732,10.2150824 C48.5262237,10.2062069 48.5652912,10.2004379 48.6056756,10.2004379 L50.7088808,10.2004379 C50.9217766,9.07266057 51.3597126,7.97994142 52.0218111,6.99520724 L50.5351988,5.49170143 C50.3915125,5.34643945 50.3521524,5.13727405 50.4131679,4.95503092 C49.7525326,4.68018698 49.0658523,4.45637703 48.3573703,4.28966599 C48.0528782,4.21807047 47.8377876,3.94337446 47.8377876,3.62725955 L47.8377876,0.82394012 C47.8377876,0.368923996 47.4728653,0 47.0227846,0 L43.5972846,0 C43.1472039,0 42.7822816,0.368923996 42.7822816,0.82394012 L42.7822816,3.76941511 C42.7822816,4.00343185 42.622939,4.20815952 42.3970207,4.25860182 C40.8511488,4.6045975 39.4055061,5.21966806 38.1108658,6.05351913 C37.9140653,6.18029052 37.6556639,6.14759918 37.4906149,5.98074021 L35.4336468,3.90121594 C35.1154005,3.5794799 34.5993295,3.5794799 34.2810833,3.90121594 L31.8589002,6.34996006 C31.540654,6.6716961 31.540654,7.19342623 31.8589002,7.5153102 L33.8481221,9.52619745 C34.0529702,9.73329191 34.0905745,10.0557676 33.9367921,10.3038372 C33.1302756,11.6042425 32.536216,13.0528683 32.2028988,14.5998639 C32.1592954,14.8022248 31.9788827,14.9445283 31.7740346,14.9445283 L28.815003,14.9445283 C28.3649224,14.9445283 28,15.3134523 28,15.7684684 L28,19.2315316 C28,19.6865477 28.3649224,20.0554717 28.815003,20.0554717 L31.7197498,20.0554717 C31.9563494,20.0554717 32.1630997,20.2202598 32.2144581,20.4536848 C32.5568471,22.0123665 33.1640756,23.4701636 33.9866872,24.7758942 C34.1128152,24.9761841 34.0803321,25.2390462 33.9142588,25.4069406 L31.8590465,27.4846898 C31.5408003,27.8064258 31.5408003,28.328156 31.8590465,28.6500399 L34.2812296,31.0987841 C34.5994758,31.4205201 35.1155469,31.4205201 35.4337931,31.0987841 L37.3254195,29.1864146 C37.5873325,28.9216295 37.9935171,28.8760688 38.3094222,29.0716251 C39.5136367,29.8177569 40.8433938,30.376764 42.2590409,30.7095944 C42.5651425,30.7816337 42.7824279,31.0558859 42.7824279,31.373628 L42.7824279,34.1760599 C42.7824279,34.631076 43.1473502,35 43.5974309,35 L47.0227846,35 C47.4728653,35 47.8377876,34.631076 47.8377876,34.1760599 L47.8377876,31.3391616 C47.8377876,31.0415372 48.0411726,30.7840005 48.3281063,30.7172865 C49.7980381,30.3757285 51.1759346,29.7903908 52.4173144,29.005059 C52.6691313,28.8457442 52.9963031,28.8845005 53.2064187,29.0969202 L55.1865688,31.0987841 C55.504815,31.4205201 56.020886,31.4205201 56.3391323,31.0987841 L58.7613153,28.6501879 C59.0795616,28.3284518 59.0795616,27.8067217 58.7613153,27.4848377 L56.8282804,25.5306056 C56.5903639,25.2900802 56.548809,24.9167184 56.7255637,24.6273779 Z" id="Shape" fill="#EF7C15"></path>
                        <path d="M34.8144732,28.3759249 C34.4989682,28.0620964 34.4989682,27.5531892 34.8144732,27.2392164 L36.8519829,25.2125336 C37.0166258,25.0487657 37.048829,24.7923642 36.9237875,24.5969969 C36.1082614,23.3233582 35.5062633,21.9013905 35.1668235,20.3810177 C35.1160525,20.1531854 34.910938,19.9925918 34.6763763,19.9925918 L31.7966496,19.9925918 C31.3504457,19.9925918 30.9886666,19.6327352 30.9886666,19.1889023 L30.9886666,15.8109534 C30.9886666,15.3671206 31.3504457,15.0072639 31.7966496,15.0072639 L34.7301935,15.0072639 C34.9332772,15.0072639 35.1121359,14.8684579 35.1553637,14.6710706 C35.4858099,13.1619523 36.0747526,11.7489305 36.8743221,10.4804863 C37.026925,10.2385137 36.9894996,9.92396372 36.7864159,9.72195918 L34.8144732,7.76063931 C34.4989682,7.44681081 34.4989682,6.93790364 34.8144732,6.62393086 L36.2926324,5.15362633 L35.369472,4.23537137 C35.0539669,3.92154288 34.5423411,3.92154288 34.226691,4.23537137 L31.8256616,6.62393086 C31.5101565,6.93775935 31.5101565,7.44666652 31.8256616,7.76063931 L33.7977493,9.72210347 C34.0006879,9.92410801 34.0381133,10.238658 33.8856555,10.4806305 C33.086086,11.7490748 32.4971433,13.1620966 32.1666971,14.6712149 C32.1234693,14.8686022 31.9446106,15.0074082 31.7415269,15.0074082 L28.807983,15.0074082 C28.3617791,15.0074082 28,15.3672648 28,15.8110977 L28,19.1890466 C28,19.6328794 28.3617791,19.9927361 28.807983,19.9927361 L31.6877097,19.9927361 C31.9222714,19.9927361 32.1272408,20.153474 32.1781568,20.381162 C32.5175967,21.9015348 33.1195948,23.3235025 33.9351209,24.5971412 C34.0601624,24.7925085 34.0279591,25.04891 33.8633163,25.2126779 L31.8258066,27.2393607 C31.5103016,27.5531892 31.5103016,28.0620964 31.8258066,28.3760691 L34.2271262,30.7646286 C34.5426312,31.0784571 35.0542571,31.0784571 35.3699071,30.7646286 L36.2930676,29.8463737 L34.8144732,28.3759249 Z" id="Shape" fill="#EF7C15"></path>
                        <path d="M69.9999998,10.9173473 C70.0001458,10.7192806 69.9000184,10.5366855 69.7238468,10.4269242 C69.6311633,10.3691243 69.5209648,10.3456249 69.411642,10.3456249 L67.3768376,10.3456249 C67.1577542,9.2304962 66.7261556,8.18820118 66.0934264,7.2464721 L67.5438139,5.79607502 C67.7671301,5.57275737 67.7671301,5.21077843 67.5438139,4.98760673 L66.0242422,3.46817093 C65.9470303,3.39095849 65.8524493,3.3296556 65.7461917,3.30498849 C65.5440395,3.25784365 65.3440766,3.31637331 65.2041026,3.45634823 L63.7537152,4.90674531 C62.8118464,4.27401196 61.7695583,3.84241045 60.654437,3.62332562 L60.654437,1.57172239 C60.654437,1.25601253 60.3984262,1 60.0827185,1 L57.9171354,1 C57.6014277,1 57.3455628,1.25586657 57.3455628,1.57157643 L57.3455628,3.62317966 C56.2302956,3.84226449 55.1881534,4.27401196 54.2462847,4.90659935 L52.8077198,3.46802497 C52.7305079,3.39081253 52.6359269,3.32950964 52.5295233,3.30469657 C52.3273711,3.25755173 52.1274083,3.31608139 51.9874343,3.45620227 L50.456186,4.98746077 C50.2328698,5.21077843 50.2328698,5.57275737 50.456186,5.79592906 L51.9065734,7.24632614 C51.2738443,8.18805523 50.8422456,9.23035024 50.6231622,10.3454789 L48.5717186,10.3454789 C48.2560108,10.3454789 48,10.6014914 48,10.9172013 L48,13.0827987 C48,13.3985086 48.2560108,13.6545211 48.5717186,13.6545211 L50.6231622,13.6545211 C50.8422456,14.7695038 51.2738443,15.8117988 51.9065734,16.7536739 L50.456186,18.2040709 C50.2328698,18.4273886 50.2328698,18.7893675 50.456186,19.0125392 L51.9753198,20.5316831 C52.0525317,20.6088956 52.1468207,20.6700525 52.2530784,20.6950115 C52.4553765,20.7424483 52.6554853,20.6840646 52.7957513,20.5437977 L54.2461387,19.0934007 C55.1880075,19.726134 56.2301496,20.1577355 57.3454168,20.3768203 L57.3454168,22.4113463 C57.3454168,22.5205239 57.3689161,22.6304312 57.4264237,22.7232613 C57.5358924,22.899726 57.7187781,23 57.9171354,23 L60.0827185,23 C60.3984262,23 60.654437,22.7439875 60.654437,22.4282776 L60.654437,20.3768203 C61.7697043,20.1577355 62.8119924,19.725988 63.7535692,19.0934007 L65.19228,20.531975 C65.2694919,20.6091875 65.3640729,20.6704904 65.4703305,20.6951575 C65.6724828,20.7423023 65.8724456,20.6837726 66.0124196,20.5437977 L67.5316993,19.0245079 C67.6089113,18.9472954 67.6702138,18.8527138 67.6950267,18.7463096 C67.7421712,18.544156 67.6837879,18.3440459 67.5436679,18.2040709 L66.0932805,16.7535279 C66.7260096,15.8117988 67.1576083,14.7696498 67.3766916,13.6543751 L69.4282813,13.6543751 C69.743989,13.6543751 69.9999998,13.3983626 69.9999998,13.0826527 L69.9999998,10.9173473 Z M63.8890185,11.4121491 C64.0881056,13.1404526 63.4031234,14.7931492 62.0397271,15.8741234 C61.3354784,16.4324175 60.4824982,16.7857849 59.5896714,16.8888321 C57.8602117,17.0886503 56.2062125,16.4032257 55.1249535,15.0385067 C54.566809,14.3339614 54.213736,13.4806836 54.1108354,12.5877049 C53.9117483,10.8585257 54.5974603,9.20495333 55.9624621,8.12427103 C56.6670028,7.56641478 57.5202749,7.21348531 58.4131017,7.11087595 C60.1419775,6.91222541 61.7948091,7.59779602 62.8753383,8.96222309 C63.4333368,9.66662244 63.7862639,10.5196083 63.8890185,11.4121491 Z" id="SVGCleanerId_0" fill="#FFC850"></path>
                        <path d="M69.9999998,10.9173473 C70.0001458,10.7192806 69.9000184,10.5366855 69.7238468,10.4269242 C69.6311633,10.3691243 69.5209648,10.3456249 69.411642,10.3456249 L67.3768376,10.3456249 C67.1577542,9.2304962 66.7261556,8.18820118 66.0934264,7.2464721 L67.5438139,5.79607502 C67.7671301,5.57275737 67.7671301,5.21077843 67.5438139,4.98760673 L66.0242422,3.46817093 C65.9470303,3.39095849 65.8524493,3.3296556 65.7461917,3.30498849 C65.5440395,3.25784365 65.3440766,3.31637331 65.2041026,3.45634823 L63.7537152,4.90674531 C62.8118464,4.27401196 61.7695583,3.84241045 60.654437,3.62332562 L60.654437,1.57172239 C60.654437,1.25601253 60.3984262,1 60.0827185,1 L57.9171354,1 C57.6014277,1 57.3455628,1.25586657 57.3455628,1.57157643 L57.3455628,3.62317966 C56.2302956,3.84226449 55.1881534,4.27401196 54.2462847,4.90659935 L52.8077198,3.46802497 C52.7305079,3.39081253 52.6359269,3.32950964 52.5295233,3.30469657 C52.3273711,3.25755173 52.1274083,3.31608139 51.9874343,3.45620227 L50.456186,4.98746077 C50.2328698,5.21077843 50.2328698,5.57275737 50.456186,5.79592906 L51.9065734,7.24632614 C51.2738443,8.18805523 50.8422456,9.23035024 50.6231622,10.3454789 L48.5717186,10.3454789 C48.2560108,10.3454789 48,10.6014914 48,10.9172013 L48,13.0827987 C48,13.3985086 48.2560108,13.6545211 48.5717186,13.6545211 L50.6231622,13.6545211 C50.8422456,14.7695038 51.2738443,15.8117988 51.9065734,16.7536739 L50.456186,18.2040709 C50.2328698,18.4273886 50.2328698,18.7893675 50.456186,19.0125392 L51.9753198,20.5316831 C52.0525317,20.6088956 52.1468207,20.6700525 52.2530784,20.6950115 C52.4553765,20.7424483 52.6554853,20.6840646 52.7957513,20.5437977 L54.2461387,19.0934007 C55.1880075,19.726134 56.2301496,20.1577355 57.3454168,20.3768203 L57.3454168,22.4113463 C57.3454168,22.5205239 57.3689161,22.6304312 57.4264237,22.7232613 C57.5358924,22.899726 57.7187781,23 57.9171354,23 L60.0827185,23 C60.3984262,23 60.654437,22.7439875 60.654437,22.4282776 L60.654437,20.3768203 C61.7697043,20.1577355 62.8119924,19.725988 63.7535692,19.0934007 L65.19228,20.531975 C65.2694919,20.6091875 65.3640729,20.6704904 65.4703305,20.6951575 C65.6724828,20.7423023 65.8724456,20.6837726 66.0124196,20.5437977 L67.5316993,19.0245079 C67.6089113,18.9472954 67.6702138,18.8527138 67.6950267,18.7463096 C67.7421712,18.544156 67.6837879,18.3440459 67.5436679,18.2040709 L66.0932805,16.7535279 C66.7260096,15.8117988 67.1576083,14.7696498 67.3766916,13.6543751 L69.4282813,13.6543751 C69.743989,13.6543751 69.9999998,13.3983626 69.9999998,13.0826527 L69.9999998,10.9173473 Z M63.8890185,11.4121491 C64.0881056,13.1404526 63.4031234,14.7931492 62.0397271,15.8741234 C61.3354784,16.4324175 60.4824982,16.7857849 59.5896714,16.8888321 C57.8602117,17.0886503 56.2062125,16.4032257 55.1249535,15.0385067 C54.566809,14.3339614 54.213736,13.4806836 54.1108354,12.5877049 C53.9117483,10.8585257 54.5974603,9.20495333 55.9624621,8.12427103 C56.6670028,7.56641478 57.5202749,7.21348531 58.4131017,7.11087595 C60.1419775,6.91222541 61.7948091,7.59779602 62.8753383,8.96222309 C63.4333368,9.66662244 63.7862639,10.5196083 63.8890185,11.4121491 Z" id="SVGCleanerId_0_1_" fill="#FFD200"></path>
                        <path d="M53.6544324,18.342576 C53.4233248,18.124676 53.4233248,17.7714787 53.6544324,17.5537211 L54.7031775,16.564911 C54.9581511,16.324509 55.017212,15.9513731 54.8368574,15.6569945 C54.4267547,14.9874862 54.1205749,14.2718343 53.9225474,13.5192961 C53.8600124,13.2817425 53.6349469,13.1145434 53.3752907,13.1145434 L51.7040656,13.1145434 C51.3773429,13.1145434 51.1124,12.8647417 51.1124,12.556691 L51.1124,10.443631 C51.1124,10.1355803 51.3773429,9.8857786 51.7040656,9.8857786 L53.2465955,9.8857786 C53.581777,9.8857786 53.8687734,9.6691604 53.9542681,9.36353077 C54.1663433,8.60501102 54.4891387,7.8849442 54.9182737,7.21287234 C55.0527089,7.00237813 55.0188735,6.73306516 54.8345916,6.55931486 L53.6542814,5.44645843 C53.4231738,5.22855847 53.4231738,4.87536114 53.6542814,4.65760359 L54.1010894,4.23633032 L52.9754595,3.17502931 C52.8955536,3.09969004 52.7976728,3.03987436 52.6875568,3.01566325 C52.4783516,2.96966215 52.2714121,3.02677188 52.1265544,3.16349343 L50.5418814,4.65760359 C50.3107738,4.87550355 50.3107738,5.22870089 50.5418814,5.44645843 L52.0428724,6.86166887 C51.3880675,7.7805516 50.9414105,8.79756053 50.7146834,9.88563618 L48.5916656,9.88563618 C48.264943,9.88563618 48,10.1354378 48,10.4434886 L48,12.5565486 C48,12.8645993 48.264943,13.114401 48.5916656,13.114401 L50.7146834,13.114401 C50.9414105,14.2023342 51.3880675,15.2193431 52.0428724,16.1383683 L50.5418814,17.5535787 C50.3107738,17.7714787 50.3107738,18.124676 50.5418814,18.3424336 L52.1140172,19.824723 C52.193772,19.8999199 52.2915018,19.9597355 52.4013157,19.9840891 C52.610672,20.0305174 52.8179136,19.9735501 52.9632243,19.8365437 L54.1010894,18.7637068 L53.6544324,18.342576 Z" id="Shape" fill="#FFD200"></path>
                        <path d="M71.2554817,49.0418837 C72.1453176,47.846034 72.275019,46.216435 71.440563,44.8736079 C70.3114229,43.0565573 67.854325,42.4580109 65.9523262,43.5365825 L56.0125967,49.1736661 C55.6164072,49.3982764 55.2808029,49.6813186 55,50 C71.4457684,48.9073385 70.3607297,48.9047139 71.2554817,49.0418837 Z" id="Shape" fill="#FFD200"></path>
                        <path d="M71.9326419,46.1336173 C70.4324478,45.867535 70.6596316,45.9783453 60.4800323,46.6521542 L56.0125659,49.1765629 C55.6163319,49.4003858 55.2806899,49.6824357 55,50 C71.4476167,48.9111689 70.3626007,48.9085535 71.2573087,49.0452424 C71.8843418,48.2054247 72.1317712,47.1514197 71.9326419,46.1336173 Z" id="Shape" fill="#FFD200"></path>
                        <path d="M74.9071276,52.8999316 C74.0056507,48.9883142 69.7739848,49.7957696 69.4226332,49.8455926 L52.8540245,51.0076876 C52.4598287,51.035318 52.1610852,50.6540768 52.2818941,50.2745992 C52.6180899,49.2189107 52.8139491,47.3209349 50.6950558,45.8654869 C42.1034828,39.9625674 41.1205436,39.0695752 38.7434193,38.4980072 L38.7432736,38.4977133 C31.4341119,36.8889752 30.0378866,36.6389785 26.0915571,37.4481976 C22.6404133,38.1560071 19.2665057,39.1999379 16,40.5263459 L22.4336245,56.2831904 C24.7491056,55.3099524 26.4086625,54.4559073 29.0603394,54.963984 C32.1165588,55.5496611 32.3466642,56.0154104 40.2708004,61.4597822 C41.498855,62.2193253 44.3950644,63.6220109 47.9249016,62.692423 C47.9266504,62.6919821 47.9278162,62.6916882 47.9278162,62.6916882 L71.2462804,57.9671774 C71.9623906,57.7784674 75.6255694,56.5453857 74.9071276,52.8999316 Z" id="Shape" fill="#FFD200"></path>
                        <g id="Group" transform="translate(16.000000, 39.000000)">
                            <path d="M27.6626953,21.6297363 C19.6974609,15.9663574 19.4661621,15.4819336 16.3940918,14.8727051 C14.2831055,14.4540527 12.7967285,14.925293 11.113916,15.6418945 C11.7388184,15.5985352 12.4038574,15.6312012 13.1481445,15.7725586 C16.2202148,16.3562988 16.4515137,16.8205078 24.416748,22.246875 C25.6511719,23.0039062 28.5624023,24.4019531 32.1105469,23.4754395 C32.1123047,23.475 32.1134766,23.474707 32.1134766,23.474707 L33.3684082,23.2226074 C30.7407715,23.3362793 28.6571777,22.2662109 27.6626953,21.6297363 Z" id="Shape" fill="#FFD200"></path>
                            <path d="M3.38085938,0.1453125 C2.24941406,0.525292969 1.12807617,0.936474609 0.0200683594,1.38251953 L6.48706055,17.0872559 C7.61601563,16.616748 8.59013672,16.1756836 9.59794922,15.9024902 L3.38085938,0.1453125 Z" id="Shape" fill="#FFFFFF"></path>
                            <path d="M45.4530762,20.7947754 L55.5528809,18.7658203 C55.6910156,18.7297852 55.9385742,18.6549316 56.2426758,18.5326172 L45.4530762,20.7947754 Z" id="Shape" fill="#E59770"></path>
                            <path d="M39.3378928,11.7599809 L36.7759656,11.9493293 C36.4855488,11.9708427 36.2478176,11.7547933 36.1961369,11.4796964 C35.1121342,12.1557664 33.6402391,12.6429458 32.153127,12.1318118 L24.0762948,9.01236856 C23.5004857,8.78975825 22.8640953,9.10589845 22.654932,9.71773349 C22.4456252,10.3297211 22.7427892,11.0060964 23.3185984,11.2284015 C23.3418547,11.2374036 31.4225629,14.3586778 31.4461063,14.3669169 C34.526276,15.4404509 37.834128,13.6607891 39.3378928,11.7599809 Z" id="Shape" fill="#EF7C15"></path>
                        </g>
                        <path d="M22.8785331,58.1803771 L14.8033147,38.0234311 C14.465414,37.179795 13.5259982,36.7775117 12.7052378,37.1248301 L1.0304669,42.0664669 C0.406983843,42.3302981 0,42.9549662 0,43.6481175 L0,67.725394 C0,68.6311256 0.894179345,69.2473261 1.70930324,68.9032758 L22.0044428,60.3370788 C22.8252032,59.9896119 23.2164338,59.0240132 22.8785331,58.1803771 Z" id="Shape" fill="#EF7C15"></path>
                        <path d="M2.71130313,67.644403 L2.71130313,42.0391298 C2.71130313,41.6590004 2.81630773,41.2987051 3,41 L0.938199044,41.9621793 C0.370542568,42.2270321 0,42.8541189 0,43.5499541 L0,67.7204587 C0,68.6296973 0.814114654,69.2482837 1.55625247,68.9029013 L2.8578885,68.29714 C2.76498969,68.1061059 2.71130313,67.8847987 2.71130313,67.644403 Z" id="Shape" fill="#EF7C15"></path>
                        <g id="Group" transform="translate(57.000000, 1.000000)" fill="#FFD200">
                            <path d="M2.58647461,2.68725586 C2.87915039,2.71025391 3.1293457,2.47924805 3.1293457,2.18569336 L3.1293457,0.687158203 C3.1293457,0.538183594 3.1875,0.403857422 3.28051758,0.301904297 C3.17563477,0.186914062 3.02592773,0.113525391 2.85805664,0.113525391 L0.684667969,0.113525391 C0.367822266,0.113525391 0.111035156,0.3703125 0.111035156,0.687158203 L0.111035156,2.74614258 C0.111035156,2.74614258 1.30151367,2.58632813 2.58647461,2.68725586 Z" id="Shape"></path>
                            <path d="M3.1293457,21.6021973 L3.1293457,20.0043457 C3.1293457,19.7591309 2.93056641,19.5603516 2.68535156,19.5603516 L0.111035156,19.5603516 L0.111035156,21.6021973 C0.111035156,21.7117676 0.134619141,21.8223633 0.192480469,21.9153809 C0.30234375,22.092334 0.485888672,22.1928223 0.684814453,22.1928223 L2.85820312,22.1928223 C3.02578125,22.1928223 3.1753418,22.1197266 3.28022461,22.0050293 C3.2550293,21.9774902 3.23115234,21.9480469 3.21079102,21.9150879 C3.1527832,21.8220703 3.1293457,21.7116211 3.1293457,21.6021973 Z" id="Shape"></path>
                        </g>
                        <g id="Group" transform="translate(42.000000, 0.000000)" fill="#EF7C15">
                            <path d="M3.43491211,33.8777344 L3.43491211,31.7882813 C3.43491211,31.3932129 3.1480957,31.0564453 2.75800781,30.9936035 L0.160986328,30.5750977 C0.31640625,30.6999023 0.416601563,30.8907715 0.416601563,31.1027344 L0.416601563,33.8778809 C0.416601563,34.3284668 0.781933594,34.6937988 1.23251953,34.6937988 L4.25083008,34.6937988 C3.80024414,34.6936523 3.43491211,34.3283203 3.43491211,33.8777344 Z" id="Shape"></path>
                            <path d="M3.43491211,0.850341797 C3.43491211,0.399755859 3.80024414,0.0344238281 4.25083008,0.0344238281 L1.23251953,0.0344238281 C0.781933594,0.0344238281 0.416601562,0.399755859 0.416601562,0.850341797 L0.416601562,3.76713867 C0.416601562,3.99887695 0.257080078,4.20161133 0.0309082031,4.25170898 L2.82963867,3.85341797 C3.17695312,3.80405273 3.43491211,3.50668945 3.43491211,3.15585937 L3.43491211,0.850341797 L3.43491211,0.850341797 Z" id="Shape"></path>
                        </g>
                    </g>
                </g>
            </g>
        </g>
    </g>
</svg>