<?xml version="1.0" encoding="UTF-8" standalone="no"?>
<svg width="67px" height="85px" viewBox="0 0 67 85" version="1.1" xmlns="http://www.w3.org/2000/svg" xmlns:xlink="http://www.w3.org/1999/xlink">
    <!-- Generator: sketchtool 47.1 (45422) - http://www.bohemiancoding.com/sketch -->
    <title>CF6BA82B-8CAB-465F-ACF7-6881DBBD992C</title>
    <desc>Created with sketchtool.</desc>
    <defs></defs>
    <g id="Blocklight-Website-Prototype" stroke="none" stroke-width="1" fill="none" fill-rule="evenodd">
        <g id="HOMEPAGE" transform="translate(-711.000000, -2363.000000)">
            <g id="HOW-DOES-IT-WORK?" transform="translate(0.000000, 1824.000000)">
                <g id="reports" transform="translate(699.000000, 539.000000)">
                    <g id="form" transform="translate(12.000000, 0.000000)">
                        <rect id="Rectangle-8" fill="#FFFFFF" x="5.93023256" y="10.872093" width="54.3604651" height="69.1860465"></rect>
                        <path d="M59.765625,5.3125 L35.859375,5.3125 C35.859375,6.77941406 34.6700391,7.96875 33.203125,7.96875 C31.7362109,7.96875 30.546875,6.77941406 30.546875,5.3125 L6.640625,5.3125 C2.97915039,5.3125 0,8.29165039 0,11.953125 L0,78.359375 C0,82.0208496 2.97915039,85 6.640625,85 L59.765625,85 C63.4270996,85 66.40625,82.0208496 66.40625,78.359375 L66.40625,11.953125 C66.40625,8.29165039 63.4269336,5.3125 59.765625,5.3125 Z M59.765625,77.03125 C59.765625,77.764707 59.170957,78.359375 58.4375,78.359375 L7.96875,78.359375 C7.23529297,78.359375 6.640625,77.764707 6.640625,77.03125 L6.640625,13.28125 C6.640625,12.547793 7.23529297,11.953125 7.96875,11.953125 L58.4375,11.953125 C59.170957,11.953125 59.765625,12.547793 59.765625,13.28125 L59.765625,77.03125 Z" id="Shape" fill="#EF7C15" fill-rule="nonzero"></path>
                        <path d="M15.9375,61.09375 C15.6235645,61.09375 15.3084668,60.9835156 15.055625,60.7579004 C14.5069434,60.2714746 14.4576367,59.4311035 14.9453906,58.88375 L25.5703906,46.930625 C25.956875,46.494834 26.5820898,46.3625195 27.1125098,46.6037402 L40.4676367,52.6749316 L49.2405664,31.3691504 C49.5208008,30.6921387 50.2962598,30.3730566 50.9745996,30.6466504 C51.6529395,30.9255566 51.9758398,31.7023437 51.6970996,32.3806836 L42.4002246,54.9588086 C42.2627637,55.292168 41.9954785,55.5554687 41.660957,55.6877832 C41.3264355,55.8200977 40.9515723,55.8109668 40.6220313,55.6618848 L26.9049902,49.427168 L16.9297754,60.6475 C16.6676367,60.9433398 16.3032324,61.09375 15.9375,61.09375 Z" id="Shape" fill="#EF7C15" fill-rule="nonzero"></path>
                        <circle id="Oval" fill="#FFD200" fill-rule="nonzero" cx="15.9375" cy="59.765625" r="3.984375"></circle>
                        <circle id="Oval" fill="#FFD200" fill-rule="nonzero" cx="26.5625" cy="47.8125" r="3.984375"></circle>
                        <circle id="Oval" fill="#FFD200" fill-rule="nonzero" cx="41.171875" cy="54.453125" r="3.984375"></circle>
                        <circle id="Oval" fill="#FFD200" fill-rule="nonzero" cx="50.46875" cy="31.875" r="3.984375"></circle>
                        <path d="M41.171875,2.65625 L37.7866504,2.65625 C36.8503223,1.03626953 35.1096484,0 33.203125,0 C31.2966016,0 29.5559277,1.03626953 28.6195996,2.65625 L25.234375,2.65625 C21.5729004,2.65625 18.59375,5.63540039 18.59375,9.296875 L18.59375,14.609375 C18.59375,15.342832 19.1877539,15.9375 19.921875,15.9375 L46.484375,15.9375 C47.2184961,15.9375 47.8125,15.342832 47.8125,14.609375 L47.8125,9.296875 C47.8125,5.63540039 44.8333496,2.65625 41.171875,2.65625 Z M33.203125,6.640625 C32.469668,6.640625 31.875,6.04595703 31.875,5.3125 C31.875,4.57904297 32.469668,3.984375 33.203125,3.984375 C33.936582,3.984375 34.53125,4.57904297 34.53125,5.3125 C34.53125,6.04595703 33.936582,6.640625 33.203125,6.640625 Z" id="Shape" fill="#FFD200" fill-rule="nonzero"></path>
                    </g>
                </g>
            </g>
        </g>
    </g>
</svg>