<?xml version="1.0" encoding="UTF-8" standalone="no"?>
<svg width="640px" height="512px" viewBox="0 0 640 512" version="1.1" xmlns="http://www.w3.org/2000/svg" xmlns:xlink="http://www.w3.org/1999/xlink">
    <!-- Generator: Sketch 47.1 (45422) - http://www.bohemiancoding.com/sketch -->
    <title>hands-helping</title>
    <desc>Created with Sketch.</desc>
    <defs></defs>
    <g id="Page-1" stroke="none" stroke-width="1" fill="none" fill-rule="evenodd">
        <g id="hands-helping" transform="translate(-1.000000, 0.000000)" fill-rule="nonzero" fill="#EF7C15">
            <path d="M489,192 L337,192 L337,248 C337,287.7 304.7,320 265,320 C225.3,320 193,287.7 193,248 L193,126.4 L128.1,165.4 C108.8,176.9 97,197.8 97,220.2 L97,267.5 L17,313.7 C1.7,322.5 -3.6,342.1 5.3,357.4 L85.3,496 C94.1,511.3 113.7,516.5 129,507.7 L232.4,448 L369,448 C404.3,448 433,419.3 433,384 L449,384 C466.7,384 481,369.7 481,352 L481,288 L489,288 C502.3,288 513,277.3 513,264 L513,216 C513,202.7 502.3,192 489,192 Z M636.7,154.6 L556.7,16 C547.9,0.7 528.3,-4.5 513,4.3 L409.6,64 L307.4,64 C295.4,64 283.7,67.4 273.5,73.7 L240,94.6 C230.6,100.4 225,110.7 225,121.7 L225,248 C225,270.1 242.9,288 265,288 C287.1,288 305,270.1 305,248 L305,160 L489,160 C519.9,160 545,185.1 545,216 L545,244.5 L625,198.3 C640.3,189.4 645.5,169.9 636.7,154.6 Z" id="Shape"></path>
        </g>
    </g>
</svg>