<?xml version="1.0" encoding="UTF-8" standalone="no"?>
<svg width="20px" height="16px" viewBox="0 0 20 16" version="1.1" xmlns="http://www.w3.org/2000/svg" xmlns:xlink="http://www.w3.org/1999/xlink">
    <!-- Generator: Sketch 47.1 (45422) - http://www.bohemiancoding.com/sketch -->
    <title>home</title>
    <desc>Created with Sketch.</desc>
    <defs></defs>
    <g id="BLOCKLIGHT-PROTOTYPE" stroke="none" stroke-width="1" fill="none" fill-rule="evenodd">
        <g id="Landing-Page-#1" transform="translate(-322.000000, -34.000000)" fill-rule="nonzero" fill="#FFFFFF">
            <g id="MENU">
                <g id="home" transform="translate(322.000000, 34.000000)">
                    <path d="M16.9230769,9.73514762 L16.9230769,14.5741717 C16.9230769,15.0232926 16.5526923,15.3846154 16.0923077,15.3846154 L12.0769231,15.3846154 C11.8484615,15.3846154 11.6615385,15.2022656 11.6615385,14.9793935 L11.6615385,11.1973231 C11.6615385,10.9744511 11.4746154,10.7921012 11.2461538,10.7921012 L8.75384615,10.7921012 C8.52538462,10.7921012 8.33846154,10.9744511 8.33846154,11.1973231 L8.33846154,14.9793935 C8.33846154,15.2022656 8.15153846,15.3846154 7.92307692,15.3846154 L3.90769231,15.3846154 C3.44730769,15.3846154 3.07692308,15.0232926 3.07692308,14.5741717 L3.07692308,9.73514762 C3.07692308,9.61358107 3.13230769,9.49876822 3.22923077,9.4211007 L9.73692308,4.19373902 C9.88923077,4.07217246 10.1107692,4.07217246 10.2665385,4.19373902 L16.7742308,9.4211007 C16.8676923,9.49876822 16.9230769,9.61358107 16.9230769,9.73514762 Z M19.8471964,7.45587626 L16.9441213,5.11497913 L16.9441213,0.409402182 C16.9441213,0.185165302 16.7566021,0.00169876424 16.5274119,0.00169876424 L14.5827683,0.00169876424 C14.3535781,0.00169876424 14.1660589,0.185165302 14.1660589,0.409402182 L14.1660589,2.87600786 L11.0581017,0.372029369 C10.4434554,-0.12400979 9.55447548,-0.12400979 8.93982919,0.372029369 L0.150734503,7.45587626 C-0.0263669707,7.59857246 -0.0506750161,7.85678462 0.095173256,8.03005857 L0.980680622,9.08329241 C1.12652889,9.25656636 1.39044482,9.28034906 1.56754629,9.13765286 L9.73504953,2.55664019 C9.88784295,2.43432916 10.1100879,2.43432916 10.2663539,2.55664019 L18.4338572,9.13765286 C18.6109587,9.28034906 18.8748746,9.25656636 19.0207228,9.08329241 L19.9062302,8.03005857 C20.0520785,7.85338709 20.0242979,7.59857246 19.8471964,7.45587626 L19.8471964,7.45587626 Z" id="Shape"></path>
                </g>
            </g>
        </g>
    </g>
</svg>