<?xml version="1.0" encoding="UTF-8" standalone="no"?>
<svg width="576px" height="512px" viewBox="0 0 576 512" version="1.1" xmlns="http://www.w3.org/2000/svg" xmlns:xlink="http://www.w3.org/1999/xlink">
    <!-- Generator: Sketch 47.1 (45422) - http://www.bohemiancoding.com/sketch -->
    <title>hotel</title>
    <desc>Created with Sketch.</desc>
    <defs></defs>
    <g id="Page-1" stroke="none" stroke-width="1" fill="none" fill-rule="evenodd">
        <g id="hotel" fill-rule="nonzero" fill="#EF7C15">
            <path d="M560,64 C568.84,64 576,56.84 576,48 L576,16 C576,7.16 568.84,0 560,0 L16,0 C7.16,0 0,7.16 0,16 L0,48 C0,56.84 7.16,64 16,64 L31.98,64 L31.98,448 L16,448 C7.16,448 0,455.16 0,464 L0,496 C0,504.84 7.16,512 16,512 L256,512 L256,432 C256,423.2 263.2,416 272,416 L304,416 C312.8,416 320,423.2 320,432 L320,512 L560,512 C568.84,512 576,504.84 576,496 L576,464 C576,455.16 568.84,448 560,448 L544,448 L544,64 L560,64 Z M256,108.8 C256,102.4 262.4,96 268.8,96 L307.2,96 C313.6,96 320,102.4 320,108.8 L320,147.2 C320,153.6 313.6,160 307.2,160 L268.8,160 C262.4,160 256,153.6 256,147.2 L256,108.8 L256,108.8 Z M256,204.8 C256,198.4 262.4,192 268.8,192 L307.2,192 C313.6,192 320,198.4 320,204.8 L320,243.2 C320,249.6 313.6,256 307.2,256 L268.8,256 C262.4,256 256,249.6 256,243.2 L256,204.8 L256,204.8 Z M128,108.8 C128,102.4 134.4,96 140.8,96 L179.2,96 C185.6,96 192,102.4 192,108.8 L192,147.2 C192,153.6 185.6,160 179.2,160 L140.8,160 C134.4,160 128,153.6 128,147.2 L128,108.8 Z M179.2,256 L140.8,256 C134.4,256 128,249.6 128,243.2 L128,204.8 C128,198.4 134.4,192 140.8,192 L179.2,192 C185.6,192 192,198.4 192,204.8 L192,243.2 C192,249.6 185.6,256 179.2,256 Z M192,384 C192,330.98 234.98,288 288,288 C341.02,288 384,330.98 384,384 L192,384 Z M448,243.2 C448,249.6 441.6,256 435.2,256 L396.8,256 C390.4,256 384,249.6 384,243.2 L384,204.8 C384,198.4 390.4,192 396.8,192 L435.2,192 C441.6,192 448,198.4 448,204.8 L448,243.2 Z M448,147.2 C448,153.6 441.6,160 435.2,160 L396.8,160 C390.4,160 384,153.6 384,147.2 L384,108.8 C384,102.4 390.4,96 396.8,96 L435.2,96 C441.6,96 448,102.4 448,108.8 L448,147.2 Z" id="Shape"></path>
        </g>
    </g>
</svg>