<?xml version="1.0" encoding="UTF-8" standalone="no"?>
<svg width="16px" height="16px" viewBox="0 0 16 16" version="1.1" xmlns="http://www.w3.org/2000/svg" xmlns:xlink="http://www.w3.org/1999/xlink">
    <!-- Generator: Sketch 47.1 (45422) - http://www.bohemiancoding.com/sketch -->
    <title>link</title>
    <desc>Created with Sketch.</desc>
    <defs></defs>
    <g id="BLOCKLIGHT-PROTOTYPE" stroke="none" stroke-width="1" fill="none" fill-rule="evenodd">
        <g id="Landing-Page-#1" transform="translate(-611.000000, -34.000000)" fill-rule="nonzero" fill="#FFFFFF">
            <g id="MENU">
                <g id="link" transform="translate(611.000000, 34.000000)">
                    <path d="M10.2066431,5.79347306 C12.0737373,7.66250066 12.0481123,10.6590261 10.2178931,12.4993975 C10.2144556,12.5031475 10.2103931,12.5072099 10.2066431,12.5109599 L8.1066426,14.6109558 C6.25445465,16.4631397 3.24104767,16.4628897 1.38914096,14.6109558 C-0.463046988,12.7590845 -0.463046988,9.74534034 1.38914096,7.89346896 L2.54870375,6.73390872 C2.85620382,6.42640932 3.38576645,6.63078392 3.40164146,7.06534558 C3.42189146,7.61915699 3.52120398,8.17556216 3.70445403,8.71287361 C3.76651654,8.89481075 3.72217278,9.09606036 3.58623525,9.23199759 L3.1772664,9.64096554 C2.30145369,10.5167763 2.27398493,11.942836 3.14117264,12.8272093 C4.01692286,13.7203013 5.45636071,13.7256138 6.33882967,12.8431468 L8.43883019,10.7434634 C9.31979915,9.86249636 9.31611165,8.43856164 8.43883019,7.56128211 C8.32317391,7.44584483 8.20667388,7.35615751 8.11567386,7.29350138 C7.98513629,7.20386146 7.90464375,7.05780033 7.89858005,6.89956465 C7.88620505,6.56934654 8.00320508,6.22906596 8.26414264,5.96812897 L8.9220803,5.3101615 C9.0946116,5.13763059 9.36526791,5.11644313 9.56533046,5.25606786 C9.7944457,5.41605177 10.0090437,5.59587992 10.2066431,5.79347306 Z M14.6108629,1.38904416 C12.7589562,-0.462889719 9.74554925,-0.463139719 7.8933613,1.38904416 L5.79336079,3.48904006 C5.78961079,3.49279005 5.78554829,3.49685255 5.78211079,3.50060254 C3.95192284,5.34097394 3.92626658,8.33749934 5.79336079,10.2065269 C5.99094857,10.4041111 6.2055363,10.583929 6.4346422,10.7439009 C6.63470474,10.8835256 6.90539231,10.8623069 7.07789235,10.6898072 L7.73583001,10.0318398 C7.99676758,9.77090279 8.11376761,9.43062221 8.1013926,9.1004041 C8.0953289,8.94216842 8.01483637,8.79610729 7.8842988,8.70646737 C7.79329878,8.64381124 7.67679875,8.55412392 7.56114247,8.43868664 C6.68386101,7.56140711 6.68017351,6.13747239 7.56114247,5.25650536 L9.66114298,3.15682196 C10.5436119,2.27435493 11.9830186,2.27966742 12.8588,3.17275943 C13.7259877,4.0571327 13.6985502,5.48319242 12.8227063,6.35900321 L12.4137374,6.76797116 C12.2777999,6.90390839 12.2334561,7.105158 12.2955186,7.28709514 C12.4787687,7.82440659 12.5780812,8.38081176 12.5983312,8.93462317 C12.6142375,9.36918483 13.1437688,9.57355943 13.4512689,9.26606003 L14.6108317,8.10649979 C16.4630509,6.25465966 16.4630509,3.24091555 14.6108629,1.38904416 L14.6108629,1.38904416 Z" id="Shape"></path>
                </g>
            </g>
        </g>
    </g>
</svg>