<?xml version="1.0" encoding="UTF-8"?>
<svg width="63px" height="50px" viewBox="0 0 63 50" version="1.1" xmlns="http://www.w3.org/2000/svg" xmlns:xlink="http://www.w3.org/1999/xlink">
    <!-- Generator: Sketch 47.1 (45422) - http://www.bohemiancoding.com/sketch -->
    <title>Group</title>
    <desc>Created with Sketch.</desc>
    <defs></defs>
    <g id="BAP-(Desktop)" stroke="none" stroke-width="1" fill="none" fill-rule="evenodd">
        <g id="Referral-Plan-News" transform="translate(-154.000000, -138.000000)">
            <g id="integrations-Moal" transform="translate(2.000000, 2.000000)">
                <g id="Group" transform="translate(152.000000, 136.000000)">
                    <g id="user-plus">
                        <path d="M60.7236842,20.3125 L54.495614,20.3125 L54.495614,14.0625 C54.495614,13.203125 53.7949561,12.5 52.9385965,12.5 L49.8245614,12.5 C48.9682018,12.5 48.2675439,13.203125 48.2675439,14.0625 L48.2675439,20.3125 L42.0394737,20.3125 C41.183114,20.3125 40.4824561,21.015625 40.4824561,21.875 L40.4824561,25 C40.4824561,25.859375 41.183114,26.5625 42.0394737,26.5625 L48.2675439,26.5625 L48.2675439,32.8125 C48.2675439,33.671875 48.9682018,34.375 49.8245614,34.375 L52.9385965,34.375 C53.7949561,34.375 54.495614,33.671875 54.495614,32.8125 L54.495614,26.5625 L60.7236842,26.5625 C61.5800439,26.5625 62.2807018,25.859375 62.2807018,25 L62.2807018,21.875 C62.2807018,21.015625 61.5800439,20.3125 60.7236842,20.3125 Z M21.7982456,25 C28.6783169,25 34.254386,19.4042969 34.254386,12.5 C34.254386,5.59570313 28.6783169,0 21.7982456,0 C14.9181743,0 9.34210526,5.59570312 9.34210526,12.5 C9.34210526,19.4042969 14.9181743,25 21.7982456,25 Z M30.5175439,28.125 L28.8924068,28.125 C26.732045,29.1210937 24.3283991,29.6875 21.7982456,29.6875 C19.2680921,29.6875 16.8741776,29.1210937 14.7040844,28.125 L13.0789474,28.125 C5.85827851,28.125 0,34.0039062 0,41.25 L0,45.3125 C0,47.9003906 2.09224232,50 4.67105263,50 L38.9254386,50 C41.5042489,50 43.5964912,47.9003906 43.5964912,45.3125 L43.5964912,41.25 C43.5964912,34.0039062 37.7382127,28.125 30.5175439,28.125 Z" id="Shape" fill="#EF7C15" fill-rule="nonzero"></path>
                        <path d="M60.7236842,20.3125 L54.495614,20.3125 L54.495614,14.0625 C54.495614,13.203125 53.7949561,12.5 52.9385965,12.5 L49.8245614,12.5 C48.9682018,12.5 48.2675439,13.203125 48.2675439,14.0625 L48.2675439,20.3125 L42.0394737,20.3125 C41.183114,20.3125 40.4824561,21.015625 40.4824561,21.875 L40.4824561,25 C40.4824561,25.859375 41.183114,26.5625 42.0394737,26.5625 L48.2675439,26.5625 L48.2675439,32.8125 C48.2675439,33.671875 48.9682018,34.375 49.8245614,34.375 L52.9385965,34.375 C53.7949561,34.375 54.495614,33.671875 54.495614,32.8125 L54.495614,26.5625 L60.7236842,26.5625 C61.5800439,26.5625 62.2807018,25.859375 62.2807018,25 L62.2807018,21.875 C62.2807018,21.015625 61.5800439,20.3125 60.7236842,20.3125 Z" id="Path" fill="#000000"></path>
                    </g>
                </g>
            </g>
        </g>
    </g>
</svg>