<?xml version="1.0" encoding="UTF-8" standalone="no"?>
<svg width="75px" height="53px" viewBox="0 0 75 53" version="1.1" xmlns="http://www.w3.org/2000/svg" xmlns:xlink="http://www.w3.org/1999/xlink">
    <!-- Generator: sketchtool 47.1 (45422) - http://www.bohemiancoding.com/sketch -->
    <title>5D70CAB7-CD9E-4930-AB6C-3DD5D627F39B</title>
    <desc>Created with sketchtool.</desc>
    <defs></defs>
    <g id="Blocklight-Website-Prototype" stroke="none" stroke-width="1" fill="none" fill-rule="evenodd">
        <g id="HOMEPAGE" transform="translate(-75.000000, -2380.000000)" fill-rule="nonzero">
            <g id="HOW-DOES-IT-WORK?" transform="translate(0.000000, 1824.000000)">
                <g id="dashboard" transform="translate(61.000000, 547.000000)">
                    <g id="laptop" transform="translate(14.000000, 9.000000)">
                        <rect id="Rectangle-path" fill="#FFFFFF" x="7.03125" y="4.83164062" width="60.9375" height="37.5"></rect>
                        <rect id="Rectangle-path" stroke="#EF7C15" fill="#EF7C15" x="7.03125" y="4.83164062" width="60.9375" height="9.375"></rect>
                        <path d="M67.2558105,0.144140625 L7.74199219,0.144140625 C4.7652832,0.144140625 2.34375,2.56010742 2.34375,5.52978516 L2.34375,48.1910156 C2.34375,48.8387695 2.86787109,49.3628906 3.515625,49.3628906 L71.484375,49.3628906 C72.1321289,49.3628906 72.65625,48.8387695 72.65625,48.1910156 L72.65625,5.52978516 C72.65625,2.56010742 70.2335449,0.144140625 67.2558105,0.144140625 Z M7.03125,41.1597656 L7.03125,6.00351562 C7.03125,5.35634766 7.55595703,4.83164062 8.203125,4.83164062 L66.796875,4.83164062 C67.444043,4.83164062 67.96875,5.35634766 67.96875,6.00351562 L67.96875,41.1597656 C67.96875,41.8069336 67.444043,42.3316406 66.796875,42.3316406 L8.203125,42.3316406 C7.55595703,42.3316406 7.03125,41.8069336 7.03125,41.1597656 Z" id="Shape" fill="#EF7C15"></path>
                        <path d="M73.828125,47.0191406 L1.171875,47.0191406 C0.524121094,47.0191406 0,47.5432617 0,48.1910156 L0,48.1910156 C0,50.7785156 2.10454102,52.8830566 4.69204102,52.8830566 L70.3078125,52.8830566 C72.8953125,52.8830566 74.9998535,50.7785156 74.9998535,48.1910156 L74.9998535,48.1910156 C75,47.5432617 74.4758789,47.0191406 73.828125,47.0191406 Z" id="Shape" fill="#FFD200"></path>
                        <path d="M21.09375,10.6910156 L12.890625,10.6910156 C12.2428711,10.6910156 11.71875,10.1668945 11.71875,9.51914063 C11.71875,8.87138672 12.2428711,8.34726563 12.890625,8.34726563 L21.09375,8.34726563 C21.7415039,8.34726563 22.265625,8.87138672 22.265625,9.51914063 C22.265625,10.1668945 21.7415039,10.6910156 21.09375,10.6910156 Z" id="Shape" fill="#FFD200"></path>
                        <path d="M42.1875,10.6910156 L41.015625,10.6910156 C40.3678711,10.6910156 39.84375,10.1668945 39.84375,9.51914063 C39.84375,8.87138672 40.3678711,8.34726563 41.015625,8.34726563 L42.1875,8.34726563 C42.8352539,8.34726563 43.359375,8.87138672 43.359375,9.51914063 C43.359375,10.1668945 42.8352539,10.6910156 42.1875,10.6910156 Z" id="Shape" fill="#FFFFFF"></path>
                        <path d="M48.046875,10.6910156 L46.875,10.6910156 C46.2272461,10.6910156 45.703125,10.1668945 45.703125,9.51914063 C45.703125,8.87138672 46.2272461,8.34726563 46.875,8.34726563 L48.046875,8.34726563 C48.6946289,8.34726563 49.21875,8.87138672 49.21875,9.51914063 C49.21875,10.1668945 48.6946289,10.6910156 48.046875,10.6910156 Z" id="Shape" fill="#FFFFFF"></path>
                        <path d="M53.90625,10.6910156 L52.734375,10.6910156 C52.0866211,10.6910156 51.5625,10.1668945 51.5625,9.51914063 C51.5625,8.87138672 52.0866211,8.34726563 52.734375,8.34726563 L53.90625,8.34726563 C54.5540039,8.34726563 55.078125,8.87138672 55.078125,9.51914063 C55.078125,10.1668945 54.5540039,10.6910156 53.90625,10.6910156 Z" id="Shape" fill="#FFFFFF"></path>
                        <path d="M59.765625,10.6910156 L58.59375,10.6910156 C57.9459961,10.6910156 57.421875,10.1668945 57.421875,9.51914063 C57.421875,8.87138672 57.9459961,8.34726563 58.59375,8.34726563 L59.765625,8.34726563 C60.4133789,8.34726563 60.9375,8.87138672 60.9375,9.51914063 C60.9375,10.1668945 60.4133789,10.6910156 59.765625,10.6910156 Z" id="Shape" fill="#FFFFFF"></path>
                        <path d="M32.8125,38.8160156 L12.890625,38.8160156 C12.243457,38.8160156 11.71875,38.2913086 11.71875,37.6441406 L11.71875,18.8941406 C11.71875,18.2469727 12.243457,17.7222656 12.890625,17.7222656 L32.8125,17.7222656 C33.459668,17.7222656 33.984375,18.2469727 33.984375,18.8941406 L33.984375,37.6441406 C33.984375,38.2913086 33.459668,38.8160156 32.8125,38.8160156 Z" id="Shape" fill="#FFD200"></path>
                        <path d="M60.9375,20.0660156 L38.671875,20.0660156 C38.0241211,20.0660156 37.5,19.5418945 37.5,18.8941406 C37.5,18.2463867 38.0241211,17.7222656 38.671875,17.7222656 L60.9375,17.7222656 C61.5852539,17.7222656 62.109375,18.2463867 62.109375,18.8941406 C62.109375,19.5418945 61.5852539,20.0660156 60.9375,20.0660156 Z" id="Shape" fill="#EF7C15"></path>
                        <path d="M48.046875,29.4410156 L38.671875,29.4410156 C38.0241211,29.4410156 37.5,28.9168945 37.5,28.2691406 C37.5,27.6213867 38.0241211,27.0972656 38.671875,27.0972656 L48.046875,27.0972656 C48.6946289,27.0972656 49.21875,27.6213867 49.21875,28.2691406 C49.21875,28.9168945 48.6946289,29.4410156 48.046875,29.4410156 Z" id="Shape" fill="#FFD200"></path>
                        <path d="M48.046875,34.1285156 L38.671875,34.1285156 C38.0241211,34.1285156 37.5,33.6043945 37.5,32.9566406 C37.5,32.3088867 38.0241211,31.7847656 38.671875,31.7847656 L48.046875,31.7847656 C48.6946289,31.7847656 49.21875,32.3088867 49.21875,32.9566406 C49.21875,33.6043945 48.6946289,34.1285156 48.046875,34.1285156 Z" id="Shape" fill="#FFD200"></path>
                        <path d="M48.046875,38.8160156 L38.671875,38.8160156 C38.0241211,38.8160156 37.5,38.2918945 37.5,37.6441406 C37.5,36.9963867 38.0241211,36.4722656 38.671875,36.4722656 L48.046875,36.4722656 C48.6946289,36.4722656 49.21875,36.9963867 49.21875,37.6441406 C49.21875,38.2918945 48.6946289,38.8160156 48.046875,38.8160156 Z" id="Shape" fill="#FFD200"></path>
                        <path d="M62.109375,29.4410156 L52.734375,29.4410156 C52.0866211,29.4410156 51.5625,28.9168945 51.5625,28.2691406 C51.5625,27.6213867 52.0866211,27.0972656 52.734375,27.0972656 L62.109375,27.0972656 C62.7571289,27.0972656 63.28125,27.6213867 63.28125,28.2691406 C63.28125,28.9168945 62.7571289,29.4410156 62.109375,29.4410156 Z" id="Shape" fill="#FFD200"></path>
                        <path d="M62.109375,34.1285156 L52.734375,34.1285156 C52.0866211,34.1285156 51.5625,33.6043945 51.5625,32.9566406 C51.5625,32.3088867 52.0866211,31.7847656 52.734375,31.7847656 L62.109375,31.7847656 C62.7571289,31.7847656 63.28125,32.3088867 63.28125,32.9566406 C63.28125,33.6043945 62.7571289,34.1285156 62.109375,34.1285156 Z" id="Shape" fill="#FFD200"></path>
                        <path d="M62.109375,38.8160156 L52.734375,38.8160156 C52.0866211,38.8160156 51.5625,38.2918945 51.5625,37.6441406 C51.5625,36.9963867 52.0866211,36.4722656 52.734375,36.4722656 L62.109375,36.4722656 C62.7571289,36.4722656 63.28125,36.9963867 63.28125,37.6441406 C63.28125,38.2918945 62.7571289,38.8160156 62.109375,38.8160156 Z" id="Shape" fill="#FFD200"></path>
                        <path d="M53.90625,24.7535156 L38.671875,24.7535156 C38.0241211,24.7535156 37.5,24.2293945 37.5,23.5816406 C37.5,22.9338867 38.0241211,22.4097656 38.671875,22.4097656 L53.90625,22.4097656 C54.5540039,22.4097656 55.078125,22.9338867 55.078125,23.5816406 C55.078125,24.2293945 54.5540039,24.7535156 53.90625,24.7535156 Z" id="Shape" fill="#EF7C15"></path>
                        <path d="M32.8125,49.3628906 L42.1875,49.3628906 C43.4818359,49.3628906 44.53125,48.3134766 44.53125,47.0191406 L30.46875,47.0191406 C30.46875,48.313623 31.5180176,49.3628906 32.8125,49.3628906 Z" id="Shape" fill="#FFFFFF"></path>
                    </g>
                </g>
            </g>
        </g>
    </g>
</svg>