<?xml version="1.0" encoding="UTF-8" standalone="no"?>
<svg width="75px" height="75px" viewBox="0 0 75 75" version="1.1" xmlns="http://www.w3.org/2000/svg" xmlns:xlink="http://www.w3.org/1999/xlink">
    <!-- Generator: Sketch 47.1 (45422) - http://www.bohemiancoding.com/sketch -->
    <title>organization</title>
    <desc>Created with Sketch.</desc>
    <defs></defs>
    <g id="#7--High-Fidelity-Screens-Copy" stroke="none" stroke-width="1" fill="none" fill-rule="evenodd">
        <g id="Landing-Page-#1" transform="translate(-65.000000, -3739.000000)" fill-rule="nonzero">
            <g id="HOW-DOES-IT-WORK?" transform="translate(0.000000, 2080.000000)">
                <g id="customization" transform="translate(50.000000, 1656.000000)">
                    <g id="organization" transform="translate(15.000000, 3.000000)">
                        <path d="M37.5,65.625 C36.8522461,65.625 36.328125,65.100293 36.328125,64.453125 L36.328125,38.671875 C36.328125,38.024707 36.8522461,37.5 37.5,37.5 C38.1477539,37.5 38.671875,38.024707 38.671875,38.671875 L38.671875,64.453125 C38.671875,65.100293 38.1477539,65.625 37.5,65.625 Z" id="Shape" fill="#777777"></path>
                        <path d="M48.046875,63.28125 L26.953125,63.28125 C25.0145508,63.28125 23.4375,64.8583008 23.4375,66.796875 L23.4375,71.484375 C23.4375,73.4229492 25.0145508,75 26.953125,75 L48.046875,75 C49.9854492,75 51.5625,73.4229492 51.5625,71.484375 L51.5625,66.796875 C51.5625,64.8581543 49.9854492,63.28125 48.046875,63.28125 Z" id="Shape" fill="#FFD200"></path>
                        <path d="M18.0632813,54.5928223 C17.7634277,54.5928223 17.4635742,54.478418 17.2347656,54.2494629 C16.777002,53.7916992 16.777002,53.0500488 17.2347656,52.5924316 L31.9838379,37.8433594 C32.4416016,37.3855957 33.183252,37.3855957 33.6408691,37.8433594 C34.0984863,38.301123 34.0986328,39.0427734 33.6408691,39.5003906 L18.8919434,54.2496094 C18.6629883,54.478418 18.3631348,54.5928223 18.0632813,54.5928223 Z" id="Shape" fill="#777777"></path>
                        <path d="M56.9365723,54.5928223 C56.6367187,54.5928223 56.3368652,54.478418 56.1080566,54.2494629 L42.5308594,40.6722656 C42.0730957,40.214502 42.0730957,39.472998 42.5308594,39.0152344 C42.988623,38.5574707 43.7302734,38.5574707 44.1878906,39.0152344 L57.7650879,52.5924316 C58.2228516,53.0501953 58.2228516,53.7918457 57.7650879,54.2494629 C57.5362793,54.478418 57.2364258,54.5928223 56.9365723,54.5928223 Z" id="Shape" fill="#777777"></path>
                        <path d="M16.40625,51.5625 L3.515625,51.5625 C1.57705078,51.5625 0,53.1395508 0,55.078125 L0,59.765625 C0,61.7041992 1.57705078,63.28125 3.515625,63.28125 L16.40625,63.28125 C18.3448242,63.28125 19.921875,61.7041992 19.921875,59.765625 L19.921875,55.078125 C19.921875,53.1394043 18.3448242,51.5625 16.40625,51.5625 Z" id="Shape" fill="#FFD200"></path>
                        <path d="M31.640625,70.3125 L28.125,70.3125 C27.4772461,70.3125 26.953125,69.787793 26.953125,69.140625 C26.953125,68.493457 27.4772461,67.96875 28.125,67.96875 L31.640625,67.96875 C32.2883789,67.96875 32.8125,68.493457 32.8125,69.140625 C32.8125,69.787793 32.2883789,70.3125 31.640625,70.3125 Z" id="Shape" fill="#FFFFFF"></path>
                        <path d="M46.875,70.3125 L36.328125,70.3125 C35.6803711,70.3125 35.15625,69.787793 35.15625,69.140625 C35.15625,68.493457 35.6803711,67.96875 36.328125,67.96875 L46.875,67.96875 C47.5227539,67.96875 48.046875,68.493457 48.046875,69.140625 C48.046875,69.787793 47.5227539,70.3125 46.875,70.3125 Z" id="Shape" fill="#FFFFFF"></path>
                        <path d="M15.234375,58.59375 L12.890625,58.59375 C12.2428711,58.59375 11.71875,58.069043 11.71875,57.421875 C11.71875,56.774707 12.2428711,56.25 12.890625,56.25 L15.234375,56.25 C15.8821289,56.25 16.40625,56.774707 16.40625,57.421875 C16.40625,58.069043 15.8821289,58.59375 15.234375,58.59375 Z" id="Shape" fill="#FFFFFF"></path>
                        <path d="M9.375,58.59375 L4.6875,58.59375 C4.03974609,58.59375 3.515625,58.069043 3.515625,57.421875 C3.515625,56.774707 4.03974609,56.25 4.6875,56.25 L9.375,56.25 C10.0227539,56.25 10.546875,56.774707 10.546875,57.421875 C10.546875,58.069043 10.0227539,58.59375 9.375,58.59375 Z" id="Shape" fill="#FFFFFF"></path>
                        <g id="Group" transform="translate(18.750000, 0.000000)">
                            <path d="M18.75,28.125 C16.0211426,28.125 13.5452637,26.9540039 11.718457,25.0614258 C11.7171387,26.1956543 11.6758301,27.8329102 11.3750977,29.0273438 C11.5724121,29.1479004 11.7254883,29.3458008 11.7553711,29.5921875 C12.145166,32.7644531 15.1519043,35.15625 18.75,35.15625 C22.3472168,35.15625 25.3539551,32.7640137 25.7446289,29.5921875 C25.7749512,29.3455078 25.9246582,29.1479004 26.1250488,29.0276367 C25.8243164,27.8330566 25.7830078,26.1956543 25.781543,25.0614258 C23.9547363,26.9540039 21.4788574,28.125 18.75,28.125 Z" id="Shape" fill="#FFFFFF"></path>
                            <path d="M25.6289062,25.2054199 C23.8174805,27.0098145 21.4060547,28.125 18.75,28.125 C16.0211426,28.125 13.5452637,26.9540039 11.718457,25.0614258 C11.7171387,26.1956543 11.6758301,27.8329102 11.3750977,29.0273438 C11.5724121,29.1479004 11.7254883,29.3458008 11.7553711,29.5921875 C11.9276367,30.9944824 12.6125977,32.2429688 13.6325684,33.2009766 C18.3364746,32.5384277 23.6753906,27.8937012 25.6289062,25.2054199 Z" id="Shape" fill="#777777"></path>
                            <path d="M33.009375,29.8709473 C32.9780273,29.8621582 32.9468262,29.8552734 32.9147461,29.8507324 L26.6784668,28.9149902 C26.6403809,28.9092773 26.5586426,28.9062012 26.5198242,28.9062012 C26.1253418,28.9062012 25.7926758,29.2003418 25.7446289,29.592041 C25.3539551,32.7640137 22.3472168,35.15625 18.75,35.15625 C15.1520508,35.15625 12.145166,32.7644531 11.7553711,29.5921875 C11.7065918,29.188916 11.343457,28.8856934 10.9604004,28.9066406 C10.9146973,28.9040039 10.8695801,28.9078125 10.8215332,28.9149902 L4.58525391,29.8507324 C4.55317383,29.8552734 4.52197266,29.8621582 4.490625,29.8709473 C1.54262695,30.6965332 0,33.5972168 0,36.0358887 L0,39.0624023 C0,40.3510254 1.14741211,41.3992676 2.55820312,41.3992676 L34.9419434,41.3992676 C36.3525879,41.3992676 37.5001465,40.3510254 37.5001465,39.0624023 L37.5001465,36.0358887 C37.5,33.5972168 35.957373,30.6965332 33.009375,29.8709473 Z" id="Shape" fill="#EF7C15"></path>
                            <path d="M25.78125,8.59379883 L12.4999512,8.59379883 C10.3461914,8.59379883 8.59365234,10.3463379 8.59365234,12.5000977 L8.59365234,17.1875977 C8.59379883,23.2185059 13.1500488,28.125 18.75,28.125 C24.3499512,28.125 28.9062012,23.2185059 28.9062012,17.1874512 L28.9062012,11.71875 C28.9062012,9.9956543 27.5046387,8.59379883 25.78125,8.59379883 Z" id="Shape" fill="#FFFFFF"></path>
                            <path d="M24.2187012,0 L14.0625,0 C12.5931152,0 11.3578125,1.01923828 11.025293,2.38754883 C8.33598633,2.72929687 6.25004883,5.03188477 6.25004883,7.81245117 L6.25004883,11.71875 C6.25004883,13.7321777 7.10478516,15.6104004 8.59379883,16.9453125 L8.59379883,12.4999512 C8.59379883,10.3461914 10.3463379,8.59365234 12.5000977,8.59365234 L25.78125,8.59365234 C27.5047852,8.59365234 28.9062012,9.99550781 28.9062012,11.7186035 L28.9062012,16.9442871 C30.3955078,15.609668 31.2499512,13.7314453 31.2499512,11.7186035 L31.2499512,7.03125 C31.2499512,3.15439453 28.0959961,0 24.2187012,0 Z" id="Shape" fill="#000000"></path>
                        </g>
                        <path d="M58.59375,51.5625 L71.484375,51.5625 C73.4229492,51.5625 75,53.1395508 75,55.078125 L75,59.765625 C75,61.7041992 73.4229492,63.28125 71.484375,63.28125 L58.59375,63.28125 C56.6551758,63.28125 55.078125,61.7041992 55.078125,59.765625 L55.078125,55.078125 C55.078125,53.1394043 56.6550293,51.5625 58.59375,51.5625 Z" id="Shape" fill="#FFD200"></path>
                        <path d="M59.765625,58.59375 L62.109375,58.59375 C62.7571289,58.59375 63.28125,58.069043 63.28125,57.421875 C63.28125,56.774707 62.7571289,56.25 62.109375,56.25 L59.765625,56.25 C59.1178711,56.25 58.59375,56.774707 58.59375,57.421875 C58.59375,58.069043 59.1178711,58.59375 59.765625,58.59375 Z" id="Shape" fill="#FFFFFF"></path>
                        <path d="M65.625,58.59375 L70.3125,58.59375 C70.9602539,58.59375 71.484375,58.069043 71.484375,57.421875 C71.484375,56.774707 70.9602539,56.25 70.3125,56.25 L65.625,56.25 C64.9772461,56.25 64.453125,56.774707 64.453125,57.421875 C64.453125,58.069043 64.9772461,58.59375 65.625,58.59375 Z" id="Shape" fill="#FFFFFF"></path>
                    </g>
                </g>
            </g>
        </g>
    </g>
</svg>