<?xml version="1.0" encoding="UTF-8" standalone="no"?>
<svg width="63px" height="84px" viewBox="0 0 63 84" version="1.1" xmlns="http://www.w3.org/2000/svg" xmlns:xlink="http://www.w3.org/1999/xlink">
    <!-- Generator: sketchtool 47.1 (45422) - http://www.bohemiancoding.com/sketch -->
    <title>0BF2F3C5-5E62-46DA-843A-3FA4855C6920</title>
    <desc>Created with sketchtool.</desc>
    <defs></defs>
    <g id="Blocklight-Website-Prototype" stroke="none" stroke-width="1" fill="none" fill-rule="evenodd">
        <g id="HOMEPAGE" transform="translate(-82.000000, -2522.000000)" fill-rule="nonzero">
            <g id="HOW-DOES-IT-WORK?" transform="translate(0.000000, 1824.000000)">
                <g id="recommendations" transform="translate(61.000000, 698.000000)">
                    <g id="recommended" transform="translate(21.000000, 0.000000)">
                        <path d="M32.7601037,53.5909124 L28.2917874,74.2787835 L26.3036263,83.4891471 C26.2005669,83.9709665 25.632427,84.1823368 25.2385693,83.8880922 L20.403473,80.2836373 C20.2462581,80.1653159 20.0467035,80.1229762 19.8540414,80.1653159 L13.9622575,81.453559 C13.4820793,81.5584236 13.0527743,81.1322367 13.1574749,80.6505814 L15.160898,71.3691593 L19.6123112,50.7521826 L32.7601037,53.5909124 Z" id="Shape" fill="#EF7C15"></path>
                        <g id="Group" transform="translate(13.128592, 50.709186)" fill="#EF7C15">
                            <path d="M15.1631955,23.569597 L13.1750343,32.7799607 C13.0719749,33.26178 12.5038351,33.4731504 12.1099773,33.1789058 L7.27488102,29.5744509 C7.11766613,29.4561294 6.91811153,29.4137897 6.72544944,29.4561294 L0.833665589,30.7443725 C0.353487338,30.8492372 -0.0758176185,30.4230502 0.0288829023,29.941395 L2.03230603,20.6599728 L15.1631955,23.569597 Z" id="Shape"></path>
                            <path d="M17.1285457,2.88172593 L21.596862,23.569597 L23.5850231,32.7799607 C23.6880826,33.26178 24.2562224,33.4731504 24.6500801,33.1789058 L29.4851765,29.5744509 C29.6423913,29.4561294 29.8419459,29.4137897 30.034608,29.4561294 L35.9263919,30.7443725 C36.4065701,30.8492372 36.8358751,30.4230502 36.7311746,29.941395 L34.7277514,20.6599728 L30.2763382,0.0429961386 L17.1285457,2.88172593 Z" id="Shape"></path>
                        </g>
                        <path d="M38.302667,81.6306308 C38.1100049,81.5882911 37.9104503,81.6306308 37.7532355,81.7489523 L36.5340816,82.657779 L36.7136151,83.4891471 C36.8166745,83.9709665 37.3848143,84.1823368 37.7786721,83.8880922 L40.2391343,82.0540279 L38.302667,81.6306308 Z" id="Shape" fill="#008FBF"></path>
                        <path d="M34.7254539,74.2787835 L36.7136151,83.4891471 C36.8166745,83.9709665 37.3848143,84.1823368 37.7786721,83.8880922 L42.6137684,80.2836373 C42.7709833,80.1653159 42.9705379,80.1229762 43.1632,80.1653159 L49.0549838,81.453559 C49.5351621,81.5584236 49.964467,81.1322367 49.8597665,80.6505814 L47.8563434,71.3691593 L34.7254539,74.2787835 Z" id="Shape" fill="#EF7C15"></path>
                        <path d="M63.0172414,31.5086207 C63.0172414,33.5488039 60.9194565,35.3562828 60.5379068,37.2843806 C60.1448696,39.2712289 61.3840445,41.7415376 60.6260325,43.569694 C59.8547277,45.4295232 57.2240861,46.2968308 56.1171817,47.9500487 C55.0019078,49.6159029 55.2008059,52.3763535 53.7883336,53.7886618 C52.3760253,55.2009701 49.6155747,55.002236 47.9497205,56.1175099 C46.2965026,57.2242502 45.4293591,59.8550559 43.5693658,60.6261966 C41.7413735,61.3842086 39.2709007,60.1450337 37.2842165,60.5380709 C35.3562828,60.9194565 33.5488039,63.0172414 31.5086207,63.0172414 C29.4684375,63.0172414 27.6609586,60.9194565 25.7328608,60.5379068 C23.7460125,60.1448696 21.2757038,61.3840445 19.4475474,60.6260325 C17.5877182,59.8547277 16.7204106,57.2240861 15.0671927,56.1171817 C13.4013385,55.0019078 10.6408879,55.2008059 9.22857961,53.7883336 C7.81627133,52.3760253 8.01500539,49.6155747 6.8997315,47.9497205 C5.7929912,46.2966667 3.16234959,45.4295232 2.39104481,43.5695299 C1.63303273,41.7415376 2.8722077,39.2710648 2.47917048,37.2843806 C2.09778489,35.3562828 0,33.5488039 0,31.5086207 C0,29.4684375 2.09778489,27.6609586 2.47933459,25.7328608 C2.87237181,23.7460125 1.63319684,21.2757038 2.39120892,19.4475474 C3.16251369,17.5877182 5.79315531,16.7204106 6.90005972,15.0671927 C8.0153336,13.4013385 7.81643543,10.6408879 9.22890782,9.22857961 C10.6412161,7.81627133 13.4016667,8.01500539 15.0675209,6.8997315 C16.7207388,5.7929912 17.5878823,3.16218548 19.4478756,2.39104481 C21.2758679,1.63303273 23.7463407,2.8722077 25.7330249,2.47917048 C27.6609586,2.09778489 29.4684375,0 31.5086207,0 C33.5488039,0 35.3562828,2.09778489 37.2843806,2.47933459 C39.2712289,2.87237181 41.7415376,1.63319684 43.569694,2.39120892 C45.4295232,3.16251369 46.2968308,5.79315531 47.9500487,6.90005972 C49.6159029,8.0153336 52.3763535,7.81643543 53.7886618,9.22890782 C55.2009701,10.6412161 55.002236,13.4016667 56.1175099,15.0675209 C57.2242502,16.7207388 59.8550559,17.5878823 60.6261966,19.4478756 C61.3842086,21.2758679 60.1450337,23.7463407 60.5380709,25.7330249 C60.9194565,27.6609586 63.0172414,29.4684375 63.0172414,31.5086207 Z" id="Shape" fill="#FFD200"></path>
                        <circle id="Oval" fill="#EF7C15" cx="31.5086207" cy="31.5086207" r="25.0296606"></circle>
                        <path d="M31.5086207,6.47863191 C30.6460722,6.47863191 29.7938625,6.52228448 28.9537967,6.60745622 C41.5774302,7.88732983 51.4289615,18.5474183 51.4289615,31.5086207 C51.4289615,44.4698231 41.5774302,55.1299115 28.9537967,56.4097852 C29.7938625,56.4949569 30.6460722,56.5386095 31.5086207,56.5386095 C45.3322075,56.5386095 56.5386095,45.3323716 56.5386095,31.5086207 C56.5386095,17.6848698 45.3322075,6.47863191 31.5086207,6.47863191 Z" id="Shape" fill="#EF7C15"></path>
                        <path d="M29.2111171,39.0844747 L20.2807206,39.0844747 C19.9072122,39.0844747 19.604434,38.7816965 19.604434,38.4081881 L19.604434,25.134197 C19.604434,24.7606885 19.9072122,24.4579104 20.2807206,24.4579104 L29.2111171,24.4579104 L29.2111171,39.0844747 Z" id="Shape" fill="#FFD200"></path>
                        <path d="M45.9157734,27.9607828 L45.9157734,35.5820946 C45.9157734,38.1964895 43.7964904,40.3157725 41.1820955,40.3157725 L29.2244098,40.3157725 C28.1440908,40.3157725 27.2684137,39.4400954 27.2684137,38.3597764 L27.2684137,17.6615665 C27.2684137,16.8269163 27.9450285,16.1501374 28.7798429,16.1501374 L31.339426,16.1501374 C32.7399185,16.1501374 33.8753776,17.2854324 33.8753776,18.686089 L33.8753776,20.7400572 C33.8753776,22.1136362 34.9888463,23.2269408 36.3622611,23.2269408 L41.1820955,23.2269408 C43.7964904,23.2271049 45.9157734,25.3463878 45.9157734,27.9607828 Z" id="Shape" fill="#FFFFFF"></path>
                        <path d="M41.1820955,23.2269888 L36.3622611,23.2269888 C34.9886822,23.2269888 33.8753776,22.1135126 33.8753776,20.7400884 L33.8753776,18.6861063 C33.8753776,17.2856042 32.7399185,16.1501374 31.339426,16.1501374 L30.5787882,16.1501374 C31.0578177,16.5679577 31.0222064,17.8230596 31.0222064,18.6861063 L31.0222064,20.7400884 C31.0222064,22.1135126 32.1356751,23.2269888 33.5090899,23.2269888 L36.0985405,23.2269888 C38.7129355,23.2269888 40.8322185,25.3462862 40.8322185,27.9606989 L40.8322185,35.5820624 C40.8322185,38.1964751 38.7129355,40.3157725 36.0985405,40.3157725 L41.1820955,40.3157725 C43.7964904,40.3157725 45.9157734,38.1964751 45.9157734,35.5820624 L45.9157734,27.9606989 C45.9159375,25.3464503 43.7964904,23.2269888 41.1820955,23.2269888 Z" id="Shape" fill="#FFD200"></path>
                    </g>
                </g>
            </g>
        </g>
    </g>
</svg>