<?xml version="1.0" encoding="UTF-8"?>
<svg width="75px" height="63px" viewBox="0 0 75 63" version="1.1" xmlns="http://www.w3.org/2000/svg" xmlns:xlink="http://www.w3.org/1999/xlink">
    <!-- Generator: Sketch 47.1 (45422) - http://www.bohemiancoding.com/sketch -->
    <title>online-store</title>
    <desc>Created with Sketch.</desc>
    <defs></defs>
    <g id="Blocklight-Website-Prototype" stroke="none" stroke-width="1" fill="none" fill-rule="evenodd">
        <g id="HOMEPAGE" transform="translate(-469.000000, -1402.000000)" fill-rule="nonzero">
            <g id="MEET-BLOCKLIGHT" transform="translate(0.000000, 495.000000)">
                <g id="icon-bkgd-copy-2" transform="translate(390.000000, 858.000000)">
                    <g id="Group-8">
                        <g id="online-store" transform="translate(79.000000, 49.000000)">
                            <path d="M2.58557565,62.1604311 L2.58557565,1.39889088 C2.58557565,0.684946887 3.1644927,0.106029837 3.87843669,0.106029837 L71.1039893,0.106029837 C71.8179333,0.106029837 72.3968503,0.684946887 72.3968503,1.39889088 L72.3968503,62.1604311 L2.58557565,62.1604311 Z" id="Shape" fill="#FFD200"></path>
                            <rect id="Rectangle-path" fill="#EF7C15" x="9.04958799" y="25.9620792" width="36.1983519" height="23.2704737"></rect>
                            <polygon id="Shape" fill="#FFFFFF" points="38.784074 49.2325529 36.1983519 49.2325529 20.6847516 27.2547938 23.2704737 27.2547938"></polygon>
                            <g id="Group" transform="translate(0.000000, 14.205655)" fill="#EF7C15">
                                <path d="M30.6745489,6.58527298 L30.6745489,6.58527298 C28.7922264,6.58527298 27.2662169,5.05926345 27.2662169,3.17694095 L27.2662169,0.121260642 L34.082881,0.121260642 L34.082881,3.17694095 C34.082881,5.05926345 32.5568714,6.58527298 30.6745489,6.58527298 Z" id="Shape"></path>
                                <path d="M44.3078771,6.58527298 L44.3078771,6.58527298 C42.4255546,6.58527298 40.899545,5.05926345 40.899545,3.17694095 L40.899545,0.121260642 L47.7162091,0.121260642 L47.7162091,3.17694095 C47.7160626,5.05926345 46.1901996,6.58527298 44.3078771,6.58527298 Z" id="Shape"></path>
                                <path d="M17.0415137,6.58527298 L17.0415137,6.58527298 C15.1591912,6.58527298 13.6331817,5.05926345 13.6331817,3.17694095 L13.6331817,0.121260642 L20.4498457,0.121260642 L20.4498457,3.17694095 C20.4496993,5.05926345 18.9238362,6.58527298 17.0415137,6.58527298 Z" id="Shape"></path>
                                <path d="M3.40833203,6.58527298 L3.40833203,6.58527298 C1.52600953,6.58527298 0,5.05926345 0,3.17694095 L0,0.121260642 L6.81666406,0.121260642 L6.81666406,3.17694095 C6.81666406,5.05926345 5.29065453,6.58527298 3.40833203,6.58527298 Z" id="Shape"></path>
                                <path d="M57.9409123,6.58527298 L57.9409123,6.58527298 C56.0585898,6.58527298 54.5325803,5.05926345 54.5325803,3.17694095 L54.5325803,0.121260642 L61.3492443,0.121260642 L61.3492443,3.17694095 C61.3492443,5.05926345 59.8233812,6.58527298 57.9409123,6.58527298 Z" id="Shape"></path>
                            </g>
                            <g id="Group" transform="translate(20.356557, 14.205655)" fill="#FFFFFF">
                                <path d="M3.50147426,6.58527298 L3.50147426,6.58527298 C1.61915176,6.58527298 0.0931422323,5.05926345 0.0931422323,3.17694095 L0.0931422323,0.121260642 L6.9098063,0.121260642 L6.9098063,3.17694095 C6.9098063,5.05926345 5.38394322,6.58527298 3.50147426,6.58527298 Z" id="Shape"></path>
                                <path d="M30.7678376,6.58527298 L30.7678376,6.58527298 C28.8855151,6.58527298 27.3595056,5.05926345 27.3595056,3.17694095 L27.3595056,0.121260642 L34.1761696,0.121260642 L34.1761696,3.17694095 C34.1760232,5.05926345 32.6501601,6.58527298 30.7678376,6.58527298 Z" id="Shape"></path>
                            </g>
                            <path d="M71.574094,20.7909279 C69.6917715,20.7909279 68.1657619,19.2649184 68.1657619,17.3825959 L68.1657619,14.3269156 L74.982426,14.3269156 L74.982426,17.3825959 C74.982426,19.2649184 73.4564165,20.7909279 71.574094,20.7909279 Z" id="Shape" fill="#EF7C15"></path>
                            <g id="Group" transform="translate(6.736702, 14.205655)" fill="#FFFFFF">
                                <path d="M58.020874,6.58527298 L58.020874,6.58527298 C56.1385515,6.58527298 54.612542,5.05926345 54.612542,3.17694095 L54.612542,0.121260642 L61.429206,0.121260642 L61.429206,3.17694095 C61.4290596,5.05926345 59.9030501,6.58527298 58.020874,6.58527298 Z" id="Shape"></path>
                                <path d="M3.48814731,6.58527298 L3.48814731,6.58527298 C1.60582481,6.58527298 0.0798152777,5.05926345 0.0798152777,3.17694095 L0.0798152777,0.121260642 L6.89647934,0.121260642 L6.89647934,3.17694095 C6.89647934,5.05926345 5.37046981,6.58527298 3.48814731,6.58527298 Z" id="Shape"></path>
                                <path d="M30.7545107,6.58527298 L30.7545107,6.58527298 C28.8721882,6.58527298 27.3461786,5.05926345 27.3461786,3.17694095 L27.3461786,0.121260642 L34.1628427,0.121260642 L34.1628427,3.17694095 C34.1628427,5.05926345 32.6368332,6.58527298 30.7545107,6.58527298 Z" id="Shape"></path>
                            </g>
                            <g id="Group" transform="translate(0.000000, 3.954151)" fill="#EF7C15">
                                <polygon id="Shape" points="34.082881 10.3727642 27.2663634 10.3727642 27.9715203 0.0303151605 34.3180797 0.0303151605"></polygon>
                                <polygon id="Shape" points="47.7160626 10.3727642 40.899545 10.3727642 40.6643462 0.0303151605 47.0109056 0.0303151605"></polygon>
                                <polygon id="Shape" points="20.4496993 10.3727642 13.6331817 10.3727642 15.278548 0.0303151605 21.6249609 0.0303151605"></polygon>
                                <polygon id="Shape" points="6.81666406 10.3727642 0 10.3727642 2.58557565 0.0303151605 8.93213505 0.0303151605"></polygon>
                                <polygon id="Shape" points="61.3492443 10.3727642 54.5325803 10.3727642 53.357465 0.0303151605 59.7037315 0.0303151605"></polygon>
                            </g>
                            <g id="Group" transform="translate(20.356557, 3.954151)" fill="#FFFFFF">
                                <polygon id="Shape" points="6.9098063 10.3727642 0.0931422323 10.3727642 1.26840389 0.0303151605 7.61496329 0.0303151605"></polygon>
                                <polygon id="Shape" points="34.1760232 10.3727642 27.3595056 10.3727642 26.6543486 0.0303151605 33.000908 0.0303151605"></polygon>
                            </g>
                            <polygon id="Shape" fill="#EF7C15" points="74.982426 14.3269156 68.1657619 14.3269156 66.0502909 3.98446653 72.3968503 3.98446653"></polygon>
                            <g id="Group" transform="translate(6.736702, 3.954151)" fill="#FFFFFF">
                                <polygon id="Shape" points="61.4290596 10.3727642 54.612542 10.3727642 52.9670292 0.0303151605 59.3135886 0.0303151605"></polygon>
                                <polygon id="Shape" points="6.89647934 10.3727642 0.0799617277 10.3727642 2.19543271 0.0303151605 8.54184566 0.0303151605"></polygon>
                                <polygon id="Shape" points="34.1628427 10.3727642 27.3461786 10.3727642 27.5813774 0.0303151605 33.9276439 0.0303151605"></polygon>
                            </g>
                            <path d="M73.6895649,62.4532922 L1.29286105,62.4532922 C0.578917051,62.4532922 0,61.8743751 0,61.1604311 L0,61.1604311 C0,60.4464872 0.578917051,59.8675701 1.29286105,59.8675701 L73.6897114,59.8675701 C74.4036554,59.8675701 74.9825724,60.4464872 74.9825724,61.1604311 L74.9825724,61.1604311 C74.982426,61.8743751 74.4035089,62.4532922 73.6895649,62.4532922 Z" id="Shape" fill="#FFFFFF"></path>
                            <g id="Group" transform="translate(2.489651, 58.140670)" fill="#FFFFFF">
                                <rect id="Rectangle-path" x="0.0959247833" y="0" width="69.8112747" height="2.7270464"></rect>
                            </g>
                            <rect id="Rectangle-path" fill="#EF7C15" x="2.58557565" y="53.1108432" width="69.8112747" height="5.17115129"></rect>
                            <g id="Group" transform="translate(7.627119, 24.576271)" fill="#FFFFFF">
                                <path d="M36.3398227,2.65118527 L36.3398227,23.3359369 L2.7270464,23.3359369 L2.7270464,2.65118527 L36.3398227,2.65118527 L36.3398227,2.65118527 Z M37.6326837,0.0656096227 L1.43418535,0.0656096227 C0.72024135,0.0656096227 0.141324299,0.644526673 0.141324299,1.35847067 L0.141324299,24.6289444 C0.141324299,25.3428884 0.72024135,25.9218054 1.43418535,25.9218054 L37.6325373,25.9218054 C38.3464813,25.9218054 38.9253983,25.3428884 38.9253983,24.6289444 L38.9253983,1.35847067 C38.9253983,0.644526673 38.3466277,0.0656096227 37.6326837,0.0656096227 L37.6326837,0.0656096227 Z" id="Shape"></path>
                                <path d="M58.3174354,0.0656096227 L45.3894107,0.0656096227 C44.6754667,0.0656096227 44.0965496,0.556466549 44.0965496,1.16181123 L44.0965496,28.5656096 L59.61015,28.5656096 L59.61015,1.16181123 C59.61015,0.556466549 59.0313794,0.0656096227 58.3174354,0.0656096227 Z" id="Shape"></path>
                            </g>
                            <rect id="Rectangle-path" fill="#EF7C15" x="54.2976744" y="27.2547938" width="10.342449" height="20.6847516"></rect>
                            <rect id="Rectangle-path" fill="#FFFFFF" x="8.14409709" y="25.9620792" width="36.1983519" height="3.87829024"></rect>
                            <rect id="SVGCleanerId_0" fill="#A0D2F0" x="54.2976744" y="27.2547938" width="10.342449" height="2.58557565"></rect>
                            <polygon id="Shape" fill="#FFFFFF" points="33.6127763 49.2325529 28.441625 49.2325529 12.9280247 27.2547938 18.099176 27.2547938"></polygon>
                            <polygon id="Shape" fill="#FFFFFF" points="25.2096188 29.8405159 23.2704737 27.2547938 20.6847516 27.2547938 22.6240432 29.8405159"></polygon>
                            <polygon id="Shape" fill="#B4E1FA" points="58.8223951 29.8405159 56.88325 27.2547938 54.2976744 27.2547938 56.2368195 29.8405159"></polygon>
                            <rect id="SVGCleanerId_0_1_" fill="#FFFFFF" x="54.1177361" y="27.2547938" width="10.7023256" height="2.58557565"></rect>
                            <polygon id="Shape" fill="#FFFFFF" points="65 35.342449 56.75 25 54 25 65 38.7900297"></polygon>
                            <polygon id="Shape" fill="#FFFFFF" points="53.2976744 30.7023744 53.2976744 37.9023133 62.2976744 48.7023744 65.2976744 48.7023744 65.2976744 45.1022521"></polygon>
                        </g>
                    </g>
                </g>
            </g>
        </g>
    </g>
</svg>