<?xml version="1.0" encoding="UTF-8" standalone="no"?>
<svg width="15px" height="16px" viewBox="0 0 15 16" version="1.1" xmlns="http://www.w3.org/2000/svg" xmlns:xlink="http://www.w3.org/1999/xlink">
    <!-- Generator: Sketch 47.1 (45422) - http://www.bohemiancoding.com/sketch -->
    <title>thumbs-up</title>
    <desc>Created with Sketch.</desc>
    <defs></defs>
    <g id="BLOCKLIGHT-PROTOTYPE" stroke="none" stroke-width="1" fill="none" fill-rule="evenodd">
        <g id="Landing-Page-#1" transform="translate(-788.000000, -33.000000)" fill-rule="nonzero" fill="#FFFFFF">
            <g id="MENU">
                <g id="thumbs-up" transform="translate(788.000000, 33.000000)">
                    <path d="M2.95202522,7 L0.68123659,7 C0.304995298,7 0,7.33578125 0,7.75 L0,15.25 C0,15.6642187 0.304995298,16 0.68123659,16 L2.95202522,16 C3.32826651,16 3.63326181,15.6642187 3.63326181,15.25 L3.63326181,7.75 C3.63326181,7.33578125 3.32826651,7 2.95202522,7 Z M1.81663091,14.75 C1.44038961,14.75 1.13539432,14.4142187 1.13539432,14 C1.13539432,13.5857813 1.44038961,13.25 1.81663091,13.25 C2.1928722,13.25 2.4978675,13.5857813 2.4978675,14 C2.4978675,14.4142187 2.1928722,14.75 1.81663091,14.75 Z M10.8997854,2.545375 C10.8997854,3.870875 10.1626307,4.614375 9.95522252,5.5 L12.8426154,5.5 C13.7905845,5.5 14.5285908,6.3670625 14.5330189,7.3155625 C14.5354032,7.876125 14.3188267,8.47959375 13.9812456,8.85296875 L13.9781233,8.85640625 C14.2573167,9.5856875 14.2119293,10.6075625 13.713917,11.3398125 C13.960326,12.1490313 13.7119585,13.1430625 13.2489163,13.6759688 C13.3709144,14.2259063 13.3126119,14.6939375 13.0744062,15.0707188 C12.4950712,15.9870937 11.0591948,16 9.84497573,16 L9.76422081,15.9999688 C8.39360117,15.9994375 7.27185998,15.4500313 6.3705272,15.0085625 C5.91759002,14.7867188 5.32536835,14.5120938 4.87603604,14.503 C4.69039907,14.49925 4.54157726,14.3324688 4.54157726,14.1280625 L4.54157726,7.44775 C4.54157726,7.34775 4.57796665,7.25178125 4.64257059,7.18146875 C5.76700835,5.95821875 6.25051602,4.663125 7.17214397,3.64675 C7.59235341,3.18325 7.74517748,2.483125 7.89292067,1.8060625 C8.01914813,1.22790625 8.28318408,0 8.85607566,0 C9.53731225,0 10.8997854,0.25 10.8997854,2.545375 Z" id="Shape"></path>
                </g>
            </g>
        </g>
    </g>
</svg>