<?xml version="1.0" encoding="UTF-8" standalone="no"?>
<svg width="75px" height="63px" viewBox="0 0 75 63" version="1.1" xmlns="http://www.w3.org/2000/svg" xmlns:xlink="http://www.w3.org/1999/xlink">
    <!-- Generator: Sketch 47.1 (45422) - http://www.bohemiancoding.com/sketch -->
    <title>team</title>
    <desc>Created with Sketch.</desc>
    <defs></defs>
    <g id="#7--High-Fidelity-Screens-Copy" stroke="none" stroke-width="1" fill="none" fill-rule="evenodd">
        <g id="Landing-Page-#1" transform="translate(-698.000000, -3586.000000)" fill-rule="nonzero">
            <g id="HOW-DOES-IT-WORK?" transform="translate(0.000000, 2080.000000)">
                <g id="reports" transform="translate(688.000000, 1494.000000)">
                    <g id="team" transform="translate(10.000000, 12.000000)">
                        <g id="Group" transform="translate(0.000000, 10.531567)">
                            <path d="M18.5446276,27.8219147 C15.8456209,27.8219147 13.3968852,26.6637348 11.5901363,24.791895 C11.5888198,25.9136532 11.54801,27.5330279 11.2506395,28.7143188 C11.4457661,28.8335303 11.5971573,29.0293882 11.6267042,29.2729307 C12.0122766,32.4104601 14.986128,34.7761135 18.5446276,34.7761135 C22.1025422,34.7761135 25.0762473,32.4101676 25.462551,29.2729307 C25.4925367,29.0289493 25.64071,28.8335303 25.838762,28.7146113 C25.5412452,27.5330279 25.5004354,25.9136532 25.499119,24.7917487 C23.6923701,26.6637348 21.2434881,27.8219147 18.5446276,27.8219147 Z" id="Shape" fill="#777777"></path>
                            <path d="M25.3481665,24.9345099 C23.5566299,26.7190255 21.1715224,27.822061 18.5446276,27.822061 C15.8456209,27.822061 13.3968852,26.6638811 11.5901363,24.7920412 C11.5888198,25.9137994 11.54801,27.5331742 11.2506395,28.714465 C11.4457661,28.8336765 11.5971573,29.0295344 11.6267042,29.2730769 C11.7971108,30.6598796 12.4744954,31.8947059 13.4833318,32.8424007 C18.1356518,32.1871031 23.4160627,27.5931456 25.3481665,24.9345099 Z" id="Shape" fill="#000000"></path>
                            <path d="M32.6477129,29.5487992 C32.6167033,29.5401692 32.58584,29.5332944 32.554099,29.52876 L26.386111,28.6032985 C26.3483729,28.5975939 26.2676309,28.5946685 26.2291614,28.5946685 C25.8390546,28.5946685 25.5100894,28.885603 25.462551,29.2730769 C25.0762473,32.4103139 22.1023959,34.7762598 18.5446276,34.7762598 C14.9859817,34.7762598 12.0122766,32.4106064 11.6267042,29.2730769 C11.5784346,28.8743401 11.2191911,28.5743367 10.8404935,28.5951073 C10.7951492,28.5924744 10.7506826,28.5962774 10.7031443,28.6034448 L4.53515625,29.5289063 C4.50341528,29.5334407 4.47255193,29.5401692 4.44154232,29.5489455 C1.52576084,30.3652882 0,33.2342627 0,35.6462842 L0,38.639736 C0,39.914202 1.13492267,40.9509763 2.53006282,40.9509763 L34.5590462,40.9509763 C35.9543326,40.9509763 37.089109,39.914202 37.089109,38.639736 L37.089109,35.6462842 C37.089109,33.2342627 35.5633481,30.3652882 32.6477129,29.5487992 Z" id="Shape" fill="#FFD200"></path>
                            <path d="M25.4988264,8.50467956 L12.3630363,8.50467956 C10.2328805,8.50467956 8.49956005,10.238 8.49956005,12.3681558 L8.49956005,17.0042396 C8.49956005,22.9692024 13.0059008,27.8219147 18.5444814,27.8219147 C24.083062,27.8219147 28.5894027,22.9692024 28.5894027,17.0042396 L28.5894027,11.5954021 C28.5895489,9.89133595 27.2033314,8.50467956 25.4988264,8.50467956 Z" id="Shape" fill="#777777"></path>
                            <path d="M23.9534652,0.00511951197 L13.9083976,0.00511951197 C12.4550413,0.00511951197 11.2333794,1.01322456 10.9044142,2.36653098 C8.24446208,2.70456504 6.18144503,4.98187024 6.18144503,7.7319258 L6.18144503,11.5954021 C6.18144503,13.586746 7.02674959,15.4443975 8.49956005,16.7646465 L8.49956005,12.3680096 C8.49956005,10.2378538 10.2328805,8.50453329 12.3630363,8.50453329 L25.4988264,8.50453329 C27.2034776,8.50453329 28.5895489,9.89104341 28.5895489,11.5952558 L28.5895489,16.7637688 C30.0626519,15.4438124 30.907664,13.5861609 30.907664,11.5952558 L30.907664,6.95917203 C30.907664,3.12495011 27.7881259,0.00511951197 23.9534652,0.00511951197 Z" id="Shape" fill="#000000"></path>
                        </g>
                        <g id="Group" transform="translate(37.738117, 10.531567)">
                            <path d="M18.6084021,27.8219147 C15.9093954,27.8219147 13.4606597,26.6637348 11.6539108,24.791895 C11.6525943,25.9136532 11.6117845,27.5330279 11.314414,28.7143188 C11.5095405,28.8335303 11.6609318,29.0293882 11.6904787,29.2729307 C12.0760511,32.4104601 15.0499025,34.7761135 18.6084021,34.7761135 C22.1663167,34.7761135 25.1400218,32.4101676 25.5263255,29.2729307 C25.5563112,29.0289493 25.7044845,28.8335303 25.9025365,28.7146113 C25.6050197,27.5330279 25.5642099,25.9136532 25.5628935,24.7917487 C23.7561445,26.6637348 21.3074088,27.8219147 18.6084021,27.8219147 Z" id="Shape" fill="#777777"></path>
                            <path d="M25.411941,24.9345099 C23.6204043,26.7190255 21.2352969,27.822061 18.6084021,27.822061 C15.9093954,27.822061 13.4606597,26.6638811 11.6539108,24.7920412 C11.6525943,25.9137994 11.6117845,27.5331742 11.314414,28.714465 C11.5095405,28.8336765 11.6609318,29.0295344 11.6904787,29.2730769 C11.8608853,30.6598796 12.5382699,31.8947059 13.5471063,32.8424007 C18.1994263,32.1871031 23.4798372,27.5931456 25.411941,24.9345099 Z" id="Shape" fill="#000000"></path>
                            <path d="M32.7114874,29.5487992 C32.6806241,29.5401692 32.6496145,29.5332944 32.6178735,29.52876 L26.4498855,28.6032985 C26.4121474,28.5975939 26.3314053,28.5946685 26.2929359,28.5946685 C25.9028291,28.5946685 25.5738638,28.885603 25.5263255,29.2730769 C25.1400218,32.4103139 22.1661704,34.7762598 18.6084021,34.7762598 C15.0497562,34.7762598 12.0760511,32.4106064 11.6904787,29.2730769 C11.642209,28.8743401 11.2829656,28.5743367 10.904268,28.5951073 C10.8589237,28.5924744 10.8144571,28.5962774 10.7669188,28.6034448 L4.59893074,29.5289063 C4.56718977,29.5334407 4.53632642,29.5401692 4.50531681,29.5489455 C1.5896816,30.3654345 0.0639207638,33.2342627 0.0639207638,35.6462842 L0.0639207638,38.639736 C0.0639207638,39.914202 1.19884343,40.9509763 2.59398358,40.9509763 L34.6229669,40.9509763 C36.0182534,40.9509763 37.1530298,39.914202 37.1530298,38.639736 L37.1530298,35.6462842 C37.1530298,33.2342627 35.6272689,30.3652882 32.7114874,29.5487992 Z" id="Shape" fill="#FFD200"></path>
                            <path d="M25.5626009,8.50467956 L12.4268108,8.50467956 C10.296655,8.50467956 8.56333454,10.238 8.56333454,12.3681558 L8.56333454,17.0042396 C8.56333454,22.9692024 13.0696753,27.8219147 18.6082559,27.8219147 C24.1468364,27.8219147 28.6531772,22.9692024 28.6531772,17.0042396 L28.6531772,11.5954021 C28.6534697,9.89133595 27.2672521,8.50467956 25.5626009,8.50467956 Z" id="Shape" fill="#777777"></path>
                            <path d="M24.0172397,0.00511951197 L13.9723184,0.00511951197 C12.518962,0.00511951197 11.2973002,1.01322456 10.968335,2.36653098 C8.30838285,2.70456504 6.24536579,4.98187024 6.24536579,7.7319258 L6.24536579,11.5954021 C6.24536579,13.586746 7.09067036,15.4443975 8.56348081,16.7646465 L8.56348081,12.3680096 C8.56348081,10.2378538 10.2968013,8.50453329 12.4269571,8.50453329 L25.5627472,8.50453329 C27.2673984,8.50453329 28.6534697,9.89104341 28.6534697,11.5952558 L28.6534697,16.7637688 C30.1265727,15.4438124 30.9715847,13.5861609 30.9715847,11.5952558 L30.9715847,6.95917203 C30.9714385,3.12495011 27.8520467,0.00511951197 24.0172397,0.00511951197 Z" id="Shape" fill="#000000"></path>
                        </g>
                        <g id="Group" transform="translate(9.361393, 0.000000)">
                            <path d="M28.08418,42.1313895 C23.9967616,42.1313895 20.2883334,40.3774447 17.5521737,37.5425515 C17.5501259,39.2414981 17.4883992,41.6935981 17.0378821,43.4827944 C17.3333511,43.66344 17.5627052,43.9599329 17.6074644,44.3288303 C18.1913813,49.0803225 22.6949429,52.662957 28.08418,52.662957 C33.4722469,52.662957 37.9758085,49.0798837 38.5608955,44.3288303 C38.6062398,43.9594941 38.8306207,43.66344 39.1306241,43.4833794 C38.680107,41.6940369 38.6182341,39.2416444 38.6161863,37.5425515 C35.8800265,40.3774447 32.1715983,42.1313895 28.08418,42.1313895 Z" id="Shape" fill="#FFFFFF"></path>
                            <path d="M38.3875635,37.7584486 C35.6743684,40.4611121 32.0624796,42.1313895 28.08418,42.1313895 C23.9967616,42.1313895 20.2883334,40.3774447 17.5521737,37.5425515 C17.5501259,39.2414981 17.4883992,41.6935981 17.0378821,43.4827944 C17.3333511,43.66344 17.5627052,43.9599329 17.6074644,44.3288303 C17.8656341,46.4291466 18.891438,48.2992312 20.4192466,49.7341573 C27.4648653,48.7419959 35.461543,41.7848716 38.3875635,37.7584486 Z" id="Shape" fill="#777777"></path>
                            <path d="M49.4420526,44.7465825 C49.3952456,44.733418 49.3482924,44.723179 49.3003152,44.7163042 L39.9595462,43.3147281 C39.902354,43.3060981 39.7800708,43.3015636 39.7218546,43.3015636 C39.1310629,43.3015636 38.6328613,43.7421342 38.5607493,44.3288303 C37.9756622,49.0797374 33.4721006,52.662957 28.0840337,52.662957 C22.6947966,52.662957 18.191235,49.0804688 17.6073181,44.3288303 C17.5341822,43.7248741 16.9901975,43.2707003 16.4165196,43.3020024 C16.3479182,43.2980531 16.2804869,43.3037577 16.2085212,43.3145818 L6.86775218,44.7161579 C6.81977504,44.7230327 6.77296807,44.7332717 6.72601483,44.7464362 C2.31065516,45.9830177 0,50.3277281 0,53.9805731 L0,58.5138278 C0,60.4438838 1.71869331,62.0141113 3.83158903,62.0141113 L52.3366246,62.0141113 C54.4495204,62.0141113 56.1682137,60.4440301 56.1682137,58.5138278 L56.1682137,53.9805731 C56.1683599,50.3277281 53.8577048,45.9830177 49.4420526,44.7465825 Z" id="Shape" fill="#EF7C15"></path>
                            <path d="M38.6157475,12.8770353 L18.7227866,12.8770353 C15.4967627,12.8770353 12.8719158,15.5018823 12.8719158,18.7279062 L12.8719158,25.7489512 C12.8719158,34.7824032 19.6963716,42.1313895 28.08418,42.1313895 C36.4719884,42.1313895 43.2964441,34.7824032 43.2964441,25.7489512 L43.2964441,17.557732 C43.2964441,14.9769129 41.1971517,12.8770353 38.6157475,12.8770353 Z" id="Shape" fill="#FFFFFF"></path>
                            <path d="M36.2753991,0.00511951197 L21.063135,0.00511951197 C18.8621836,0.00511951197 17.0121383,1.53175798 16.5137904,3.58131803 C12.4856121,4.09326923 9.36139332,7.54206504 9.36139332,11.7068612 L9.36139332,17.557732 C9.36139332,20.5734171 10.6415639,23.3868083 12.8719158,25.3861972 L12.8719158,18.7279062 C12.8719158,15.5018823 15.4967627,12.8770353 18.7227866,12.8770353 L38.6157475,12.8770353 C41.1971517,12.8770353 43.2964441,14.9767666 43.2964441,17.557732 L43.2964441,25.3848807 C45.5272349,23.3859307 46.8069666,20.5726857 46.8069666,17.557732 L46.8069666,10.536687 C46.8069666,4.72984398 42.0828272,0.00511951197 36.2753991,0.00511951197 Z" id="Shape" fill="#000000"></path>
                        </g>
                    </g>
                </g>
            </g>
        </g>
    </g>
</svg>