<?xml version="1.0" encoding="UTF-8"?>
<svg width="144px" height="120px" viewBox="0 0 144 120" version="1.1" xmlns="http://www.w3.org/2000/svg" xmlns:xlink="http://www.w3.org/1999/xlink">
    <!-- Generator: Sketch 47.1 (45422) - http://www.bohemiancoding.com/sketch -->
    <title>twitter</title>
    <desc>Created with Sketch.</desc>
    <defs></defs>
    <g id="BAP-(Desktop)" stroke="none" stroke-width="1" fill="none" fill-rule="evenodd">
        <g id="Referral-Plan-News" transform="translate(-383.000000, -189.000000)" fill-rule="nonzero" fill="#1DA1F2">
            <g id="integrations-Moal" transform="translate(2.000000, 2.000000)">
                <g id="Group-7" transform="translate(362.000000, 187.000000)">
                    <g id="twitter" transform="translate(19.000000, 0.000000)">
                        <path d="M129.198317,29.9061411 C129.289724,31.2185784 129.289724,32.5313043 129.289724,33.8437417 C129.289724,73.8748115 99.594389,120 45.3199583,120 C28.599018,120 13.0660823,115.031034 0,106.406404 C2.37572803,106.687476 4.6597682,106.781263 7.12690284,106.781263 C20.9236755,106.781263 33.6244126,102.000159 43.7666085,93.8438859 C30.7919328,93.5625257 19.9187653,84.843821 16.1725007,72.8437344 C18.0000703,73.1248061 19.8273587,73.3123796 21.7463349,73.3123796 C24.3960015,73.3123796 27.0459494,72.9372326 29.5128028,72.2813025 C15.9899687,69.4685658 5.84749159,57.2811943 5.84749159,42.5624463 L5.84749159,42.1875879 C9.77628819,44.4376042 14.3452123,45.8438282 19.1875125,46.0311132 C11.2382314,40.5935018 6.03030481,31.3123652 6.03030481,20.8122894 C6.03030481,15.1873931 7.49196677,10.031142 10.050508,5.53110955 C24.5785335,23.9060978 46.4162751,35.9058958 70.903402,37.2186217 C70.4466502,34.9686055 70.1724304,32.6250911 70.1724304,30.2812881 C70.1724304,13.5935956 83.3299193,0 99.6852331,0 C108.182673,0 115.857734,3.65624031 121.248755,9.56249684 C127.918625,8.25005952 134.314556,5.71868304 139.979797,2.25001623 C137.786601,9.28142517 133.126833,15.1876817 127.005121,18.9374202 C132.944301,18.2814901 138.700667,16.5936172 144,14.2501028 C139.980359,20.2498575 134.954683,25.5933936 129.198317,29.9061411 Z" id="Shape"></path>
                    </g>
                </g>
            </g>
        </g>
    </g>
</svg>