<?xml version="1.0" encoding="UTF-8" standalone="no"?>
<svg width="75px" height="75px" viewBox="0 0 75 75" version="1.1" xmlns="http://www.w3.org/2000/svg" xmlns:xlink="http://www.w3.org/1999/xlink">
    <!-- Generator: sketchtool 47.1 (45422) - http://www.bohemiancoding.com/sketch -->
    <title>2293F3FA-DE72-40AE-A7B2-00AFC9B1C177</title>
    <desc>Created with sketchtool.</desc>
    <defs></defs>
    <g id="Blocklight-Website-Prototype" stroke="none" stroke-width="1" fill="none" fill-rule="evenodd">
        <g id="HOMEPAGE" transform="translate(-706.000000, -2529.000000)" fill-rule="nonzero">
            <g id="HOW-DOES-IT-WORK?" transform="translate(0.000000, 1824.000000)">
                <g id="updates" transform="translate(699.000000, 705.000000)">
                    <g id="update" transform="translate(7.000000, 0.000000)">
                        <path d="M75,37.5 C75,58.2106934 58.2106934,75 37.5,75 C16.7893066,75 0,58.2106934 0,37.5 C0,16.7893066 16.7893066,0 37.5,0 C58.2106934,0 75,16.7893066 75,37.5 Z" id="Shape" fill="#FFD200"></path>
                        <path d="M40.9883721,7.58341759 L40.9883721,38.6375126 C40.9883721,39.4542353 40.3263284,40.1162791 39.5096057,40.1162791 L8.45551062,40.1162791 C7.63878792,40.1162791 6.97674419,39.4542353 6.97674419,38.6375126 L6.97674419,7.58341759 C6.97674419,6.76669489 7.63878792,6.10465116 8.45551062,6.10465116 L39.5096057,6.10465116 C40.3263284,6.10465116 40.9883721,6.76669489 40.9883721,7.58341759 Z" id="Shape" fill="#EF7C15"></path>
                        <path d="M40.9883721,7.5872093 L40.9883721,34.2732558 C40.9883721,35.0920727 40.3263284,35.755814 39.5096057,35.755814 L8.45551062,35.755814 C7.63878792,35.755814 6.97674419,35.0920727 6.97674419,34.2732558 L6.97674419,7.5872093 C6.97674419,6.76839244 7.63878792,6.10465116 8.45551062,6.10465116 L39.5096057,6.10465116 C40.3263284,6.10465116 40.9883721,6.76839244 40.9883721,7.5872093 Z" id="Shape" fill="#EF7C15"></path>
                        <path d="M34.0116279,21.0274101 C34.0116279,26.2719223 29.7166408,30.5232558 24.4186047,30.5232558 C19.1205685,30.5232558 14.8255814,26.2719223 14.8255814,21.0274101 C14.8255814,15.987722 18.7949261,11.8762789 23.8062091,11.5622154 L23.8062091,10.1563381 C23.8062091,9.71080949 24.3047252,9.442214 24.682758,9.68393541 L31.1027123,13.7920374 C31.4490467,14.0135669 31.4490467,14.5150226 31.1027123,14.7366974 L24.682758,18.8447994 C24.3047252,19.0868113 23.8062091,18.8180706 23.8062091,18.372542 L23.8062091,16.3225584 C21.447026,16.620788 19.6220196,18.6110676 19.6220196,21.0274101 C19.6220196,23.6495936 21.7694398,25.7752603 24.4184579,25.7752603 C27.067476,25.7752603 29.2148962,23.6495936 29.2148962,21.0274101 L34.0116279,21.0274101 L34.0116279,21.0274101 Z" id="Shape" fill="#FFFFFF"></path>
                        <path d="M61.0465116,33.7426411 L61.0465116,55.5239762 C61.0465116,56.8073119 60.1974247,57.8902543 59.0330417,58.2407599 L59.0330417,65.4069767 L36.9898259,65.4069767 L36.9898259,59.5014399 C36.9898259,58.7239841 36.3622906,58.0938633 35.5880246,58.0938633 L35.5880246,58.0910861 C34.4611977,58.0741309 33.4064259,57.3789664 32.9853033,56.2558284 L26.3447246,37.7177662 C25.7949216,36.2512847 26.5332327,34.6151047 27.9935515,34.0630365 L28.3581945,33.9252022 C29.8186589,33.3732801 31.4481256,34.1144869 31.9979286,35.5808222 L36.2606855,47.7767503 C36.4082894,48.1706672 36.9899715,48.0642585 36.9899715,47.6434471 L36.9899715,19.4066994 C36.9899715,17.8399482 38.2549406,16.5697674 39.8152634,16.5697674 L40.2049437,16.5697674 C41.765412,16.5697674 43.0302356,17.8399482 43.0302356,19.4066994 L43.0302356,30.9055629 L58.2212197,30.9055629 C59.7815425,30.9057091 61.0465116,32.1757437 61.0465116,33.7426411 Z" id="Shape" fill="#FFFFFF"></path>
                        <path d="M39.8328015,57.581204 L39.8328015,71.3657581 L36.9210307,73.255814 L36.9210307,59.4711138 C36.9210307,58.6942044 36.2973381,58.0645266 35.5281365,58.0645266 L35.5281365,58.0617514 C34.4084694,58.0448081 33.3603997,57.3501323 32.9419529,56.2277838 L26.3435686,37.7028996 C25.797259,36.237449 26.5308789,34.6024192 27.9819188,34.0507391 L28.3442449,33.9130016 C28.6559466,33.7945445 28.9753142,33.7390406 29.290198,33.7342205 C29.0282529,34.3751451 28.9944068,35.1127635 29.2554841,35.8128437 L35.8537237,54.337874 C36.2721705,55.4602225 37.3202402,56.1548983 38.4399073,56.1718417 L38.4399073,56.1746169 C39.2092536,56.1746169 39.8328015,56.8044407 39.8328015,57.581204 Z M36.9210307,19.4047051 L36.9210307,47.621749 C36.9210307,47.8374841 36.7690129,47.9696712 36.6010845,47.9949401 L36.6009398,47.9952322 L36.8343906,47.9952322 C36.8533386,47.9952322 36.8722866,47.9950862 36.8912346,47.994648 C38.5100583,47.9641208 39.8131303,46.6293967 39.8131303,44.9873559 L39.8131303,17.0472475 C39.8131303,16.8843872 39.8278837,16.7250325 39.8542084,16.5697674 L39.7286599,16.5697674 C38.1779622,16.5697674 36.9210307,17.8390553 36.9210307,19.4047051 Z M54.6661845,30.8956312 L54.6661845,43.340349 C54.6661845,44.146763 55.3135983,44.8005412 56.112162,44.8005412 C56.9107258,44.8005412 57.5581395,44.146763 57.5581395,43.340349 L57.5581395,30.8956312 L54.6661845,30.8956312 L54.6661845,30.8956312 Z M42.9341969,43.340349 C42.9341969,44.146763 43.5816106,44.8005412 44.3801744,44.8005412 C45.1787381,44.8005412 45.8261519,44.146763 45.8261519,43.340349 L45.8261519,30.8956312 L42.9341969,30.8956312 L42.9341969,43.340349 L42.9341969,43.340349 Z M48.8001184,43.340349 C48.8001184,44.146763 49.4475321,44.8005412 50.2460959,44.8005412 C51.0446596,44.8005412 51.6920734,44.146763 51.6920734,43.340349 L51.6920734,30.8956312 L48.8001184,30.8956312 L48.8001184,43.340349 L48.8001184,43.340349 Z" id="Shape" fill="#EF7C15"></path>
                        <path d="M62.7906977,64.72581 L62.7906977,65.2263371 C56.1391434,71.3026495 47.3505543,75 37.7131991,75 C36.4639775,75 35.2294354,74.9364434 34.0116279,74.8150128 L34.0116279,64.7256604 C34.0116279,63.6570119 34.8620087,62.7906977 35.9111493,62.7906977 L60.8914699,62.7906977 C61.9403169,62.7906977 62.7906977,63.6571614 62.7906977,64.72581 Z" id="Shape" fill="#EF7C15"></path>
                        <path d="M62.7906977,64.7260233 L62.7906977,65.2266056 C56.079198,71.2829484 47.2183657,74.9751728 37.5,75 L37.5,64.7258737 C37.5,63.6571074 38.3609517,62.7906977 39.4229853,62.7906977 L60.8675637,62.7906977 C61.929746,62.7906977 62.7906977,63.6572569 62.7906977,64.7260233 Z" id="Shape" fill="#EF7C15"></path>
                        <path d="M39.244186,68.8953488 C39.244186,69.8586345 38.4632857,70.6395349 37.5,70.6395349 C36.5367143,70.6395349 35.755814,69.8586345 35.755814,68.8953488 C35.755814,67.9320632 36.5367143,67.1511628 37.5,67.1511628 C38.4632857,67.1511628 39.244186,67.9320632 39.244186,68.8953488 Z" id="Shape" fill="#FFD200"></path>
                    </g>
                </g>
            </g>
        </g>
    </g>
</svg>